<svg width="10" height="16" viewBox="0 0 10 16" fill="none" xmlns="http://www.w3.org/2000/svg">
<path fill-rule="evenodd" clip-rule="evenodd" d="M0.459028 14.8634C0.427153 14.9304 0.410727 15.0024 0.410724 15.0751C0.410743 15.1419 0.424601 15.2078 0.451207 15.2695C0.424627 15.2078 0.410782 15.142 0.410764 15.0752C0.410767 15.0025 0.427192 14.9305 0.459067 14.8635C0.490942 14.7965 0.537618 14.7358 0.596332 14.6851L8.11541 8.00102L8.11534 8.00096L0.596292 14.685C0.537579 14.7357 0.490902 14.7964 0.459028 14.8634ZM0.450076 1.12232C0.424407 1.06387 0.410072 1.00136 0.408374 0.937431C0.405462 0.827865 0.43986 0.720075 0.507059 0.62819C0.574257 0.536305 0.67112 0.464615 0.784949 0.422517C0.898777 0.380419 1.02426 0.369877 1.14494 0.392276C1.26563 0.414675 1.37588 0.468968 1.46125 0.548038L9.4128 7.61659C9.47459 7.67155 9.5218 7.73705 9.55219 7.80834C9.5218 7.73701 9.47458 7.67148 9.41276 7.6165L1.46121 0.547947C1.37584 0.468878 1.26559 0.414585 1.1449 0.392185C1.02422 0.369786 0.898738 0.380329 0.784909 0.422427C0.671081 0.464525 0.574218 0.536214 0.507019 0.628099C0.43982 0.719984 0.405422 0.827775 0.408334 0.93734C0.410034 1.0013 0.424382 1.06384 0.450076 1.12232ZM1.22849 15.9807C1.42229 15.9445 1.60225 15.8575 1.74458 15.7281L9.69432 8.66117C9.88753 8.48934 10 8.25227 10 8.00093C10 7.74959 9.88747 7.51247 9.69426 7.34064L1.74541 0.274491C1.60224 0.143104 1.42042 0.0549105 1.22451 0.0185492C1.02716 -0.0180774 0.821809 -0.000991536 0.634548 0.0682652C0.447145 0.137573 0.284358 0.256829 0.169903 0.413331C0.0552499 0.570103 -0.004771 0.756112 0.000296523 0.946782C0.00690561 1.19557 0.123364 1.42787 0.31741 1.595L7.35541 7.85146C7.44491 7.93101 7.44491 8.07085 7.35541 8.15041L0.316673 14.4075C0.219113 14.4923 0.140334 14.5945 0.0859788 14.7088C0.0311385 14.8241 0.00256674 14.9488 0.00256102 15.0752C0.00261276 15.2635 0.0659653 15.4459 0.181885 15.5988C0.297612 15.7515 0.45978 15.8673 0.645429 15.9343C0.830948 16.0012 1.03368 16.0171 1.22849 15.9807Z" />
</svg>
