<svg width="18" height="20" viewBox="0 0 18 20" fill="none" xmlns="http://www.w3.org/2000/svg">
<path d="M1.25 0.5C0.568203 0.5 0 1.0682 0 1.75V4.75C0 5.33508 0.450422 5.76502 1 5.89551V16.25C1 18.036 2.46403 19.5 4.25 19.5H13.75C15.536 19.5 17 18.036 17 16.25V5.89551C17.5496 5.76502 18 5.33508 18 4.75V1.75C18 1.0682 17.4318 0.5 16.75 0.5H1.25ZM1.5 2H16.5V4.5H1.5V2ZM2.5 6H15.5V16.25C15.5 17.225 14.725 18 13.75 18H4.25C3.27497 18 2.5 17.225 2.5 16.25V6ZM6.75 9C6.65062 8.99859 6.55194 9.01696 6.45972 9.05402C6.36749 9.09108 6.28355 9.1461 6.21277 9.21588C6.142 9.28566 6.08579 9.36882 6.04743 9.46051C6.00907 9.5522 5.98932 9.65061 5.98932 9.75C5.98932 9.84939 6.00907 9.9478 6.04743 10.0395C6.08579 10.1312 6.142 10.2143 6.21277 10.2841C6.28355 10.3539 6.36749 10.4089 6.45972 10.446C6.55194 10.483 6.65062 10.5014 6.75 10.5H11.25C11.3494 10.5014 11.4481 10.483 11.5403 10.446C11.6325 10.4089 11.7164 10.3539 11.7872 10.2841C11.858 10.2143 11.9142 10.1312 11.9526 10.0395C11.9909 9.9478 12.0107 9.84939 12.0107 9.75C12.0107 9.65061 11.9909 9.5522 11.9526 9.46051C11.9142 9.36882 11.858 9.28566 11.7872 9.21588C11.7164 9.1461 11.6325 9.09108 11.5403 9.05402C11.4481 9.01696 11.3494 8.99859 11.25 9H6.75Z" />
</svg>
