<svg width="23" height="21" viewBox="0 0 23 21" fill="none" xmlns="http://www.w3.org/2000/svg">
<path d="M0.863515 8.40058e-05C0.750695 -0.00149019 0.638684 0.019074 0.533991 0.0605814C0.429297 0.102089 0.334008 0.163712 0.253663 0.241869C0.173318 0.320026 0.109518 0.413158 0.0659715 0.515854C0.0224249 0.618549 0 0.72876 0 0.840081C0 0.951401 0.0224249 1.06161 0.0659715 1.16431C0.109518 1.267 0.173318 1.36014 0.253663 1.43829C0.334008 1.51645 0.429297 1.57807 0.533991 1.61958C0.638684 1.66109 0.750695 1.68165 0.863515 1.68008H2.46319C2.65552 1.68008 2.81601 1.79891 2.8706 1.98195L6.49898 14.1521C6.81742 15.2203 7.81886 15.96 8.94838 15.96H18.2638C19.4313 15.96 20.4583 15.169 20.7414 14.052V14.0503L22.9747 5.2435C23.006 5.11964 23.0083 4.99037 22.9814 4.8655C22.9545 4.74064 22.8991 4.62346 22.8194 4.52288C22.7398 4.42229 22.6379 4.34094 22.5216 4.28501C22.4053 4.22907 22.2776 4.20002 22.1482 4.20007H5.3067L4.5052 1.50781H4.50353C4.23799 0.617342 3.40321 8.40058e-05 2.46319 8.40058e-05H0.863515ZM9.3774 17.64C8.9258 17.64 8.49269 17.817 8.17336 18.1321C7.85402 18.4471 7.67462 18.8744 7.67462 19.32C7.67462 19.7656 7.85402 20.1929 8.17336 20.5079C8.49269 20.823 8.9258 21 9.3774 21C9.82901 21 10.2621 20.823 10.5814 20.5079C10.9008 20.1929 11.0802 19.7656 11.0802 19.32C11.0802 18.8744 10.9008 18.4471 10.5814 18.1321C10.2621 17.817 9.82901 17.64 9.3774 17.64ZM17.8913 17.64C17.4397 17.64 17.0066 17.817 16.6872 18.1321C16.3679 18.4471 16.1885 18.8744 16.1885 19.32C16.1885 19.7656 16.3679 20.1929 16.6872 20.5079C17.0066 20.823 17.4397 21 17.8913 21C18.3429 21 18.776 20.823 19.0953 20.5079C19.4147 20.1929 19.5941 19.7656 19.5941 19.32C19.5941 18.8744 19.4147 18.4471 19.0953 18.1321C18.776 17.817 18.3429 17.64 17.8913 17.64Z" />
</svg>
