<svg width="20" height="18" viewBox="0 0 20 18" fill="none" xmlns="http://www.w3.org/2000/svg">
<path d="M1.11023 0.000112507C0.815781 0.000112507 0.533389 0.118638 0.32518 0.329613C0.116971 0.540589 0 0.826734 0 1.1251C0 1.42346 0.116971 1.70961 0.32518 1.92058C0.533389 2.13156 0.815781 2.25008 1.11023 2.25008C1.40468 2.25008 1.68708 2.13156 1.89529 1.92058C2.10349 1.70961 2.22047 1.42346 2.22047 1.1251C2.22047 0.826734 2.10349 0.540589 1.89529 0.329613C1.68708 0.118638 1.40468 0.000112507 1.11023 0.000112507ZM5.55116 0.000112507C5.40404 -0.00199577 5.25798 0.0255454 5.12146 0.0811351C4.98493 0.136725 4.86067 0.219255 4.7559 0.323928C4.65113 0.428602 4.56793 0.553332 4.51115 0.69087C4.45436 0.828407 4.42512 0.97601 4.42512 1.1251C4.42512 1.27419 4.45436 1.42179 4.51115 1.55933C4.56793 1.69686 4.65113 1.82159 4.7559 1.92627C4.86067 2.03094 4.98493 2.11347 5.12146 2.16906C5.25798 2.22465 5.40404 2.25219 5.55116 2.25008H18.874C19.0211 2.25219 19.1671 2.22465 19.3037 2.16906C19.4402 2.11347 19.5644 2.03094 19.6692 1.92627C19.774 1.82159 19.8572 1.69686 19.914 1.55933C19.9708 1.42179 20 1.27419 20 1.1251C20 0.97601 19.9708 0.828407 19.914 0.69087C19.8572 0.553332 19.774 0.428602 19.6692 0.323928C19.5644 0.219255 19.4402 0.136725 19.3037 0.0811351C19.1671 0.0255454 19.0211 -0.00199577 18.874 0.000112507H5.55116ZM1.11023 4.50006C0.815781 4.50006 0.533389 4.61858 0.32518 4.82956C0.116971 5.04053 0 5.32668 0 5.62504C0 5.92341 0.116971 6.20955 0.32518 6.42053C0.533389 6.6315 0.815781 6.75003 1.11023 6.75003C1.40468 6.75003 1.68708 6.6315 1.89529 6.42053C2.10349 6.20955 2.22047 5.92341 2.22047 5.62504C2.22047 5.32668 2.10349 5.04053 1.89529 4.82956C1.68708 4.61858 1.40468 4.50006 1.11023 4.50006ZM5.55116 4.50006C5.40404 4.49795 5.25798 4.52549 5.12146 4.58108C4.98493 4.63667 4.86067 4.7192 4.7559 4.82387C4.65113 4.92855 4.56793 5.05328 4.51115 5.19081C4.45436 5.32835 4.42512 5.47595 4.42512 5.62504C4.42512 5.77413 4.45436 5.92173 4.51115 6.05927C4.56793 6.19681 4.65113 6.32154 4.7559 6.42621C4.86067 6.53089 4.98493 6.61342 5.12146 6.66901C5.25798 6.7246 5.40404 6.75214 5.55116 6.75003H18.874C19.0211 6.75214 19.1671 6.7246 19.3037 6.66901C19.4402 6.61342 19.5644 6.53089 19.6692 6.42621C19.774 6.32154 19.8572 6.19681 19.914 6.05927C19.9708 5.92173 20 5.77413 20 5.62504C20 5.47595 19.9708 5.32835 19.914 5.19081C19.8572 5.05328 19.774 4.92855 19.6692 4.82387C19.5644 4.7192 19.4402 4.63667 19.3037 4.58108C19.1671 4.52549 19.0211 4.49795 18.874 4.50006H5.55116ZM1.11023 11.25C0.815781 11.25 0.533389 11.3685 0.32518 11.5795C0.116971 11.7904 0 12.0766 0 12.375C0 12.6733 0.116971 12.9595 0.32518 13.1704C0.533389 13.3814 0.815781 13.4999 1.11023 13.4999C1.40468 13.4999 1.68708 13.3814 1.89529 13.1704C2.10349 12.9595 2.22047 12.6733 2.22047 12.375C2.22047 12.0766 2.10349 11.7904 1.89529 11.5795C1.68708 11.3685 1.40468 11.25 1.11023 11.25ZM5.55116 11.25C5.40404 11.2479 5.25798 11.2754 5.12146 11.331C4.98493 11.3866 4.86067 11.4691 4.7559 11.5738C4.65113 11.6785 4.56793 11.8032 4.51115 11.9407C4.45436 12.0783 4.42512 12.2259 4.42512 12.375C4.42512 12.524 4.45436 12.6716 4.51115 12.8092C4.56793 12.9467 4.65113 13.0715 4.7559 13.1761C4.86067 13.2808 4.98493 13.3633 5.12146 13.4189C5.25798 13.4745 5.40404 13.5021 5.55116 13.4999H18.874C19.0211 13.5021 19.1671 13.4745 19.3037 13.4189C19.4402 13.3633 19.5644 13.2808 19.6692 13.1761C19.774 13.0715 19.8572 12.9467 19.914 12.8092C19.9708 12.6716 20 12.524 20 12.375C20 12.2259 19.9708 12.0783 19.914 11.9407C19.8572 11.8032 19.774 11.6785 19.6692 11.5738C19.5644 11.4691 19.4402 11.3866 19.3037 11.331C19.1671 11.2754 19.0211 11.2479 18.874 11.25H5.55116ZM1.11023 15.7499C0.815781 15.7499 0.533389 15.8684 0.32518 16.0794C0.116971 16.2904 0 16.5765 0 16.8749C0 17.1733 0.116971 17.4594 0.32518 17.6704C0.533389 17.8814 0.815781 17.9999 1.11023 17.9999C1.40468 17.9999 1.68708 17.8814 1.89529 17.6704C2.10349 17.4594 2.22047 17.1733 2.22047 16.8749C2.22047 16.5765 2.10349 16.2904 1.89529 16.0794C1.68708 15.8684 1.40468 15.7499 1.11023 15.7499ZM5.55116 15.7499C5.40404 15.7478 5.25798 15.7753 5.12146 15.8309C4.98493 15.8865 4.86067 15.9691 4.7559 16.0737C4.65113 16.1784 4.56793 16.3031 4.51115 16.4407C4.45436 16.5782 4.42512 16.7258 4.42512 16.8749C4.42512 17.024 4.45436 17.1716 4.51115 17.3091C4.56793 17.4467 4.65113 17.5714 4.7559 17.6761C4.86067 17.7807 4.98493 17.8633 5.12146 17.9189C5.25798 17.9745 5.40404 18.002 5.55116 17.9999H18.874C19.0211 18.002 19.1671 17.9745 19.3037 17.9189C19.4402 17.8633 19.5644 17.7807 19.6692 17.6761C19.774 17.5714 19.8572 17.4467 19.914 17.3091C19.9708 17.1716 20 17.024 20 16.8749C20 16.7258 19.9708 16.5782 19.914 16.4407C19.8572 16.3031 19.774 16.1784 19.6692 16.0737C19.5644 15.9691 19.4402 15.8865 19.3037 15.8309C19.1671 15.7753 19.0211 15.7478 18.874 15.7499H5.55116Z" />
</svg>
