<svg width="14" height="14" viewBox="0 0 14 14" fill="none" xmlns="http://www.w3.org/2000/svg">
<path d="M3.8125 0.25C1.84487 0.25 0.25 1.84487 0.25 3.8125V10.3223C0.25 10.8236 0.500594 11.2921 0.917969 11.5703L1.375 11.875V3.8125C1.375 2.46625 2.46625 1.375 3.8125 1.375H11.875L11.5703 0.917969C11.2924 0.500594 10.824 0.25 10.3223 0.25H3.8125ZM4.1875 2.125C3.05508 2.125 2.125 3.05508 2.125 4.1875V11.6875C2.125 12.8199 3.05508 13.75 4.1875 13.75H11.6875C12.8199 13.75 13.75 12.8199 13.75 11.6875V4.1875C13.75 3.05508 12.8199 2.125 11.6875 2.125H4.1875ZM4.1875 3.25H11.6875C12.2118 3.25 12.625 3.66317 12.625 4.1875V11.6875C12.625 12.2118 12.2118 12.625 11.6875 12.625H4.1875C3.66317 12.625 3.25 12.2118 3.25 11.6875V4.1875C3.25 3.66317 3.66317 3.25 4.1875 3.25Z" fill="#253FEB"/>
</svg>
