<svg width="10" height="10" viewBox="0 0 10 10" fill="none" xmlns="http://www.w3.org/2000/svg">
<path d="M8.85599 0.160268C9.01263 0.15792 9.16381 0.217846 9.27631 0.326882C9.33313 0.381953 9.37831 0.447871 9.40919 0.520728C9.44006 0.593585 9.456 0.671899 9.45605 0.751029C9.4561 0.830157 9.44027 0.908492 9.40948 0.981389C9.3788 1.05406 9.33388 1.11986 9.27737 1.1749M8.85599 0.160268L5.57334 4.73751L5.64405 4.80822M8.85599 0.160268C8.69958 0.162611 8.55049 0.226843 8.44135 0.338877M8.85599 0.160268L8.51256 0.409089M9.27737 1.1749C9.2772 1.17507 9.27702 1.17524 9.27685 1.17541L9.20716 1.10369L9.27787 1.1744L9.27737 1.1749ZM9.27737 1.1749L5.64405 4.80822M5.64405 4.80822L5.57334 4.87893L9.20716 8.51274M5.64405 4.80822L9.27739 8.44156M9.27739 8.44156C9.27722 8.44138 9.27704 8.44121 9.27686 8.44104L9.20716 8.51274M9.27739 8.44156L9.27787 8.44203L9.20716 8.51274M9.27739 8.44156C9.33332 8.49606 9.37789 8.5611 9.40854 8.63293C9.43929 8.70499 9.45541 8.78243 9.45596 8.86077C9.45651 8.93911 9.44149 9.01678 9.41177 9.08927C9.38205 9.16175 9.33821 9.2276 9.28282 9.283C9.22742 9.3384 9.16157 9.38223 9.08908 9.41195C9.0166 9.44168 8.93893 9.4567 8.86059 9.45614C8.78225 9.45559 8.7048 9.43947 8.63275 9.40873C8.56092 9.37808 8.49588 9.3335 8.44137 9.27758M9.20716 8.51274C9.25383 8.55811 9.29102 8.61231 9.31657 8.67218C9.34211 8.73205 9.3555 8.79639 9.35596 8.86148C9.35642 8.92657 9.34394 8.9911 9.31925 9.05132C9.29455 9.11155 9.25813 9.16626 9.21211 9.21229C9.16608 9.25831 9.11136 9.29473 9.05114 9.31943C8.99092 9.34413 8.92639 9.35661 8.8613 9.35615C8.79621 9.35569 8.73186 9.3423 8.67199 9.31675C8.61212 9.2912 8.55793 9.25402 8.51256 9.20734M8.51256 9.20734L8.44086 9.27705C8.44103 9.27722 8.4412 9.2774 8.44137 9.27758M8.51256 9.20734L4.87874 5.57353M8.51256 9.20734L4.87874 5.57353M8.51256 9.20734L8.44185 9.27805L8.44137 9.27758M8.51256 9.20734L4.80803 5.64424M8.44137 9.27758L4.80803 5.64424M4.87874 5.57353L4.80803 5.64424M4.87874 5.57353L4.80803 5.64424M1.10351 9.20734L4.73732 5.57353M1.10351 9.20734C1.05814 9.25402 1.00394 9.29121 0.944072 9.31675C0.884204 9.3423 0.819856 9.35569 0.754768 9.35615C0.689679 9.35661 0.625147 9.34413 0.564924 9.31943C0.504701 9.29474 0.449987 9.25832 0.40396 9.21229C0.357935 9.16626 0.321515 9.11155 0.296818 9.05133C0.272122 8.9911 0.259643 8.92657 0.260103 8.86148C0.260563 8.79639 0.273954 8.73205 0.299499 8.67218C0.325045 8.61231 0.362234 8.55812 0.408907 8.51275M1.10351 9.20734L1.17422 9.27805L1.17469 9.27758M1.10351 9.20734L0.338674 1.17488M4.73732 5.57353V4.04291L4.80803 3.9722M4.73732 5.57353L4.80803 5.64424M4.73732 5.57353L4.80803 5.64424M0.408907 8.51275L4.04272 4.87893L3.97201 4.80822M0.408907 8.51275L0.338196 8.44203L0.338672 8.44156M0.408907 8.51275L0.339203 8.44104C0.339026 8.44121 0.338849 8.44139 0.338672 8.44156M3.97201 4.80822L4.04272 4.73751L0.408908 1.10369M3.97201 4.80822L0.338674 1.17488M3.97201 4.80822L0.338672 8.44156M0.408908 1.10369C0.362235 1.05832 0.325046 1.00413 0.299501 0.944257C0.273955 0.884389 0.260564 0.820041 0.260104 0.754951C0.259643 0.689863 0.272124 0.625332 0.29682 0.565108C0.321516 0.504885 0.357935 0.45017 0.403962 0.404144C0.449987 0.358119 0.504702 0.321699 0.564925 0.297003C0.625149 0.272306 0.68968 0.259826 0.754769 0.260286M0.408908 1.10369L0.338197 1.1744L0.338674 1.17488M0.408908 1.10369L0.339205 1.17539C0.339028 1.17522 0.338851 1.17505 0.338674 1.17488M0.754769 0.260286L0.755476 0.160289C0.833816 0.160843 0.911264 0.176961 0.98332 0.207707C1.05515 0.238356 1.12019 0.282931 1.17469 0.338856M0.754769 0.260286L0.755476 0.160289C0.677136 0.159735 0.599468 0.174756 0.526984 0.20448C0.4545 0.234204 0.388647 0.278038 0.333251 0.333434C0.277855 0.38883 0.234021 0.454683 0.204297 0.527167C0.174573 0.599651 0.159552 0.677319 0.160106 0.755659C0.16066 0.833998 0.176778 0.911447 0.207524 0.983503C0.238173 1.05533 0.282748 1.12037 0.338674 1.17488M0.754769 0.260286L0.338674 1.17488M1.17469 0.338856C1.17487 0.339033 1.17504 0.33921 1.17521 0.339387L1.10351 0.409091L1.17422 0.33838L1.17469 0.338856ZM1.17469 0.338856L4.80803 3.9722M4.80803 3.9722L4.87874 4.04291L8.51256 0.409089M4.80803 3.9722L8.44135 0.338877M8.44135 0.338877C8.44118 0.339051 8.44101 0.339226 8.44084 0.3394L8.51256 0.409089M8.44135 0.338877L8.44185 0.338379L8.51256 0.409089M0.338672 8.44156C0.282747 8.49606 0.238172 8.5611 0.207522 8.63293C0.176777 8.70499 0.160659 8.78244 0.160105 8.86078C0.159551 8.93911 0.174571 9.01678 0.204295 9.08927C0.23402 9.16175 0.277854 9.22761 0.33325 9.283C0.388645 9.3384 0.454498 9.38223 0.526983 9.41196C0.599468 9.44168 0.677136 9.4567 0.755476 9.45615C0.833813 9.45559 0.911262 9.43948 0.983318 9.40873C1.05515 9.37808 1.12019 9.3335 1.17469 9.27758M1.17469 9.27758L4.80803 5.64424M1.17469 9.27758L4.80803 5.64424" />
</svg>
