<svg width="133" height="110" viewBox="0 0 133 110" fill="none" xmlns="http://www.w3.org/2000/svg">
<g opacity="0.3">
<path d="M35.3194 49.7493C33.2418 49.7493 14.938 49.7493 13.5045 49.7493H5.19402C2.32692 49.7493 0 52.0762 0 54.9433C0 57.8104 2.32692 60.1374 5.19402 60.1374H11.4269C12.5488 60.1374 13.5252 59.8465 14.0862 60.1374H16.6209C18.9062 60.1374 20.7761 62.0072 20.7761 64.2926C20.7761 65.4353 20.319 66.4741 19.5503 67.222C18.8024 67.9907 17.7636 68.4478 16.6209 68.4478H10.388C8.0819 68.4478 6.23283 70.3176 6.23283 72.603C6.23283 74.8884 8.0819 76.7582 10.388 76.7582H35.3194V49.7493Z" fill="#D4D7DF"/>
<path d="M126.734 85.0687H18.8484C16.9557 85.0687 15.1876 86.2674 14.6952 88.0937C13.9515 90.8569 16.0457 93.3791 18.6988 93.3791H36.3585C38.0787 93.3791 39.4749 94.7753 39.4749 96.4955C39.4749 98.2158 38.0787 99.6119 36.3585 99.6119H29.8846C27.9919 99.6119 26.2239 100.811 25.7315 102.637C24.9898 105.4 27.084 107.922 29.7351 107.922H118.274C120.167 107.922 121.935 106.724 122.428 104.897C123.171 102.134 121.077 99.6119 118.424 99.6119H117.385C115.665 99.6119 114.269 98.2158 114.269 96.4955C114.269 94.7753 115.665 93.3791 117.385 93.3791H126.585C128.478 93.3791 130.246 92.1803 130.738 90.3541C131.482 87.5909 129.388 85.0687 126.734 85.0687Z" fill="#D4D7DF"/>
<path d="M131.887 49.7493C131.573 48.8643 131.197 48 130.752 47.171L130.738 47.1461C130.295 46.3192 129.795 45.5214 129.225 44.7631L122.38 35.6361L122.132 35.3058L109.906 19.0007C109.609 18.606 109.27 18.2507 108.898 17.9432L108.441 17.6461C108.217 17.4903 107.998 17.322 107.757 17.1911C107.722 17.1745 107.689 17.1558 107.654 17.1392C107.411 17.027 107.151 16.9563 106.895 16.8691C106.262 16.6572 105.605 16.5076 104.919 16.5076H91.415C89.1192 16.5076 87.2598 18.367 87.2598 20.6628V78.8359C87.2598 78.8359 125.76 78.8359 124.513 78.8359H124.657C129.246 78.8359 132.967 75.1149 132.967 70.5254V55.9822C132.967 55.9655 132.967 55.9489 132.967 55.9323C132.967 55.9302 132.967 55.9261 132.967 55.924C132.961 53.8069 132.583 51.7231 131.887 49.7493Z" fill="#D4D7DF"/>
<path d="M108.036 60.1375C99.8976 60.1375 92.9937 65.346 90.4237 72.6031H69.5521C66.982 65.346 60.0781 60.1375 51.9402 60.1375C42.4039 60.1375 34.5339 67.2761 33.385 76.5028C33.2313 77.741 34.214 78.8359 35.4626 78.8359H38.4357H43.6297H60.2506H99.7252H116.346H120.501H124.513C125.76 78.8359 126.744 77.739 126.591 76.5028C125.442 67.2761 117.572 60.1375 108.036 60.1375Z" fill="#D4D7DF"/>
<path d="M108.035 66.3702C101.15 66.3702 95.5698 71.9506 95.5698 78.8358C95.5698 85.721 101.15 91.3015 108.035 91.3015C114.921 91.3015 120.501 85.721 120.501 78.8358C120.501 71.9506 114.921 66.3702 108.035 66.3702Z" fill="#9096AC"/>
<path d="M106.579 21.4938C106.188 20.9703 105.571 20.6628 104.919 20.6628H95.5698V43.5165C95.5698 46.9591 98.3601 49.7493 101.803 49.7493H127.391C126.977 48.8726 126.485 48.0332 125.901 47.2562L106.579 21.4938Z" fill="#F6F6F8"/>
<path d="M37.3966 31.0509H14.5429C12.2492 31.0509 10.3877 29.1894 10.3877 26.8957C10.3877 24.602 12.2492 22.7405 14.5429 22.7405H37.3966C39.6903 22.7405 41.5518 24.602 41.5518 26.8957C41.5518 29.1894 39.6903 31.0509 37.3966 31.0509Z" fill="#A3A8BA"/>
<path d="M43.63 16.5075H20.7763C18.4826 16.5075 16.6211 14.6459 16.6211 12.3522C16.6211 10.0586 18.4826 8.19702 20.7763 8.19702H43.63C45.9237 8.19702 47.7852 10.0586 47.7852 12.3522C47.7852 14.6459 45.9237 16.5075 43.63 16.5075Z" fill="#A3A8BA"/>
<path d="M29.0866 45.5941H6.23286C3.93918 45.5941 2.07764 43.7326 2.07764 41.4389C2.07764 39.1452 3.93918 37.2837 6.23286 37.2837H29.0866C31.3802 37.2837 33.2418 39.1452 33.2418 41.4389C33.2418 43.7326 31.3802 45.5941 29.0866 45.5941Z" fill="#A3A8BA"/>
<path d="M37.3973 78.8358H87.2599V20.6627C87.2599 13.8066 81.6504 8.19702 74.7943 8.19702H37.3973C30.5412 8.19702 24.9316 13.8066 24.9316 20.6627V66.3701C24.9316 73.2262 30.5412 78.8358 37.3973 78.8358Z" fill="#A3A8BA"/>
<path d="M60.251 8.19702H37.3973C30.5412 8.19702 24.9316 13.8066 24.9316 20.6627V45.594H37.2477C39.1404 45.594 40.9085 44.3952 41.4009 42.569C42.1446 39.8058 40.0504 37.2836 37.3973 37.2836H34.2809C32.5606 37.2836 31.1645 35.8874 31.1645 34.1671C31.1645 32.4469 32.5606 31.0507 34.2809 31.0507H45.5581C45.8511 31.0507 46.1378 31.0133 46.4204 30.9572C46.6904 30.9053 46.9522 30.8243 47.2057 30.7245C48.1053 30.3714 48.8699 29.7356 49.3394 28.8983C49.4931 28.6241 49.6261 28.3374 49.7113 28.0257C50.4551 25.2625 48.3608 22.7403 45.7077 22.7403H42.5913C40.8711 22.7403 39.4749 21.3441 39.4749 19.6239C39.4749 17.9036 40.8711 16.5075 42.5913 16.5075H60.1014C61.9941 16.5075 63.7622 15.3087 64.2546 13.4825C64.9983 10.7192 62.9041 8.19702 60.251 8.19702Z" fill="#A3A8BA"/>
<path d="M66.3338 43.5166H87.2595C87.2595 51.827 87.2595 72.6031 87.2595 72.6031H77.9102C79.6305 72.6031 81.0266 71.207 81.0266 69.4867C81.0266 67.7665 79.6305 66.3703 77.9102 66.3703H72.7162C72.4233 66.3703 72.1366 66.3329 71.854 66.2768C71.5839 66.2249 71.3221 66.1438 71.0687 66.0441C70.1691 65.6909 69.4045 65.0552 68.935 64.2179C68.7812 63.9437 68.6482 63.6569 68.5631 63.3453C67.8193 60.5821 69.9156 58.0599 72.5666 58.0599H73.755C75.4753 58.0599 76.8714 56.6637 76.8714 54.9435C76.8714 53.2232 75.4753 51.827 73.755 51.827H66.4834C64.5907 51.827 62.8226 50.6283 62.3302 48.802C61.5885 46.0388 63.6828 43.5166 66.3338 43.5166Z" fill="#A3A8BA"/>
<path d="M49.7337 60.1375C40.1974 60.1375 32.3275 67.2761 31.1785 76.5028C31.1495 76.7438 31.1952 76.9682 31.243 77.1905C33.065 78.2314 35.1613 78.8359 37.3968 78.8359H41.4232H58.0441H81.0266V72.6031H67.3456C64.7756 65.346 57.8717 60.1375 49.7337 60.1375Z" fill="#A3A8BA"/>
<path d="M6.23286 16.5075C3.9371 16.5075 2.07764 14.648 2.07764 12.3522C2.07764 10.0565 3.9371 8.19702 6.23286 8.19702C8.52861 8.19702 10.3881 10.0565 10.3881 12.3522C10.3881 14.648 8.52861 16.5075 6.23286 16.5075Z" fill="#A3A8BA"/>
<path d="M49.7337 66.3702C42.8485 66.3702 37.2681 71.9506 37.2681 78.8358C37.2681 85.721 42.8485 91.3015 49.7337 91.3015C56.6189 91.3015 62.1994 85.721 62.1994 78.8358C62.1994 71.9506 56.6189 66.3702 49.7337 66.3702Z" fill="#9096AC"/>
</g>
</svg>
