<svg width="14" height="8" viewBox="0 0 14 8" fill="none" xmlns="http://www.w3.org/2000/svg">
<path fill-rule="evenodd" clip-rule="evenodd" d="M1.50913 0.366978C1.45552 0.341478 1.39791 0.328338 1.33971 0.328335C1.29643 0.328347 1.25364 0.335622 1.21269 0.349696C1.25361 0.33564 1.29638 0.328379 1.33964 0.328367C1.39784 0.328369 1.45545 0.34151 1.50906 0.367009C1.56266 0.392509 1.61117 0.42985 1.65172 0.476821L6.99901 6.49209L6.99906 6.49203L1.65179 0.47679C1.61125 0.429819 1.56274 0.392478 1.50913 0.366978ZM12.5069 0.357688C12.5522 0.338489 12.6005 0.327766 12.6499 0.326455C12.7375 0.324126 12.8238 0.351644 12.8973 0.405403C12.9708 0.459162 13.0281 0.536653 13.0618 0.627715C13.0955 0.718778 13.1039 0.819163 13.086 0.915711C13.0681 1.01226 13.0247 1.10046 12.9614 1.16876L7.30656 7.52999C7.26259 7.57943 7.21019 7.61719 7.15316 7.6415C7.21022 7.61719 7.26265 7.57942 7.30663 7.52996L12.9615 1.16873C13.0247 1.10043 13.0682 1.01223 13.0861 0.915679C13.104 0.819132 13.0956 0.718747 13.0619 0.627684C13.0282 0.536621 12.9709 0.459131 12.8973 0.405372C12.8238 0.351613 12.7376 0.324094 12.65 0.326424C12.6006 0.327735 12.5523 0.338469 12.5069 0.357688ZM0.615273 0.98255C0.644256 1.13759 0.713832 1.28156 0.817336 1.39542L6.47089 7.75521C6.60835 7.90978 6.79801 7.99975 6.99908 7.99975C7.20016 7.99975 7.38986 7.90973 7.52731 7.75516L13.1802 1.39608C13.2853 1.28154 13.3559 1.13609 13.385 0.979365C13.4143 0.821488 13.4006 0.657204 13.3452 0.507394C13.2898 0.357473 13.1944 0.227243 13.0692 0.135679C12.9437 0.0439563 12.7949 -0.00406037 12.6424 -6.40125e-06C12.4434 0.00528089 12.2575 0.0984476 12.1238 0.253684L7.14856 5.85046C7.069 5.93995 6.92916 5.93995 6.84961 5.85045L1.87382 0.253094C1.80599 0.175047 1.72421 0.112023 1.6328 0.068539C1.54057 0.0246667 1.44077 0.0018093 1.33963 0.00180475C1.18899 0.00184609 1.04313 0.0525282 0.920763 0.145264C0.7986 0.237845 0.705954 0.36758 0.652402 0.516099C0.598888 0.664514 0.586139 0.826702 0.615273 0.98255Z" fill="#2C2E30"/>
</svg>
