<svg width="16" height="16" viewBox="0 0 16 16" fill="none" xmlns="http://www.w3.org/2000/svg">
<path d="M13.4965 5.95097L14.4115 5.03597C15.3618 4.08572 15.3618 2.53922 14.4115 1.5886C13.9514 1.12885 13.3398 0.876099 12.6877 0.876099C12.0355 0.876099 11.4235 1.12922 10.9638 1.58897L10.0492 2.5036L13.4965 5.95097ZM9.2538 3.29897L2.47792 10.0748C2.33355 10.2192 2.22367 10.3973 2.15992 10.5905L0.903674 14.3858C0.836549 14.5876 0.889424 14.81 1.0398 14.9604C1.14742 15.0676 1.29067 15.125 1.43767 15.125C1.49692 15.125 1.55655 15.1156 1.61467 15.0965L5.40892 13.8398C5.6028 13.7761 5.7813 13.6662 5.92567 13.5215L12.7012 6.74597L9.2538 3.29897Z" />
</svg>
