<svg width="110" height="110" viewBox="0 0 110 110" fill="none" xmlns="http://www.w3.org/2000/svg">
<g opacity="0.3" clip-path="url(#clip0_1029_11015)">
<path d="M6.05349e-05 52.4219C6.05349e-05 50.0483 1.92334 48.125 4.29694 48.125C6.67053 48.125 8.59381 50.0483 8.59381 52.4219C8.59381 54.7955 6.67053 56.7188 4.29694 56.7188C1.92334 56.7188 6.05349e-05 54.7955 6.05349e-05 52.4219ZM99.6876 70.4688H103.644C106.901 70.4688 109.821 68.0298 109.991 64.7762C110.174 61.3078 107.413 58.4375 103.984 58.4375H99.8405C98.1819 58.4375 96.6419 57.3289 96.3205 55.7013C95.8943 53.5459 97.4841 51.6519 99.5415 51.5659C102.151 51.4559 104.5 49.6306 104.808 47.037C105.177 43.9072 102.742 41.25 99.6876 41.25H92.2935C89.0365 41.25 86.1163 38.8111 85.9462 35.5575C85.764 32.0891 88.5243 29.2188 91.9532 29.2188H96.2501C99.5071 29.2188 102.427 26.7798 102.597 23.5262C102.78 20.0578 100.021 17.1875 96.5904 17.1875H36.0938V24.0625H18.3872C15.1302 24.0625 12.2101 26.5014 12.0399 29.755C11.8577 33.2234 14.618 36.0938 18.0469 36.0938H30.9376V48.125H15.4688C13.0952 48.125 11.1719 50.0483 11.1719 52.4219C11.1719 54.7955 13.0952 56.7188 15.4688 56.7188H16.3282C18.7018 56.7188 20.6251 58.642 20.6251 61.0156C20.6251 63.3892 18.7018 65.3125 16.3282 65.3125H5.4485C2.65725 65.3125 0.153029 67.4025 0.00693553 70.192C-0.147752 73.1655 2.21725 75.625 5.15631 75.625H13.5662C15.278 75.625 16.8662 76.7955 17.1412 78.485C17.4901 80.6386 15.8383 82.5 13.7501 82.5H12.3235C9.53225 82.5 7.02803 84.59 6.88194 87.3795C6.72725 90.353 9.09225 92.8125 12.0313 92.8125H77.3438V91.0938H99.4332C102.152 91.0938 104.595 89.0966 104.825 86.3878C105.084 83.3302 102.673 80.7675 99.6652 80.7812C97.8983 80.7881 96.171 80.0353 95.3133 78.4919C93.0979 74.5078 95.9201 70.4688 99.6876 70.4688ZM99.6876 70.4688H103.644C106.901 70.4688 109.821 68.0298 109.991 64.7762C110.174 61.3078 107.413 58.4375 103.984 58.4375H99.8405C98.1819 58.4375 96.6419 57.3289 96.3205 55.7013C95.8943 53.5459 97.4841 51.6519 99.5415 51.5659C102.151 51.4559 104.5 49.6306 104.808 47.037C105.177 43.9072 102.742 41.25 99.6876 41.25H92.2935C89.0365 41.25 86.1163 38.8111 85.9462 35.5575C85.764 32.0891 88.5243 29.2188 91.9532 29.2188H96.2501C99.5071 29.2188 102.427 26.7798 102.597 23.5262C102.78 20.0578 100.021 17.1875 96.5904 17.1875H36.0938V24.0625H18.3872C15.1302 24.0625 12.2101 26.5014 12.0399 29.755C11.8577 33.2234 14.618 36.0938 18.0469 36.0938H30.9376V48.125H15.4688C13.0952 48.125 11.1719 50.0483 11.1719 52.4219C11.1719 54.7955 13.0952 56.7188 15.4688 56.7188H16.3282C18.7018 56.7188 20.6251 58.642 20.6251 61.0156C20.6251 63.3892 18.7018 65.3125 16.3282 65.3125H5.4485C2.65725 65.3125 0.153029 67.4025 0.00693553 70.192C-0.147752 73.1655 2.21725 75.625 5.15631 75.625H13.5662C15.278 75.625 16.8662 76.7955 17.1412 78.485C17.4901 80.6386 15.8383 82.5 13.7501 82.5H12.3235C9.53225 82.5 7.02803 84.59 6.88194 87.3795C6.72725 90.353 9.09225 92.8125 12.0313 92.8125H77.3438V91.0938H99.4332C102.152 91.0938 104.595 89.0966 104.825 86.3878C105.084 83.3302 102.673 80.7675 99.6652 80.7812C97.8983 80.7881 96.171 80.0353 95.3133 78.4919C93.0979 74.5078 95.9201 70.4688 99.6876 70.4688Z" fill="#D4D7DF"/>
<path d="M75.625 99.6875H27.5C24.652 99.6875 22.3438 97.3792 22.3438 94.5312V25.7812C22.3438 22.9333 24.652 20.625 27.5 20.625H52.8636C54.2317 20.625 55.5431 21.1681 56.5091 22.1358L79.2705 44.8972C80.2381 45.8631 80.7812 47.1745 80.7812 48.5427V94.5312C80.7812 97.3792 78.473 99.6875 75.625 99.6875Z" fill="#9096AC"/>
<path d="M85.9375 89.375H37.8125C34.9645 89.375 32.6562 87.0667 32.6562 84.2188V15.4688C32.6562 12.6208 34.9645 10.3125 37.8125 10.3125H66.6136C67.9817 10.3125 69.2931 10.8556 70.2591 11.8233L89.583 31.1472C90.5506 32.1131 91.0938 33.4245 91.0938 34.7927V84.2188C91.0938 87.0667 88.7855 89.375 85.9375 89.375Z" fill="#A3A8BA"/>
<path d="M89.583 31.1454L70.2608 11.8232C69.8208 11.3832 69.3052 11.0464 68.75 10.792V27.5C68.75 30.3479 71.0583 32.6562 73.9062 32.6562H90.6142C90.3616 32.1011 90.023 31.5854 89.583 31.1454Z" fill="#9096AC"/>
<path fill-rule="evenodd" clip-rule="evenodd" d="M57.9773 42.5085C58.7831 41.7027 59.876 41.25 61.0156 41.25C62.1552 41.25 63.2482 41.7027 64.054 42.5085C64.8598 43.3143 65.3125 44.4073 65.3125 45.5469C65.3125 45.7972 65.2906 46.0454 65.248 46.2887L63.8172 62.7447C63.69 64.197 62.4748 65.3125 61.0156 65.3125C59.5564 65.3125 58.3412 64.197 58.2141 62.7447L56.7832 46.2887C56.7406 46.0454 56.7188 45.7972 56.7188 45.5469C56.7188 44.4073 57.1715 43.3143 57.9773 42.5085ZM61.0156 68.75C60.3319 68.75 59.6761 69.0216 59.1926 69.5051C58.7091 69.9886 58.4375 70.6444 58.4375 71.3281C58.4375 72.0119 58.7091 72.6676 59.1926 73.1511C59.6761 73.6346 60.3319 73.9062 61.0156 73.9062C61.6994 73.9062 62.3551 73.6346 62.8386 73.1511C63.3221 72.6676 63.5938 72.0119 63.5938 71.3281C63.5938 70.6444 63.3221 69.9886 62.8386 69.5051C62.3551 69.0216 61.6994 68.75 61.0156 68.75Z" fill="#F6F6F8"/>
</g>
<defs>
<clipPath id="clip0_1029_11015">
<rect width="110" height="110" fill="white"/>
</clipPath>
</defs>
</svg>
