<svg width="110" height="110" viewBox="0 0 110 110" fill="none" xmlns="http://www.w3.org/2000/svg">
<g opacity="0.3">
<path d="M10.3125 6.875C10.3125 3.07828 13.3908 0 17.1875 0C20.9842 0 24.0625 3.07828 24.0625 6.875C24.0625 10.6717 20.9842 13.75 17.1875 13.75C13.3908 13.75 10.3125 10.6717 10.3125 6.875ZM12.8906 110C16.213 110 18.9062 107.307 18.9062 103.984C18.9062 100.662 16.213 97.9688 12.8906 97.9688C9.56828 97.9688 6.875 100.662 6.875 103.984C6.875 107.307 9.56828 110 12.8906 110ZM98.8281 42.9688H81.6406C78.3183 42.9688 75.625 45.662 75.625 48.9844C75.625 52.3067 78.3183 55 81.6406 55H84.2188C88.0155 55 91.0938 58.0783 91.0938 61.875C91.0938 65.6717 88.0155 68.75 84.2188 68.75H83.3594C80.9858 68.75 79.0625 70.6733 79.0625 73.0469C79.0625 75.4205 80.9858 77.3438 83.3594 77.3438H92.8125C96.6092 77.3438 99.6875 80.422 99.6875 84.2188C99.6875 88.0155 96.6092 91.0938 92.8125 91.0938H79.0625C77.1633 91.0938 75.625 92.632 75.625 94.5312C75.625 96.4305 77.1633 97.9688 79.0625 97.9688H79.9219C83.2442 97.9688 85.9375 100.662 85.9375 103.984C85.9375 107.307 83.2442 110 79.9219 110H30.0781C26.7558 110 24.0625 107.307 24.0625 103.984C24.0625 100.662 26.7558 97.9688 30.0781 97.9688C32.4517 97.9688 34.375 96.0455 34.375 93.6719C34.375 91.2983 32.4517 89.375 30.0781 89.375H15.4688C11.672 89.375 8.59375 86.2967 8.59375 82.5C8.59375 78.7033 11.672 75.625 15.4688 75.625H23.2031C26.5255 75.625 29.2188 72.9317 29.2188 69.6094C29.2188 66.287 26.5255 63.5938 23.2031 63.5938H8.59375C3.84828 63.5938 0 59.7455 0 55C0 50.2545 3.84828 46.4062 8.59375 46.4062H13.75C16.598 46.4062 18.9062 44.098 18.9062 41.25C18.9062 38.402 16.598 36.0938 13.75 36.0938H9.45312C6.13078 36.0938 3.4375 33.4005 3.4375 30.0781C3.4375 26.7558 6.13078 24.0625 9.45312 24.0625H41.25C44.098 24.0625 46.4062 21.7542 46.4062 18.9062C46.4062 16.0583 44.098 13.75 41.25 13.75H37.8125C34.0158 13.75 30.9375 10.6717 30.9375 6.875C30.9375 3.07828 34.0158 0 37.8125 0H79.0625C82.8592 0 85.9375 3.07828 85.9375 6.875C85.9375 10.6717 82.8592 13.75 79.0625 13.75H75.625C71.8283 13.75 68.75 16.8283 68.75 20.625C68.75 24.4217 71.8283 27.5 75.625 27.5H98.8281C103.099 27.5 106.562 30.9633 106.562 35.2344C106.562 39.5055 103.099 42.9688 98.8281 42.9688ZM108.281 61.875C108.281 58.0783 105.203 55 101.406 55C97.6095 55 94.5312 58.0783 94.5312 61.875C94.5312 65.6717 97.6095 68.75 101.406 68.75C105.203 68.75 108.281 65.6717 108.281 61.875Z" fill="#D4D7DF"/>
<path d="M95.9853 85.9341L95.9956 85.9238L74.9736 64.9017C78.6362 59.345 80.7812 52.7003 80.7812 45.5469C80.7812 26.0872 65.0066 10.3125 45.5469 10.3125C26.0872 10.3125 10.3125 26.0872 10.3125 45.5469C10.3125 65.0066 26.0872 80.7812 45.5469 80.7812C52.702 80.7812 59.3502 78.6345 64.9086 74.9702L85.9324 95.9887C88.5827 98.6391 92.8761 98.6391 95.5247 95.9887L95.9853 95.5281C98.6305 92.8778 98.6305 88.5844 95.9853 85.9341Z" fill="#9096AC"/>
<path d="M45.5469 20.625C38.9372 20.625 32.5982 23.2507 27.9244 27.9244C23.2507 32.5982 20.625 38.9372 20.625 45.5469C20.625 52.1566 23.2507 58.4955 27.9244 63.1693C32.5982 67.8431 38.9372 70.4688 45.5469 70.4688C52.1566 70.4688 58.4955 67.8431 63.1693 63.1693C67.8431 58.4955 70.4688 52.1566 70.4688 45.5469C70.4688 38.9372 67.8431 32.5982 63.1693 27.9244C58.4955 23.2507 52.1566 20.625 45.5469 20.625Z" fill="#A3A8BA"/>
<path d="M33.4091 57.6846C32.4071 56.6826 32.4071 55.0412 33.4091 54.0392L54.041 33.4073C55.043 32.4053 56.6844 32.4053 57.6865 33.4073C58.6885 34.4093 58.6885 36.0507 57.6865 37.0528L37.0546 57.6846C36.0508 58.6884 34.4111 58.6884 33.4091 57.6846Z" fill="#F6F6F8"/>
<path d="M33.4091 33.4091C34.4111 32.4071 36.0525 32.4071 37.0545 33.4091L57.6864 54.041C58.6884 55.043 58.6884 56.6844 57.6864 57.6865C56.6844 58.6885 55.043 58.6885 54.0409 57.6865L33.4091 37.0546C32.4053 36.0508 32.4053 34.4111 33.4091 33.4091Z" fill="#F6F6F8"/>
</g>
</svg>
