<svg width="110" height="110" viewBox="0 0 110 110" fill="none" xmlns="http://www.w3.org/2000/svg">
<g opacity="0.3">
<path d="M103.739 80.7812H97.9688C96.0696 80.7812 94.5313 79.243 94.5313 77.3438C94.5313 75.4445 96.0696 73.9062 97.9688 73.9062H98.6769C100.635 73.9062 102.462 72.667 102.969 70.7764C103.735 67.9181 101.571 65.3125 98.8282 65.3125H72.1875V46.4062H96.25C100.263 46.4062 103.503 42.9206 103.089 38.8266C102.728 35.2602 99.5105 32.6562 95.9252 32.6562H79.0625C77.1633 32.6562 75.625 31.118 75.625 29.2188C75.625 27.3195 77.1633 25.7812 79.0625 25.7812H89.9886C92.2367 25.7812 94.2838 24.1639 94.5089 21.9278C94.7667 19.3548 92.7541 17.1875 90.2344 17.1875H76.4844C75.0613 17.1875 73.9063 16.0325 73.9063 14.6094C73.9063 13.1862 75.0613 12.0312 76.4844 12.0312H83.1136C85.3617 12.0312 87.4088 10.4139 87.6339 8.17781C87.8917 5.60484 85.8791 3.4375 83.3594 3.4375H26.8864C24.6383 3.4375 22.5913 5.05484 22.3661 7.29094C22.1083 9.86391 24.121 12.0312 26.6407 12.0312H32.6563C34.5555 12.0312 36.0938 13.5695 36.0938 15.4688C36.0938 17.368 34.5555 18.9062 32.6563 18.9062H10.6374C7.05206 18.9062 3.83456 21.5084 3.47363 25.0766C3.05941 29.1706 6.29925 32.6562 10.3125 32.6562H14.6094C17.9318 32.6562 20.625 35.3495 20.625 38.6719C20.625 41.9942 17.9318 44.6875 14.6094 44.6875H8.91863C5.33331 44.6875 2.11581 47.2897 1.75488 50.8578C1.34066 54.9519 4.5805 58.4375 8.59378 58.4375H37.8125V79.0625H13.0419C11.0843 79.0625 9.25722 80.3017 8.75019 82.1923C7.98363 85.0506 10.1475 87.6562 12.8907 87.6562H15.4688C17.368 87.6562 18.9063 89.1945 18.9063 91.0938C18.9063 92.993 17.368 94.5312 15.4688 94.5312H10.6374C7.05206 94.5312 3.83456 97.1334 3.47363 100.702C3.05941 104.796 6.29925 108.281 10.3125 108.281H94.2064C97.7918 108.281 101.009 105.679 101.37 102.111C101.784 98.0169 98.5446 94.5312 94.5313 94.5312H93.6719C92.2488 94.5312 91.0938 93.3763 91.0938 91.9531C91.0938 90.53 92.2488 89.375 93.6719 89.375H103.984C106.504 89.375 108.517 87.2077 108.259 84.6347C108.035 82.3986 105.987 80.7812 103.739 80.7812Z" fill="#D4D7DF"/>
<path fill-rule="evenodd" clip-rule="evenodd" d="M17 32H92.625V88.7188C92.625 92.5155 89.5467 95.5938 85.75 95.5938H23.875C20.0783 95.5938 17 92.5155 17 88.7188V32Z" fill="#A3A8BA"/>
<path d="M92.8125 37.8125H17.1875C14.3395 37.8125 12.0312 35.5042 12.0312 32.6562V24.0625C12.0312 21.2145 14.3395 18.9062 17.1875 18.9062H92.8125C95.6605 18.9062 97.9688 21.2145 97.9688 24.0625V32.6562C97.9688 35.5042 95.6605 37.8125 92.8125 37.8125Z" fill="#9096AC"/>
<path d="M63.5938 55H46.4062C43.5703 55 41.25 52.6797 41.25 49.8438C41.25 47.0078 43.5703 44.6875 46.4062 44.6875H63.5938C66.4297 44.6875 68.75 47.0078 68.75 49.8438C68.75 52.6797 66.4297 55 63.5938 55Z" fill="#9096AC"/>
</g>
</svg>
