<svg width="20" height="14" viewBox="0 0 20 14" fill="none" xmlns="http://www.w3.org/2000/svg">
<path d="M10.0002 0.333496C4.80816 0.333496 0.333496 4.80483 0.333496 7.00016C0.333496 9.1955 4.80816 13.6668 10.0002 13.6668C15.1922 13.6668 19.6668 9.1955 19.6668 7.00016C19.6668 4.80483 15.1922 0.333496 10.0002 0.333496ZM10.0002 3.3335C12.0252 3.3335 13.6668 4.97516 13.6668 7.00016C13.6668 9.02516 12.0252 10.6668 10.0002 10.6668C7.97516 10.6668 6.3335 9.02516 6.3335 7.00016C6.3335 4.97516 7.97516 3.3335 10.0002 3.3335ZM10.0002 5.66683C9.26383 5.66683 8.66683 6.26383 8.66683 7.00016C8.66683 7.7365 9.26383 8.3335 10.0002 8.3335C10.7365 8.3335 11.3335 7.7365 11.3335 7.00016C11.3335 6.26383 10.7365 5.66683 10.0002 5.66683Z" fill="#D4D7DF"/>
</svg>
