<svg width="20" height="16" viewBox="0 0 20 16" fill="none" xmlns="http://www.w3.org/2000/svg">
<path d="M9.99992 11.6664C10.3633 11.6664 10.7133 11.6131 11.0433 11.5164L13.5266 13.9998C12.4266 14.4131 11.2333 14.6664 9.99992 14.6664C4.80659 14.6664 0.333252 10.1964 0.333252 7.99976C0.333252 6.88309 1.48659 5.17976 3.30659 3.77976L6.48325 6.95642C6.38659 7.28642 6.33325 7.63642 6.33325 7.99976C6.33325 10.0264 7.97325 11.6664 9.99992 11.6664ZM3.86359 0.802758L17.1969 14.1361C17.4899 14.4288 17.4899 14.9038 17.1969 15.1968C17.0503 15.3431 16.8586 15.4164 16.6666 15.4164C16.4746 15.4164 16.2829 15.3431 16.1363 15.1968L2.80292 1.86342C2.50992 1.57076 2.50992 1.09576 2.80292 0.802758C3.09592 0.509758 3.57059 0.509758 3.86359 0.802758ZM9.99992 1.33309C15.1933 1.33309 19.6666 5.80309 19.6666 7.99976C19.6666 9.11642 18.5133 10.8198 16.6933 12.2198L13.5166 9.04309C13.6133 8.71309 13.6666 8.36309 13.6666 7.99976C13.6666 5.97309 12.0266 4.33309 9.99992 4.33309C9.63659 4.33309 9.28658 4.38642 8.95658 4.48309L6.47325 1.99976C7.57325 1.58642 8.76659 1.33309 9.99992 1.33309Z" fill="#D4D7DF"/>
</svg>
