<svg width="110" height="110" viewBox="0 0 110 110" fill="none" xmlns="http://www.w3.org/2000/svg">
<g opacity="0.3" clip-path="url(#clip0_241_4186)">
<path d="M104.552 65.3125H95.3906C92.8709 65.3125 90.8582 63.1452 91.116 60.5722C91.3395 58.3361 93.3882 56.7188 95.6364 56.7188H97.1093C99.629 56.7188 101.642 54.5514 101.384 51.9784C101.16 49.7423 99.1117 48.125 96.8635 48.125H75.9275C74.9718 47.1436 73.6312 46.518 72.1875 46.4217V39.6842C72.2459 39.6258 72.2803 39.5914 72.3404 39.5312H92.4893C96.0746 39.5312 99.2921 36.9291 99.6531 33.3609C100.066 29.2669 96.8257 25.7812 92.8125 25.7812H72.1875C69.3395 25.7812 67.0312 23.473 67.0312 20.625C67.0312 17.777 69.3395 15.4688 72.1875 15.4688H75.6009C75.6009 15.4688 75.6009 15.4688 75.6026 15.4688C78.7737 15.4825 81.2831 12.6345 80.6953 9.35859C80.2501 6.86641 77.904 5.15625 75.3706 5.15625H13.75C10.8109 5.15625 8.44589 7.61578 8.60058 10.5892C8.74667 13.3787 11.2492 15.4688 14.0421 15.4688H15.4687C17.557 15.4688 19.2087 17.3302 18.8598 19.4838C18.5848 21.1733 16.9967 22.3438 15.2848 22.3438H6.87495C3.93589 22.3438 1.57089 24.8033 1.72558 27.7767C1.87167 30.5662 4.37417 32.6562 7.16714 32.6562H14.6093C17.129 32.6562 19.1417 34.8236 18.8839 37.3966C18.6604 39.6327 16.6117 41.25 14.3635 41.25H7.97839C5.73026 41.25 3.68323 42.8673 3.45808 45.1034C3.20198 47.6764 5.21464 49.8438 7.73433 49.8438C7.73433 49.8438 8.20183 49.8077 12.8648 49.8008C16.1992 49.7973 18.9062 52.4992 18.9062 55.8336V55.8439C18.9062 59.1731 16.2112 61.8733 12.882 61.8767C10.1285 61.8802 7.24448 61.887 5.75433 61.9008C2.42683 62.0469 -0.204579 64.8725 0.0119833 68.2825C0.218233 71.5086 3.12464 73.9062 6.35589 73.9062H32.6562V79.6005C31.7367 80.3859 30.506 80.7864 29.241 80.7812C26.07 80.7675 23.5606 83.6155 24.1467 86.8914C24.5953 89.3836 26.9396 91.0938 29.4731 91.0938H46.4062V92.8125H58.4375H72.1875H97.9687C100.908 92.8125 103.273 90.353 103.118 87.3795C102.972 84.59 100.469 82.5 97.6765 82.5H96.25C94.1617 82.5 92.5082 80.6386 92.8589 78.485C93.1339 76.7955 94.722 75.625 96.4339 75.625H104.844C107.783 75.625 110.148 73.1655 109.993 70.192C109.847 67.4025 107.344 65.3125 104.552 65.3125Z" fill="#D4D7DF"/>
<path d="M29.2188 13.75C26.3708 13.75 24.0625 16.0583 24.0625 18.9062V97.9688H77.3438C83.0397 97.9688 87.6562 93.3522 87.6562 87.6562V18.9062C87.6562 16.0583 85.348 13.75 82.5 13.75H29.2188Z" fill="#9096AC"/>
<path d="M77.3438 97.9688H18.9062C13.2103 97.9688 8.59375 93.3522 8.59375 87.6562V79.0625C8.59375 76.2145 10.902 73.9062 13.75 73.9062H61.875C64.723 73.9062 67.0312 76.2145 67.0312 79.0625V87.6562C67.0312 93.3522 71.6478 97.9688 77.3438 97.9688Z" fill="#A3A8BA"/>
<path d="M73.9062 67.0312H51.5625C49.6633 67.0312 48.125 65.493 48.125 63.5938C48.125 61.6945 49.6633 60.1562 51.5625 60.1562H73.9062C75.8055 60.1562 77.3438 61.6945 77.3438 63.5938C77.3438 65.493 75.8055 67.0312 73.9062 67.0312ZM73.9062 55H51.5625C49.6633 55 48.125 53.4617 48.125 51.5625C48.125 49.6633 49.6633 48.125 51.5625 48.125H73.9062C75.8055 48.125 77.3438 49.6633 77.3438 51.5625C77.3438 53.4617 75.8055 55 73.9062 55ZM73.9062 42.9688H51.5625C49.6633 42.9688 48.125 41.4305 48.125 39.5312C48.125 37.632 49.6633 36.0938 51.5625 36.0938H73.9062C75.8055 36.0938 77.3438 37.632 77.3438 39.5312C77.3438 41.4305 75.8055 42.9688 73.9062 42.9688Z" fill="#F6F6F8"/>
<path d="M39.5312 67.0312H37.8125C35.9133 67.0312 34.375 65.493 34.375 63.5938C34.375 61.6945 35.9133 60.1562 37.8125 60.1562H39.5312C41.4305 60.1562 42.9688 61.6945 42.9688 63.5938C42.9688 65.493 41.4305 67.0312 39.5312 67.0312ZM39.5312 55H37.8125C35.9133 55 34.375 53.4617 34.375 51.5625C34.375 49.6633 35.9133 48.125 37.8125 48.125H39.5312C41.4305 48.125 42.9688 49.6633 42.9688 51.5625C42.9688 53.4617 41.4305 55 39.5312 55ZM39.5312 42.9688H37.8125C35.9133 42.9688 34.375 41.4305 34.375 39.5312C34.375 37.632 35.9133 36.0938 37.8125 36.0938H39.5312C41.4305 36.0938 42.9688 37.632 42.9688 39.5312C42.9688 41.4305 41.4305 42.9688 39.5312 42.9688Z" fill="#F6F6F8"/>
</g>
<defs>
<clipPath id="clip0_241_4186">
<rect width="110" height="110" fill="white"/>
</clipPath>
</defs>
</svg>
