<svg width="22" height="18" viewBox="0 0 22 18" fill="none" xmlns="http://www.w3.org/2000/svg">
<path d="M3 0.25C2.271 0.25 1.57069 0.539688 1.05469 1.05469C0.539688 1.57069 0.25 2.271 0.25 3V15C0.25 15.729 0.539688 16.4293 1.05469 16.9453C1.08013 16.9707 1.1104 16.9894 1.13672 17.0137C1.1437 17.021 1.14696 17.03 1.1543 17.0371C1.1736 17.0558 1.19804 17.0638 1.21875 17.0801C1.71536 17.5042 2.34247 17.75 3 17.75H19C19.729 17.75 20.4293 17.4603 20.9453 16.9453C21.4603 16.4293 21.75 15.729 21.75 15V3C21.75 2.271 21.4603 1.57069 20.9453 1.05469C20.4293 0.539688 19.729 0.25 19 0.25H3ZM3 1.75H19C19.332 1.75 19.6498 1.88123 19.8848 2.11523C20.1188 2.35023 20.25 2.668 20.25 3V10.9277C19.3192 9.81083 18.3063 8.59625 17.3438 7.44141C17.0117 7.04241 16.519 6.8125 16 6.8125C15.481 6.8125 14.9882 7.04241 14.6562 7.44141L11.125 11.6797C11.08 11.7337 11.0134 11.7646 10.9434 11.7676C10.8734 11.7716 10.8059 11.7453 10.7559 11.6953L9.24609 10.1875C8.91509 9.8555 8.46605 9.67083 7.99805 9.67383C7.52905 9.67683 7.08286 9.86712 6.75586 10.2031C5.30196 11.6976 2.56088 14.5175 1.80859 15.291C1.78501 15.1947 1.75 15.101 1.75 15V3C1.75 2.668 1.88123 2.35023 2.11523 2.11523C2.35023 1.88123 2.668 1.75 3 1.75ZM7 3.25C6.034 3.25 5.25 4.034 5.25 5C5.25 5.966 6.034 6.75 7 6.75C7.966 6.75 8.75 5.966 8.75 5C8.75 4.034 7.966 3.25 7 3.25ZM7 4.75C7.138 4.75 7.25 4.862 7.25 5C7.25 5.138 7.138 5.25 7 5.25C6.862 5.25 6.75 5.138 6.75 5C6.75 4.862 6.862 4.75 7 4.75ZM16 8.3125C16.074 8.3125 16.1444 8.34534 16.1914 8.40234L20.25 13.2715V15C20.25 15.332 20.1188 15.6498 19.8848 15.8848C19.6498 16.1188 19.332 16.25 19 16.25H3C2.99049 16.25 2.98214 16.2444 2.97266 16.2441L7.83008 11.25C7.87608 11.202 7.94081 11.1748 8.00781 11.1738C8.07481 11.1738 8.1395 11.1991 8.1875 11.2461C8.6415 11.7011 9.23031 12.2909 9.69531 12.7559C10.0433 13.1039 10.5207 13.2896 11.0117 13.2676C11.5027 13.2456 11.9623 13.0167 12.2773 12.6387L15.8086 8.40234C15.8556 8.34534 15.926 8.3125 16 8.3125Z" />
</svg>
