<svg width="30" height="28" viewBox="0 0 30 28" fill="none" xmlns="http://www.w3.org/2000/svg">
<g clip-path="url(#clip0_755_13552)">
<path d="M19.6339 16.1612C19.5656 15.7461 19.45 15.3416 19.2871 14.9685C18.7617 13.8337 18.0262 12.8775 16.9281 12.2365C15.2206 11.2382 13.1505 11.2435 11.4587 12.268C10.6917 12.7304 10.0612 13.3976 9.65664 14.1962C9.52003 14.4694 9.4097 14.7531 9.31513 15.0421C8.86855 16.4607 8.88431 18.3626 9.68816 19.6603C9.95086 20.0806 10.3291 20.4431 10.7915 20.6218C11.2538 20.8004 11.8055 20.7794 12.2206 20.5114C12.7617 20.1647 12.8563 19.5027 12.7565 18.909C12.6304 18.1577 12.5305 17.4169 12.809 16.6761C12.8983 16.4396 13.0244 16.2137 13.203 16.0403C13.3134 15.9353 13.4447 15.8459 13.5813 15.7829C13.8703 15.641 14.2065 15.578 14.527 15.6305C15.0892 15.7199 15.5463 16.1559 15.7932 16.6656C16.0402 17.1752 16.1085 17.7531 16.1347 18.3153C16.2503 20.7847 15.6619 23.3433 15.0314 25.7128C14.9684 25.9598 14.9001 26.2015 14.8318 26.4431C14.7792 26.6323 14.6847 26.8687 14.8002 27.0526C14.8528 27.1314 14.9316 27.184 15.0209 27.2207C15.3887 27.3678 15.6882 27.1419 15.9298 26.895C17.3799 25.4396 18.3046 23.5587 18.9403 21.6253C19.1768 20.9055 19.3817 20.1699 19.5183 19.4239C19.7074 18.3994 19.8125 17.233 19.6286 16.1559L19.6339 16.1612Z" fill="#008375"/>
<path d="M30.0001 4.74955C30.0001 4.38177 29.6744 4.13483 29.3171 4.14534C28.9598 4.1611 28.6288 4.33974 28.2978 4.46583C21.9301 6.8879 14.7479 7.34499 8.0334 6.37827C6.88278 6.21014 5.72166 5.97897 4.56579 5.80033C3.84601 5.69 3.13147 5.52187 2.40117 5.46934C1.78121 5.42205 1.00888 5.40103 0.504499 5.83186C-0.157497 6.40454 -0.110212 7.48685 0.268072 8.20664C0.719911 9.06303 1.508 9.70927 2.32762 10.1979C3.12622 10.6707 4.07718 11.1804 5.02814 11.1173C7.59206 10.9544 10.1507 10.7075 12.6989 10.3765C17.0439 9.81434 21.6043 9.27844 25.6866 7.59193C27.0211 7.04026 28.3399 6.352 29.4852 5.46408C29.6954 5.30646 29.9896 5.04377 29.9896 4.74429L30.0001 4.74955Z" fill="#008375"/>
<path d="M11.7373 2.56918C11.7373 3.95096 12.8616 5.07531 14.2434 5.07531C15.6252 5.07531 16.7496 3.95622 16.7496 2.56918C16.7496 2.36427 16.7023 2.15412 16.613 1.97023C16.3976 1.51313 16.1559 1.29247 16.1821 0.74606C16.2137 0.0105079 15.268 0 14.7636 0C14.2119 0 13.6235 0.0788091 13.1243 0.325744C12.725 0.530648 12.3835 0.835377 12.1419 1.20841C11.8897 1.59194 11.7531 2.04904 11.7426 2.50613C11.7426 2.52715 11.7426 2.54291 11.7426 2.56392L11.7373 2.56918Z" fill="#D50037"/>
</g>
<defs>
<clipPath id="clip0_755_13552">
<rect width="30" height="27.2785" fill="white"/>
</clipPath>
</defs>
</svg>
