<svg width="30" height="22" viewBox="0 0 30 22" fill="none" xmlns="http://www.w3.org/2000/svg">
<path d="M29.5168 11.2857L29.2546 11.1164C28.3704 10.2063 27.1367 9.80948 25.4917 9.91001C24.1192 9.99996 23.0346 10.5555 22.2018 11.0793C22.2018 11.0635 22.2018 11.0529 22.2018 11.0423C22.2018 10.5978 22.2481 10.1217 22.2995 9.65604C22.3509 9.18515 22.3972 8.70366 22.3972 8.24335C22.3972 7.78303 22.3457 7.33858 22.1915 6.96292C22.1504 6.86239 22.0682 6.80948 21.9551 6.80948C21.513 6.82007 20.6442 7.13224 20.4386 7.32271L20.3255 7.58197C20.3152 8.08462 20.2124 9.49731 20.1045 9.66663C20.1045 9.66134 20.0428 9.83594 20.0428 9.83594C19.8577 11.8518 19.8526 13.619 20.0274 15.1428C20.0479 15.2963 20.3307 15.5238 20.5517 15.6084C20.7933 15.6984 21.5438 15.492 21.9808 15.3227L22.1453 15.2963C22.2841 15.2804 22.3612 15.164 22.356 15L22.3663 14.5608C22.6799 13.2486 23.9496 11.6825 25.4506 11.4497C26.2988 11.3121 26.9722 11.5344 27.5017 12.1322C27.5736 12.2381 27.7279 13.1799 27.1675 14.2698C26.7512 15.074 25.9184 15.7513 24.8235 16.1746C23.7851 16.5767 22.6439 16.746 21.2354 16.6931C21.1789 16.656 19.9143 15.7777 19.9143 15.7777C18.7988 14.9682 17.4109 13.9629 16.1514 13.4709C15.9304 13.3862 15.5346 13.0476 15.2981 12.8412L15.1696 12.7301C14.4448 12.1322 13.062 11.1851 11.9516 10.4232C11.9516 10.4232 11.453 10.0793 11.3553 10.0105C11.3553 9.96821 11.3553 9.88356 11.3553 9.88356C11.3862 9.84652 12.0853 9.41795 12.0853 9.41795C13.062 8.83065 13.5144 8.54493 13.6069 8.39149C13.5863 8.41266 13.7354 8.31213 13.7354 8.31213C13.7405 8.31213 16.1566 6.90472 16.1566 6.90472C18.4801 5.58726 21.112 4.10049 22.4948 2.6243L22.5616 2.40208L22.5925 2.20102C22.685 1.88885 22.6902 1.64546 22.6131 1.36504C22.5925 1.28567 22.5205 1.19044 22.428 1.17456C21.3485 1.06345 19.9554 1.73012 18.6908 2.95234C18.403 3.22747 18.1665 3.36504 17.9095 3.5079L17.7141 3.61901C16.3159 4.43382 13.1699 6.4444 11.5198 7.52906C11.6278 5.70366 11.9568 3.11107 12.3577 0.94705L12.3115 0.68779L12.1418 0.359748L12.0133 0.126944L11.9773 0.116362C11.6483 -0.0529504 11.381 0.0158326 11.1857 0.0687427L10.8567 0.190436L10.4198 0.354457C10.3324 0.37033 10.2707 0.428531 10.2347 0.513187C9.44821 2.47086 8.79023 5.68779 8.63601 8.26451C7.06302 7.23276 5.60825 6.49202 4.89886 6.13753L4.8783 6.12694L4.79091 6.10578C4.53903 6.07403 4.22032 5.87827 3.92217 5.68779C3.89132 5.67192 3.32587 5.29097 3.32587 5.29097L2.41086 4.68779L2.16925 4.62959C1.77343 4.69837 1.02292 5.22218 0.801878 5.57668C0.771035 5.6243 0.760754 5.67721 0.760754 5.73012C0.760754 5.80419 0.781316 5.87827 0.801878 5.95234L0.843003 6.14282L0.884127 6.25922C1.32107 6.71954 2.42628 7.49202 3.51093 8.08991L4.76521 8.77245L6.68776 9.85181L7.01675 10.1217L7.24293 10.2539C7.24293 10.2539 7.26864 10.2698 7.28406 10.2804C6.77001 10.6349 3.78851 12.6825 3.78851 12.6825L1.94821 13.9365C1.77343 14.0582 1.04862 14.3968 0.889267 14.4603C0.488308 14.6243 0.190158 14.8836 0.0616454 15.164L0.0153809 15.2751L0.0667859 15.3492L0.20558 15.4603L0.395778 15.5873L0.596258 15.7301L0.786457 15.7619C1.11031 15.7777 1.58838 15.5873 2.48282 15.1851C3.30531 14.8095 5.53629 13.4232 6.49242 12.8306L6.89852 12.5767C7.06816 12.5926 7.25322 12.4444 7.41771 12.3174C7.60791 12.1587 8.02943 11.8994 8.28132 11.783C8.28646 11.783 8.43553 11.6984 8.56918 11.619C8.56918 11.6613 8.56918 11.7301 8.56918 11.7301C8.61031 14.7354 8.77995 16.9206 9.09866 18.6031V18.6349L9.13464 18.7037C9.294 18.9418 9.46877 19.656 9.62813 20.2804L9.9931 21.5344L10.0959 21.6508C10.3015 21.7936 10.9338 22.0476 11.3605 21.9947L11.4684 21.9788L11.5353 21.8254C11.5712 21.6402 11.5815 21.455 11.5815 21.2486C11.5815 21.0211 11.5661 20.7672 11.5455 20.455L11.5198 20C11.3862 17.8994 11.2525 14.8677 11.2525 12.8571C11.2525 12.7989 11.2525 12.7513 11.2525 12.6984C11.5969 12.9206 13.1134 13.9047 13.1134 13.9047C15.6939 15.6243 19.5853 18.2275 21.9396 18.9153C22.063 18.9523 22.1915 18.9206 22.2789 18.8359L22.6439 18.5978L22.7107 18.5714C22.8444 18.5079 22.9369 18.2698 22.9523 18.0158C24.9366 17.9153 27.7022 17.1269 29.1826 15.2116C29.7584 14.4656 30.0154 13.5608 30.0154 12.7777C30.0154 12.1428 29.8457 11.5873 29.5322 11.2857" fill="#F8B500"/>
</svg>
