<svg width="30" height="29" viewBox="0 0 30 29" fill="none" xmlns="http://www.w3.org/2000/svg">
<g clip-path="url(#clip0_755_13528)">
<path d="M7.29585 0.361823C6.48457 0.769465 5.88043 1.45844 5.5985 2.31965L0.178473 18.5851C-0.109214 19.4349 -0.0401691 20.3592 0.362593 21.1688C0.771108 21.9726 1.46731 22.5754 2.31886 22.8625L20.1094 28.8279C20.9725 29.1092 21.8931 29.046 22.6986 28.6384C23.5099 28.2308 24.114 27.536 24.396 26.6806L29.8217 10.4208C30.4144 8.64672 29.4477 6.72908 27.6698 6.13771L9.89079 0.178097C9.02773 -0.108975 8.11288 -0.0458195 7.3016 0.361823" fill="white"/>
<path d="M15.9896 15.9841C15.023 17.0635 13.8205 17.9305 12.4223 18.4702L11.6226 18.7802V11.2417L12.4108 11.546C13.809 12.08 15.0173 12.9469 15.9896 14.0148C16.6801 12.9067 17.1059 11.6149 17.1979 10.2197C17.4166 6.60836 15.1496 3.28981 12.0311 2.13578L9.4649 1.28605C8.30265 0.901375 7.07135 1.53867 6.68585 2.6927L1.25432 18.9697C0.863061 20.1294 1.51899 21.3811 2.68124 21.7658L15.023 25.8766C16.2773 24.5389 17.0944 22.7705 17.2152 20.7955C17.3245 19.0328 16.8642 17.3736 15.9896 15.9841ZM8.85501 10.7939V19.2453H7.62946V10.7939H8.85501V19.2453V10.7939Z" fill="#1F9AD2"/>
<path d="M27.2842 7.22269L15.9551 3.44482C17.4798 5.1041 18.4062 7.31455 18.4119 9.7317C18.4119 11.6493 17.8193 13.4751 16.7779 15.0081C17.8193 16.5296 18.4234 18.3553 18.4292 20.273C18.4292 22.5581 17.6064 24.6594 16.237 26.2843L20.4948 27.7024C21.657 28.0928 22.8883 27.4498 23.2738 26.29L28.7169 10.013C29.1024 8.859 28.4522 7.60162 27.2899 7.21695L27.2842 7.22269ZM24.2865 19.2108H22.756L19.6087 14.9909L22.8078 10.7652H24.3498L21.1507 15.0023L24.2922 19.2166L24.2865 19.2108Z" fill="#01458E"/>
<path d="M15.282 15.0023C14.5916 14.1927 13.7573 13.5152 12.7964 13.0215V16.9946C13.7573 16.4951 14.5916 15.8118 15.282 15.0023Z" fill="#DA3B15"/>
</g>
<defs>
<clipPath id="clip0_755_13528">
<rect width="30" height="29" fill="white"/>
</clipPath>
</defs>
</svg>
