<svg width="22" height="27" viewBox="0 0 22 27" fill="none" xmlns="http://www.w3.org/2000/svg">
<path d="M18.2343 7.81946L18.1494 7.75047L21.9769 6.15592V0.820312L15.3329 3.63377C15.3329 3.63377 11.7369 10.4029 11.6521 10.5563C14.4686 10.8936 16.583 13.2394 16.583 16.0682C16.583 19.1346 14.0751 21.6261 10.9961 21.6261C7.91722 21.6261 5.40933 19.1346 5.40933 16.0682C5.40933 13.2394 7.52368 10.8936 10.3402 10.5563C10.2631 10.4029 6.66713 3.63377 6.66713 3.63377L0.0308664 0.820312V6.16358L3.85058 7.75813L3.7657 7.82713C1.37355 9.90464 0 12.9097 0 16.0682C0 22.0937 4.9309 27 10.9961 27C17.0614 27 22 22.0937 22 16.0682C22 12.9097 20.6264 9.90464 18.2343 7.82713V7.81946Z" fill="#FAC109"/>
</svg>
