<svg width="27" height="27" viewBox="0 0 27 27" fill="none" xmlns="http://www.w3.org/2000/svg">
<g clip-path="url(#clip0_755_13538)">
<path d="M27 13.5011C27 20.9564 20.9542 27.0022 13.4989 27.0022C6.04358 27.0022 0 20.9564 0 13.5011C0 6.0458 6.04358 0 13.5011 0C20.9586 0 27.0022 6.04358 27.0022 13.5011H27Z" fill="url(#paint0_radial_755_13538)"/>
<path d="M12.353 24.2696C12.353 24.2696 13.1797 24.8746 12.2422 25.0408C12.2422 25.0408 3.04499 25.9206 2.55078 15.899C2.55078 15.899 2.55078 15.4579 2.881 15.4025C2.881 15.4025 3.1558 15.2917 3.37742 15.7327C3.37742 15.7327 3.92704 17.2752 4.80909 18.4853C4.80909 18.4853 5.19471 18.8709 5.52493 18.3745C5.52493 18.3745 6.24076 17.2176 6.73719 16.9982C6.73719 16.9982 7.50843 16.3311 7.50843 17.3838C7.50843 17.55 7.45302 19.1457 7.72783 20.4134C7.72783 20.4134 9.48971 19.8637 11.0876 19.9169C11.0876 19.9169 12.7387 20.0277 9.65593 22.3947C9.65593 22.3947 8.49907 23.0551 12.3553 24.2673L12.353 24.2696Z" fill="#D0A236"/>
<path d="M12.5193 2.57309C12.5193 2.57309 12.916 2.65287 12.9049 2.13206C12.9049 2.13206 12.9426 1.74201 12.4085 1.63563C12.4085 1.63563 6.29622 0.698178 5.30558 6.64647C5.30558 6.64647 4.49223 10.188 9.38118 14.135C9.38118 14.135 12.6301 17.2732 14.392 18.5962C14.392 18.5962 17.8338 21.2934 17.5302 23.3323C17.5302 23.3323 17.2553 24.5379 14.7222 25.1495C14.7222 25.1495 14.5028 25.1495 14.5582 25.4798C14.5582 25.4798 14.669 25.8654 15.2187 25.8654C15.2187 25.8654 19.7818 26.0515 20.9453 22.2862C20.9453 22.2862 22.3039 19.7066 17.3108 15.6221C17.3108 15.6221 14.0064 12.7033 11.4733 10.5004C11.4733 10.5004 7.23368 6.92128 8.94015 4.33275C8.94015 4.33275 9.65598 2.68168 12.5193 2.57087V2.57309Z" fill="url(#paint1_radial_755_13538)"/>
<path d="M15.1522 2.83463C15.1522 2.83463 14.658 2.41799 14.2414 2.73047C14.2414 2.73047 13.8513 3.01636 14.2148 3.56376C14.2148 3.56376 14.3965 3.77209 14.7866 4.31727C14.7866 4.31727 15.4359 5.61818 14.6048 6.6332C14.6048 6.6332 13.0956 8.97352 13.9023 11.3138C13.9023 11.3138 14.709 13.2375 16.8942 12.3023C16.8942 12.3023 18.3502 11.4956 17.1535 9.5187C17.1535 9.5187 16.1141 7.64601 17.1269 7.33352C17.1269 7.33352 17.7518 7.04764 18.1929 7.61942C18.1929 7.61942 18.4522 7.95849 18.6871 8.78957C18.6871 8.78957 19.0505 10.1415 20.1963 10.3232C20.1963 10.3232 21.4196 10.5825 22.1998 9.59405C22.1998 9.59405 23.3965 8.3973 22.1488 7.12299C22.1488 7.12299 21.7853 6.75953 20.2761 6.36948C20.2761 6.36948 19.2101 6.05699 19.6267 5.38105C19.6267 5.38105 19.9392 4.93781 20.6661 5.33008C20.6661 5.33008 21.628 5.87526 22.0446 5.43424C22.0446 5.43424 22.6696 4.65414 21.4196 3.9516C21.4196 3.9516 20.3802 3.30225 17.805 3.35322C17.805 3.35322 16.1407 3.51057 15.1522 2.83242V2.83463Z" fill="url(#paint2_radial_755_13538)"/>
</g>
<defs>
<radialGradient id="paint0_radial_755_13538" cx="0" cy="0" r="1" gradientUnits="userSpaceOnUse" gradientTransform="translate(15.1935 14.9876) scale(13.4638)">
<stop offset="0.03" stop-color="#00B7F1"/>
<stop offset="0.97" stop-color="#0053A5"/>
</radialGradient>
<radialGradient id="paint1_radial_755_13538" cx="0" cy="0" r="1" gradientUnits="userSpaceOnUse" gradientTransform="translate(14.8829 15.2135) scale(10.2088)">
<stop offset="0.05" stop-color="white"/>
<stop offset="1" stop-color="#D0A236"/>
</radialGradient>
<radialGradient id="paint2_radial_755_13538" cx="0" cy="0" r="1" gradientUnits="userSpaceOnUse" gradientTransform="translate(19.8603 9.10684) scale(4.71515)">
<stop offset="0.05" stop-color="white"/>
<stop offset="1" stop-color="#D0A236"/>
</radialGradient>
<clipPath id="clip0_755_13538">
<rect width="27" height="27" fill="white"/>
</clipPath>
</defs>
</svg>
