<svg width="66" height="66" viewBox="0 0 66 66" fill="none" xmlns="http://www.w3.org/2000/svg">
<g clip-path="url(#clip0_1029_11374)">
<path d="M21.9531 1.94414e-08C19.1071 -0.0277204 16.2836 0.505384 13.6436 1.56888C11.0037 2.63237 8.5991 4.20542 6.5671 6.19822C2.46329 10.2228 0.126349 15.7129 0.0703653 21.4606C0.0143815 27.2082 2.24395 32.7427 6.26858 36.8465C10.2932 40.9503 15.7832 43.2873 21.5309 43.3433C21.6736 37.5659 24.0324 32.0646 28.1188 27.9781C32.2053 23.8916 37.7066 21.5329 43.484 21.3902C43.3748 15.7271 41.067 10.3285 37.0487 6.33644C33.0304 2.34441 27.6168 0.0720341 21.9531 1.94414e-08Z" fill="#253FEB"/>
<path d="M43.484 22.3753C37.9925 22.553 32.7768 24.8234 28.9048 28.7216C25.0328 32.6198 22.7975 37.8507 22.6567 43.3433C28.1155 43.0682 33.2754 40.7667 37.1272 36.8888C40.979 33.011 43.2457 27.8358 43.484 22.3753Z" fill="black"/>
<path d="M43.9062 65.8593C49.6538 65.9152 55.1883 63.6857 59.2921 59.6611C63.396 55.6364 65.7329 50.1464 65.7889 44.3987C65.8449 38.651 63.6153 33.1165 59.5907 29.0127C55.566 24.9089 50.076 22.572 44.3283 22.516C44.1188 28.2715 41.7387 33.7345 37.6662 37.807C33.5937 41.8794 28.1308 44.2596 22.3752 44.4691C22.4488 50.1436 24.7453 55.5628 28.7712 59.5624C32.7972 63.562 38.2313 65.8229 43.9062 65.8593Z" fill="#FF3284"/>
</g>
<defs>
<clipPath id="clip0_1029_11374">
<rect width="66" height="66" fill="white"/>
</clipPath>
</defs>
</svg>
