<svg width="22" height="6" viewBox="0 0 22 6" fill="none" xmlns="http://www.w3.org/2000/svg">
<path d="M2.99998 0.599976C1.67438 0.599976 0.599976 1.67438 0.599976 2.99998C0.599976 4.32558 1.67438 5.39998 2.99998 5.39998C4.32558 5.39998 5.39998 4.32558 5.39998 2.99998C5.39998 1.67438 4.32558 0.599976 2.99998 0.599976ZM11 0.599976C9.67438 0.599976 8.59998 1.67438 8.59998 2.99998C8.59998 4.32558 9.67438 5.39998 11 5.39998C12.3256 5.39998 13.4 4.32558 13.4 2.99998C13.4 1.67438 12.3256 0.599976 11 0.599976ZM19 0.599976C17.6744 0.599976 16.6 1.67438 16.6 2.99998C16.6 4.32558 17.6744 5.39998 19 5.39998C20.3256 5.39998 21.4 4.32558 21.4 2.99998C21.4 1.67438 20.3256 0.599976 19 0.599976Z" />
</svg>
