<svg width="16" height="20" viewBox="0 0 16 20" fill="none" xmlns="http://www.w3.org/2000/svg">
<path d="M2.25 0C1.0095 0 0 1.0095 0 2.25V17.75C0 18.9905 1.0095 20 2.25 20H13.75C14.9905 20 16 18.9905 16 17.75V2.25C16 1.095 15.122 0.151391 14 0.0253906V1.54688C14.2905 1.65038 14.5 1.92548 14.5 2.25098V17.751C14.5 18.1645 14.1635 18.501 13.75 18.501H2.25C1.8365 18.501 1.5 18.1645 1.5 17.751V2.25098C1.5 1.83698 1.8365 1.5 2.25 1.5H5V0H2.25ZM6 0V1.5V8.25C6.00004 8.38012 6.03392 8.50799 6.09833 8.62105C6.16273 8.73411 6.25544 8.82847 6.36734 8.89486C6.47925 8.96126 6.6065 8.9974 6.73659 8.99974C6.86669 9.00208 6.99516 8.97053 7.10938 8.9082L9.5 7.60449L11.8906 8.9082C12.0048 8.97053 12.1333 9.00208 12.2634 8.99974C12.3935 8.9974 12.5208 8.96126 12.6327 8.89486C12.7446 8.82847 12.8373 8.73411 12.9017 8.62105C12.9661 8.50799 13 8.38012 13 8.25V0.75V0H6ZM7.5 1.5H11.5V6.98633L9.85938 6.0918C9.74915 6.03163 9.62558 6.0001 9.5 6.0001C9.37442 6.0001 9.25085 6.03163 9.14062 6.0918L7.5 6.98633V1.5ZM4.75 10.5C4.65062 10.4986 4.55194 10.517 4.45972 10.554C4.36749 10.5911 4.28355 10.6461 4.21277 10.7159C4.142 10.7857 4.08579 10.8688 4.04743 10.9605C4.00907 11.0522 3.98932 11.1506 3.98932 11.25C3.98932 11.3494 4.00907 11.4478 4.04743 11.5395C4.08579 11.6312 4.142 11.7143 4.21277 11.7841C4.28355 11.8539 4.36749 11.9089 4.45972 11.946C4.55194 11.983 4.65062 12.0014 4.75 12H11.25C11.3494 12.0014 11.4481 11.983 11.5403 11.946C11.6325 11.9089 11.7164 11.8539 11.7872 11.7841C11.858 11.7143 11.9142 11.6312 11.9526 11.5395C11.9909 11.4478 12.0107 11.3494 12.0107 11.25C12.0107 11.1506 11.9909 11.0522 11.9526 10.9605C11.9142 10.8688 11.858 10.7857 11.7872 10.7159C11.7164 10.6461 11.6325 10.5911 11.5403 10.554C11.4481 10.517 11.3494 10.4986 11.25 10.5H4.75ZM4.75 14C4.65062 13.9986 4.55194 14.017 4.45972 14.054C4.36749 14.0911 4.28355 14.1461 4.21277 14.2159C4.142 14.2857 4.08579 14.3688 4.04743 14.4605C4.00907 14.5522 3.98932 14.6506 3.98932 14.75C3.98932 14.8494 4.00907 14.9478 4.04743 15.0395C4.08579 15.1312 4.142 15.2143 4.21277 15.2841C4.28355 15.3539 4.36749 15.4089 4.45972 15.446C4.55194 15.483 4.65062 15.5014 4.75 15.5H9.25C9.34938 15.5014 9.44806 15.483 9.54028 15.446C9.63251 15.4089 9.71645 15.3539 9.78723 15.2841C9.858 15.2143 9.91421 15.1312 9.95257 15.0395C9.99093 14.9478 10.0107 14.8494 10.0107 14.75C10.0107 14.6506 9.99093 14.5522 9.95257 14.4605C9.91421 14.3688 9.858 14.2857 9.78723 14.2159C9.71645 14.1461 9.63251 14.0911 9.54028 14.054C9.44806 14.017 9.34938 13.9986 9.25 14H4.75Z" />
</svg>
