<svg width="110" height="110" viewBox="0 0 110 110" fill="none" xmlns="http://www.w3.org/2000/svg">
<g opacity="0.3">
<path d="M100.547 41.25H94.5312C92.6406 41.25 91.0938 39.7031 91.0938 37.8125C91.0938 35.9219 92.6406 34.375 94.5295 34.375H102.833C105.626 34.375 108.128 32.2833 108.274 29.4955C108.28 29.4027 108.281 29.3098 108.281 29.2188C108.28 26.3725 105.971 24.0625 103.125 24.0625H95.6364C93.3883 24.0625 91.3412 22.4469 91.1161 20.2091C91.1006 20.0578 91.0938 19.9083 91.0938 19.7605C91.0972 17.3903 93.0188 15.4688 95.3906 15.4688H95.9578C98.7508 15.4688 101.253 13.377 101.399 10.5892C101.405 10.4964 101.406 10.4036 101.406 10.3125C101.406 7.46625 99.098 5.15625 96.25 5.15625H68.9339H32.6562H10.6047C7.81172 5.15625 5.30922 7.24797 5.16313 10.0358C5.15797 10.1286 5.15625 10.2214 5.15625 10.3125C5.15625 13.1587 7.46453 15.4688 10.3125 15.4688H10.9261C13.1742 15.4688 15.2213 17.0844 15.4464 19.3222C15.4619 19.4734 15.4688 19.623 15.4688 19.7708C15.467 22.1409 13.5437 24.0625 11.1719 24.0625H5.44844C2.65547 24.0625 0.152969 26.1542 0.006875 28.942C0.00171875 29.0348 0 29.1277 0 29.2188C0 32.065 2.30828 34.375 5.15625 34.375H15.2831C16.9967 34.375 18.5831 35.5455 18.8581 37.235C18.8908 37.4292 18.9062 37.62 18.9062 37.8073C18.9097 39.7083 17.3697 41.25 15.4688 41.25H7.73438C3.48047 41.25 0 44.7305 0 48.9844C0 53.2383 3.48047 56.7188 7.73438 56.7188H12.6483C14.8947 56.7205 16.9417 58.3361 17.1669 60.5722C17.1806 60.7234 17.1875 60.873 17.1875 61.0208C17.1858 63.3909 15.2625 65.3125 12.8906 65.3125H12.3234C9.53047 65.3125 7.02797 67.4042 6.88188 70.192C6.87672 70.2848 6.875 70.3777 6.875 70.4688C6.875 73.315 9.18328 75.625 12.0312 75.625H27.5877C27.5309 75.9034 27.5 76.1922 27.5 76.4895C27.5 76.6459 27.5086 76.8041 27.5258 76.9639C27.7698 79.1862 29.822 80.7812 32.0598 80.7812H76.2197C78.4592 80.7812 80.5097 79.1862 80.7538 76.9622C80.7727 76.8023 80.7812 76.6459 80.7812 76.4895C80.7812 76.1939 80.7503 75.9052 80.6936 75.625H97.6783C100.471 75.625 102.974 73.5333 103.12 70.7455C103.123 70.6527 103.125 70.5598 103.125 70.4688C103.123 67.6225 100.815 65.3125 97.9688 65.3125H79.0625V56.6311C79.3478 56.6638 79.628 56.7188 79.9219 56.7188H100.547C104.801 56.7188 108.281 53.2383 108.281 48.9844C108.281 44.7305 104.801 41.25 100.547 41.25Z" fill="#D4D7DF"/>
<path d="M94.5312 103.125H15.4688C12.6328 103.125 10.3125 100.805 10.3125 97.9688V77.3438C10.3125 74.5078 12.6328 72.1875 15.4688 72.1875H94.5312C97.3672 72.1875 99.6875 74.5078 99.6875 77.3438V97.9688C99.6875 100.805 97.3672 103.125 94.5312 103.125Z" fill="#9096AC"/>
<path fill-rule="evenodd" clip-rule="evenodd" d="M75.625 20.6252L82.4656 12.743C83.6413 11.3285 85.9375 12.162 85.9375 14.0045V20.6252V87.6562C85.9375 87.6563 85.9375 87.6564 85.9375 87.6564C85.9374 90.4923 83.6171 92.8125 80.7812 92.8125H29.2188C26.3829 92.8125 24.0626 90.4923 24.0625 87.6564C24.0625 87.6564 24.0625 87.6563 24.0625 87.6562V20.6252V14.0045C24.0625 12.162 26.3588 11.3285 27.5344 12.743L34.375 20.6252L39.4573 12.9991C40.3098 11.7203 42.1884 11.7203 43.0409 12.9991L48.125 20.6252L53.2073 12.9991C54.0598 11.7203 55.9384 11.7203 56.7909 12.9991L61.875 20.6252L66.9573 12.9991C67.8098 11.7203 69.6884 11.7203 70.5409 12.9991L75.625 20.6252Z" fill="#A3A8BA"/>
<path d="M57.5781 56.7188H40.3906C38.9675 56.7188 37.8125 55.5637 37.8125 54.1406C37.8125 52.7175 38.9675 51.5625 40.3906 51.5625H57.5781C59.0012 51.5625 60.1562 52.7175 60.1562 54.1406C60.1562 55.5637 59.0012 56.7188 57.5781 56.7188ZM72.1875 42.1094V36.9531C72.1875 35.53 71.0325 34.375 69.6094 34.375H40.3906C38.9675 34.375 37.8125 35.53 37.8125 36.9531V42.1094C37.8125 43.5325 38.9675 44.6875 40.3906 44.6875H69.6094C71.0325 44.6875 72.1875 43.5325 72.1875 42.1094ZM60.1562 66.1719C60.1562 64.7488 59.0012 63.5938 57.5781 63.5938H40.3906C38.9675 63.5938 37.8125 64.7488 37.8125 66.1719C37.8125 67.595 38.9675 68.75 40.3906 68.75H57.5781C59.0012 68.75 60.1562 67.595 60.1562 66.1719ZM72.1875 54.1406C72.1875 52.7175 71.0325 51.5625 69.6094 51.5625H67.8906C66.4675 51.5625 65.3125 52.7175 65.3125 54.1406C65.3125 55.5637 66.4675 56.7188 67.8906 56.7188H69.6094C71.0325 56.7188 72.1875 55.5637 72.1875 54.1406ZM72.1875 66.1719C72.1875 64.7488 71.0325 63.5938 69.6094 63.5938H67.8906C66.4675 63.5938 65.3125 64.7488 65.3125 66.1719C65.3125 67.595 66.4675 68.75 67.8906 68.75H69.6094C71.0325 68.75 72.1875 67.595 72.1875 66.1719ZM72.1875 76.4844C72.1875 75.0612 71.0325 73.9062 69.6094 73.9062H67.8906C66.4675 73.9062 65.3125 75.0612 65.3125 76.4844C65.3125 77.9075 66.4675 79.0625 67.8906 79.0625H69.6094C71.0325 79.0625 72.1875 77.9075 72.1875 76.4844Z" fill="#F6F6F8"/>
</g>
</svg>
