<svg width="20" height="17" viewBox="0 0 20 17" fill="none" xmlns="http://www.w3.org/2000/svg">
<path d="M17.6416 0.0148324C17.4653 0.0226274 17.2872 0.0518602 17.1094 0.104676L1.6084 4.7121C0.657926 4.9953 0 5.87664 0 6.86932V9.13104C0 10.1237 0.657926 11.0051 1.6084 11.2883L4.10645 12.0305C3.88531 13.9251 4.97798 15.7778 6.86621 16.3361C8.75032 16.8927 10.6701 15.937 11.5176 14.2336L17.1084 15.8957C18.5314 16.319 20 15.2243 20 13.7394V2.26093C20 1.14751 19.1743 0.253183 18.1611 0.0538949C17.9923 0.0206802 17.8179 0.00703742 17.6416 0.0148324ZM17.7207 1.50897C18.1445 1.48282 18.5 1.80466 18.5 2.26093V13.7394C18.5 14.2616 18.0361 14.6069 17.5361 14.4582L2.03613 9.84979C1.71537 9.75358 1.5 9.46587 1.5 9.13104V6.86932C1.5 6.5345 1.71537 6.24679 2.03613 6.15057L17.5361 1.54218C17.5986 1.52362 17.6602 1.51271 17.7207 1.50897ZM5.54199 12.4572L10.082 13.8068C9.502 14.7363 8.3981 15.2247 7.29102 14.8976C6.18155 14.5696 5.52028 13.5555 5.54199 12.4572Z" />
</svg>
