<svg width="390" height="333" viewBox="0 0 390 333" fill="none" xmlns="http://www.w3.org/2000/svg">
<g clip-path="url(#clip0_1066_13733)">
<path d="M159.275 157.065H109.325V269.73H159.275V157.065Z" fill="#F8F8F9"/>
</g>
<g clip-path="url(#clip1_1066_13733)">
<path d="M212 159.84H149.285V365.745H212V159.84Z" fill="#F3F4F6"/>
<path d="M164.282 171.235H160.192V193.198H164.282V171.235Z" fill="white"/>
<path d="M176.553 171.235H172.462V193.198H176.553V171.235Z" fill="white"/>
<path d="M188.823 171.235H184.733V193.198H188.823V171.235Z" fill="white"/>
<path d="M201.093 171.235H197.003V193.198H201.093V171.235Z" fill="white"/>
<path d="M164.282 207.908H160.192V216.634H164.282V207.908Z" fill="white"/>
<path d="M176.553 207.908H172.462V216.634H176.553V207.908Z" fill="white"/>
<path d="M188.823 207.908H184.733V216.634H188.823V207.908Z" fill="white"/>
<path d="M201.093 207.908H197.003V216.634H201.093V207.908Z" fill="white"/>
<path d="M164.282 225.555H160.192V234.281H164.282V225.555Z" fill="white"/>
<path d="M176.553 225.555H172.462V234.281H176.553V225.555Z" fill="white"/>
<path d="M188.823 225.555H184.733V234.281H188.823V225.555Z" fill="white"/>
<path d="M201.093 225.555H197.003V234.281H201.093V225.555Z" fill="white"/>
<path d="M164.282 243.201H160.192V251.928H164.282V243.201Z" fill="white"/>
<path d="M176.553 243.201H172.462V251.928H176.553V243.201Z" fill="white"/>
<path d="M188.823 243.201H184.733V251.928H188.823V243.201Z" fill="white"/>
<path d="M201.093 243.201H197.003V251.928H201.093V243.201Z" fill="white"/>
<path d="M164.282 260.848H160.192V269.574H164.282V260.848Z" fill="white"/>
<path d="M176.553 260.848H172.462V269.574H176.553V260.848Z" fill="white"/>
<path d="M188.823 260.848H184.733V269.574H188.823V260.848Z" fill="white"/>
<path d="M201.093 260.848H197.003V269.574H201.093V260.848Z" fill="white"/>
</g>
<g clip-path="url(#clip2_1066_13733)">
<path d="M368.51 129.87H306.905V268.62H368.51V129.87Z" fill="#F8F8F9"/>
</g>
<g clip-path="url(#clip3_1066_13733)">
<path d="M410.135 101.01H359.075V267.51H410.135V101.01Z" fill="#F3F4F6"/>
<path d="M371.285 110.224H367.955V127.984H371.285V110.224Z" fill="white"/>
<path d="M381.275 110.224H377.945V127.984H381.275V110.224Z" fill="white"/>
<path d="M391.265 110.224H387.935V127.984H391.265V110.224Z" fill="white"/>
<path d="M371.285 139.879H367.955V146.935H371.285V139.879Z" fill="white"/>
<path d="M381.275 139.879H377.945V146.935H381.275V139.879Z" fill="white"/>
<path d="M391.265 139.879H387.935V146.935H391.265V139.879Z" fill="white"/>
<path d="M371.285 154.148H367.955V161.205H371.285V154.148Z" fill="white"/>
<path d="M381.275 154.148H377.945V161.205H381.275V154.148Z" fill="white"/>
<path d="M391.265 154.148H387.935V161.205H391.265V154.148Z" fill="white"/>
<path d="M371.285 168.418H367.955V175.474H371.285V168.418Z" fill="white"/>
<path d="M381.275 168.418H377.945V175.474H381.275V168.418Z" fill="white"/>
<path d="M391.265 168.418H387.935V175.474H391.265V168.418Z" fill="white"/>
<path d="M371.285 182.688H367.955V189.744H371.285V182.688Z" fill="white"/>
<path d="M381.275 182.688H377.945V189.744H381.275V182.688Z" fill="white"/>
<path d="M391.265 182.688H387.935V189.744H391.265V182.688Z" fill="white"/>
</g>
<g clip-path="url(#clip4_1066_13733)">
<path d="M316.895 102.341H265.835V268.62H316.895V102.341Z" fill="#F3F4F6"/>
<path d="M311.9 102.12H257.51V105.446H311.9V102.12Z" fill="#F3F4F6"/>
<path d="M309.125 110.434H271.385V114.314H309.125V110.434Z" fill="white"/>
<path d="M309.125 124.013H271.385V127.893H309.125V124.013Z" fill="white"/>
<path d="M309.125 137.593H271.385V141.473H309.125V137.593Z" fill="white"/>
<path d="M309.125 151.172H271.385V155.052H309.125V151.172Z" fill="white"/>
<path d="M309.125 164.752H271.385V168.632H309.125V164.752Z" fill="white"/>
<path d="M309.125 178.331H271.385V182.211H309.125V178.331Z" fill="white"/>
<path d="M309.125 191.911H271.385V195.791H309.125V191.911Z" fill="white"/>
<path d="M309.125 205.49H271.385V209.37H309.125V205.49Z" fill="white"/>
<path d="M309.125 219.07H271.385V222.95H309.125V219.07Z" fill="white"/>
<path d="M309.125 232.649H271.385V236.529H309.125V232.649Z" fill="white"/>
</g>
<g clip-path="url(#clip5_1066_13733)">
<path d="M320.225 289.155C320.225 294.039 316.203 298.035 311.287 298.035H90.5132C85.5525 298.035 81.575 294.039 81.575 289.155H320.225Z" fill="#EFF0F2"/>
</g>
<g clip-path="url(#clip6_1066_13733)">
<path d="M94.0188 220.303C96.3145 220.303 98.1756 217.82 98.1756 214.757C98.1756 211.694 96.3145 209.212 94.0188 209.212C91.7231 209.212 89.8621 211.694 89.8621 214.757C89.8621 217.82 91.7231 220.303 94.0188 220.303Z" fill="#93C3FF"/>
<path d="M103.824 243.04C92.0662 243.04 82.535 252.577 82.535 264.342C82.535 276.107 92.0662 285.643 103.824 285.643C115.581 285.643 125.112 276.106 125.112 264.342C125.112 252.577 115.581 243.04 103.824 243.04ZM106.108 250.826C106.108 249.832 107.052 249.088 108.009 249.355C111.892 250.439 115.166 252.998 117.187 256.388C117.697 257.243 117.222 258.349 116.261 258.607L108.019 260.817C107.055 261.076 106.108 260.349 106.108 259.35V250.826ZM92.1604 254.054C94.2449 251.689 97.0377 249.962 100.205 249.206C101.153 248.979 102.061 249.714 102.061 250.689V258.408C102.061 259.519 100.907 260.254 99.9014 259.785L92.6775 256.412C91.7702 255.989 91.4987 254.805 92.1604 254.054ZM90.3714 272.153C89.0362 269.855 88.2697 267.185 88.2697 264.342C88.2697 263.207 88.3922 262.098 88.625 261.03C88.8322 260.081 89.872 259.572 90.7521 259.982L98.6488 263.663C99.6038 264.108 99.826 265.368 99.0811 266.113L92.7512 272.447C92.0512 273.148 90.8685 273.008 90.3714 272.153ZM108.414 279.211C106.962 279.661 105.418 279.903 103.822 279.903C100.918 279.903 98.2005 279.104 95.8721 277.712C95.0275 277.208 94.8939 276.034 95.5895 275.338L102.256 268.667C102.961 267.961 104.145 268.117 104.643 268.982L109.27 277C109.756 277.841 109.342 278.925 108.414 279.211ZM115.058 275.095C114.365 275.817 113.165 275.65 112.664 274.784L108.15 266.956C107.651 266.092 108.107 264.989 109.071 264.73L117.461 262.48C118.413 262.224 119.346 262.931 119.373 263.917C119.377 264.058 119.379 264.2 119.379 264.342C119.379 268.51 117.733 272.301 115.058 275.095Z" fill="#002652"/>
<path d="M103.824 246.183C113.831 246.183 121.972 254.329 121.972 264.342C121.972 274.355 113.831 282.501 103.824 282.501C93.8171 282.501 85.676 274.355 85.676 264.342C85.676 254.329 93.8171 246.183 103.824 246.183ZM103.824 238.974C89.8217 238.974 78.4709 250.331 78.4709 264.342C78.4709 278.353 89.8217 289.711 103.824 289.711C117.826 289.711 129.177 278.353 129.177 264.342C129.177 250.331 117.826 238.974 103.824 238.974Z" fill="#002652"/>
<path d="M103.824 246.041C113.909 246.041 122.113 254.251 122.113 264.342C122.113 274.433 113.909 282.643 103.824 282.643C93.7389 282.643 85.534 274.433 85.534 264.342C85.534 254.251 93.7389 246.041 103.824 246.041ZM103.824 244.932C93.1104 244.932 84.4255 253.622 84.4255 264.342C84.4255 275.062 93.1104 283.752 103.824 283.752C114.537 283.752 123.222 275.062 123.222 264.342C123.222 253.622 114.537 244.932 103.824 244.932Z" fill="#2888FF"/>
<path d="M264.738 243.04C252.98 243.04 243.449 252.577 243.449 264.342C243.449 276.107 252.98 285.643 264.738 285.643C276.495 285.643 286.026 276.106 286.026 264.342C286.027 252.577 276.495 243.04 264.738 243.04ZM267.022 250.826C267.022 249.832 267.966 249.088 268.923 249.355C272.806 250.439 276.08 252.998 278.102 256.388C278.612 257.243 278.137 258.349 277.175 258.607L268.933 260.817C267.969 261.076 267.022 260.349 267.022 259.35V250.826ZM253.075 254.054C255.159 251.689 257.952 249.962 261.119 249.206C262.067 248.979 262.975 249.714 262.975 250.689V258.408C262.975 259.519 261.822 260.254 260.816 259.785L253.592 256.412C252.684 255.989 252.413 254.805 253.075 254.054ZM251.285 272.153C249.95 269.855 249.183 267.185 249.183 264.342C249.183 263.207 249.306 262.098 249.539 261.03C249.746 260.081 250.786 259.572 251.666 259.982L259.562 263.663C260.517 264.108 260.74 265.368 259.995 266.113L253.665 272.447C252.965 273.148 251.783 273.008 251.285 272.153ZM269.329 279.211C267.876 279.661 266.332 279.903 264.736 279.903C261.832 279.903 259.115 279.104 256.786 277.712C255.942 277.208 255.808 276.034 256.504 275.338L263.17 268.667C263.876 267.961 265.059 268.117 265.558 268.982L270.184 277C270.67 277.841 270.256 278.925 269.329 279.211ZM275.971 275.095C275.279 275.817 274.078 275.65 273.578 274.784L269.063 266.956C268.564 266.092 269.021 264.989 269.985 264.73L278.374 262.48C279.326 262.224 280.26 262.931 280.287 263.917C280.291 264.058 280.293 264.2 280.293 264.342C280.294 268.51 278.647 272.301 275.971 275.095Z" fill="#002652"/>
<path d="M264.738 246.183C274.745 246.183 282.886 254.329 282.886 264.342C282.886 274.355 274.745 282.501 264.738 282.501C254.731 282.501 246.59 274.355 246.59 264.342C246.59 254.329 254.731 246.183 264.738 246.183ZM264.738 238.974C250.736 238.974 239.385 250.331 239.385 264.342C239.385 278.353 250.736 289.711 264.738 289.711C278.74 289.711 290.091 278.353 290.091 264.342C290.091 250.331 278.74 238.974 264.738 238.974Z" fill="#002652"/>
<path d="M264.738 246.041C274.823 246.041 283.028 254.251 283.028 264.342C283.028 274.433 274.823 282.643 264.738 282.643C254.653 282.643 246.448 274.433 246.448 264.342C246.448 254.251 254.653 246.041 264.738 246.041ZM264.738 244.932C254.025 244.932 245.34 253.622 245.34 264.342C245.34 275.062 254.025 283.752 264.738 283.752C275.451 283.752 284.136 275.062 284.136 264.342C284.136 253.622 275.451 244.932 264.738 244.932Z" fill="#2888FF"/>
<path d="M103.455 265.69C103.131 265.69 102.802 265.627 102.485 265.492C101.216 264.956 100.623 263.491 101.158 262.222L123.882 208.428C123.967 208.227 124.078 208.037 124.212 207.866C125.714 205.441 139.071 176.733 147.746 157.89C148.323 156.637 149.802 156.09 151.055 156.667C152.306 157.244 152.853 158.726 152.277 159.978C134.166 199.317 129.725 208.203 128.468 210.393L105.754 264.165C105.351 265.117 104.427 265.69 103.455 265.69Z" fill="#013B84"/>
<path d="M282.035 123.575L240.569 130.546C239.663 130.698 239.052 131.556 239.204 132.463L250.223 198.092C250.375 198.998 251.233 199.609 252.138 199.457L317.728 188.432C318.633 188.28 319.244 187.421 319.092 186.515L312.126 145.024C309.735 130.786 296.263 121.184 282.035 123.575Z" fill="#2888FF"/>
<path d="M190.921 219.555L239.943 209.646C241.236 209.385 242.165 208.248 242.165 206.928V200.389C242.165 198.858 240.924 197.616 239.394 197.616H199.359C192.865 197.616 187.602 202.883 187.602 209.38V216.837C187.601 218.589 189.205 219.902 190.921 219.555Z" fill="#013B84"/>
<path d="M115.174 238.35L110.198 237.312C104.965 236.221 99.5356 236.539 94.4649 238.232L82.3411 242.282L83.8774 240.116C90.7139 230.477 100.749 223.581 112.194 220.657L120.37 218.569L118.494 235.934C118.319 237.562 116.777 238.684 115.174 238.35Z" fill="#68ABFF"/>
<path d="M263.564 238.974L271.531 237.312C276.764 236.221 282.194 236.539 287.264 238.232L299.388 242.282L297.852 240.116C291.015 230.477 280.98 223.581 269.535 220.657L261.359 218.569L263.564 238.974Z" fill="#68ABFF"/>
<path d="M213.194 270.403H271.389V265.412L261.967 258.203L213.194 253.766V270.403Z" fill="#CCE2FB"/>
<path d="M242.014 224.374C241.096 224.374 240.352 223.629 240.352 222.71C240.352 222.168 240.352 220.9 248.416 202.55C249.226 200.708 250.89 199.387 252.869 199.015L306.553 188.91C307.455 188.741 308.325 189.335 308.494 190.237C308.664 191.14 308.07 192.01 307.167 192.18L253.483 202.285C252.584 202.454 251.828 203.055 251.46 203.89C245.985 216.348 243.85 221.849 243.674 222.804C243.626 223.679 242.901 224.374 242.014 224.374Z" fill="#013B84"/>
<path d="M92.9253 208.291H112.878V217.164L92.9253 221.601V208.291Z" fill="#002652"/>
<path d="M112.878 208.568H88.4915C88.3767 208.568 88.2736 208.497 88.2326 208.39L73.8225 170.679C73.7898 170.594 73.8009 170.498 73.853 170.423C73.9051 170.348 73.9905 170.303 74.0814 170.303H127.288C127.379 170.303 127.464 170.348 127.516 170.423C127.568 170.498 127.579 170.594 127.547 170.679L113.137 208.39C113.096 208.497 112.992 208.568 112.878 208.568ZM88.6821 208.014H112.687L126.885 170.857H74.4843L88.6821 208.014Z" fill="#002652"/>
<path d="M117.312 196.922H84.0575C83.9045 196.922 83.7804 196.798 83.7804 196.645C83.7804 196.492 83.9045 196.368 84.0575 196.368H117.312C117.465 196.368 117.589 196.492 117.589 196.645C117.589 196.798 117.465 196.922 117.312 196.922Z" fill="#002652"/>
<path d="M123.408 180.285H78.0735C77.9205 180.285 77.7964 180.161 77.7964 180.008C77.7964 179.855 77.9205 179.73 78.0735 179.73H123.408C123.561 179.73 123.685 179.855 123.685 180.008C123.685 180.161 123.561 180.285 123.408 180.285Z" fill="#002652"/>
<path d="M93.4795 211.064C93.3265 211.064 93.2024 210.94 93.2024 210.787V170.58C93.2024 170.427 93.3265 170.303 93.4795 170.303C93.6325 170.303 93.7566 170.427 93.7566 170.58V210.787C93.7566 210.94 93.6325 211.064 93.4795 211.064Z" fill="#002652"/>
<path d="M101.239 211.064C101.086 211.064 100.962 210.94 100.962 210.787V170.58C100.962 170.427 101.086 170.303 101.239 170.303C101.392 170.303 101.516 170.427 101.516 170.58V210.787C101.516 210.94 101.392 211.064 101.239 211.064Z" fill="#002652"/>
<path d="M108.998 211.064C108.845 211.064 108.721 210.94 108.721 210.787V170.58C108.721 170.427 108.845 170.303 108.998 170.303C109.151 170.303 109.275 170.427 109.275 170.58V210.787C109.275 210.94 109.151 211.064 108.998 211.064Z" fill="#002652"/>
<path d="M103.613 264.707C104.325 264.707 104.902 264.129 104.902 263.417C104.902 262.704 104.325 262.126 103.613 262.126C102.9 262.126 102.323 262.704 102.323 263.417C102.323 264.129 102.9 264.707 103.613 264.707Z" fill="#2888FF"/>
<path d="M150.597 169.42L142.455 165.184C141.112 164.485 140.578 162.838 141.255 161.484L146.056 151.876C146.718 150.55 148.306 149.98 149.66 150.582L155.202 153.047C156.381 153.571 157.043 154.84 156.797 156.107L154.596 167.487C154.245 169.307 152.241 170.276 150.597 169.42Z" fill="#002652"/>
<path d="M129.085 179.838L112.398 209.7C109.187 215.447 109.594 222.535 113.444 227.875L145.982 273.022C147.544 275.191 150.053 276.475 152.724 276.475H205.737C207.215 276.475 208.666 276.081 209.941 275.333L285.474 231.028C286.812 230.243 287.245 228.512 286.436 227.188L272.4 204.249C271.787 203.247 270.608 202.74 269.459 202.985L196.778 218.5C192.925 219.322 191.136 223.791 193.355 227.048L202.596 240.609C203.784 242.352 202.667 244.732 200.567 244.931L159.523 248.822C155.642 249.19 152.027 246.81 150.828 243.098L142.158 216.244C141.605 214.531 141.622 212.685 142.207 210.982L152.101 182.181C152.876 179.926 151.962 177.438 149.914 176.221L147.614 174.854C141.136 171.006 132.761 173.259 129.085 179.838Z" fill="#93C3FF"/>
<path d="M274.912 152.886L264.854 154.377L266.345 164.441L276.402 162.949L274.912 152.886Z" fill="white"/>
<path d="M289.299 158.903L277.909 160.592L278.196 162.532L289.586 160.843L289.299 158.903Z" fill="white"/>
<path d="M284.605 155.634L277.335 156.712L277.622 158.652L284.892 157.574L284.605 155.634Z" fill="white"/>
<path d="M280.395 152.294L276.76 152.833L277.047 154.773L280.682 154.234L280.395 152.294Z" fill="white"/>
<path d="M159.06 162.172C159.041 162.172 159.022 162.172 159.003 162.172L148.846 161.984C147.163 161.952 145.824 160.562 145.855 158.877C145.886 157.193 147.296 155.862 148.96 155.884L159.116 156.072C160.799 156.103 162.139 157.494 162.107 159.178C162.077 160.843 160.718 162.172 159.06 162.172Z" fill="#013B84"/>
<path d="M159.348 162.732C161.343 162.732 162.96 161.114 162.96 159.118C162.96 157.121 161.343 155.503 159.348 155.503C157.353 155.503 155.736 157.121 155.736 159.118C155.736 161.114 157.353 162.732 159.348 162.732Z" fill="#002652"/>
<path d="M142.716 182.552L127.556 209.289C126.029 211.982 126.123 215.3 127.8 217.902L149.33 251.304C151.035 253.949 154.085 255.405 157.212 255.066L203.773 250.019C206.98 249.671 208.387 245.786 206.146 243.463L200.677 237.794L202.066 239.833C203.492 241.926 202.152 244.782 199.633 245.02L159.523 248.822C155.642 249.19 152.027 246.81 150.828 243.098L142.158 216.245C141.605 214.532 141.622 212.685 142.207 210.983L152.111 182.154C152.746 180.307 151.323 178.399 149.374 178.482C146.601 178.599 144.085 180.137 142.716 182.552Z" fill="#68ABFF"/>
</g>
<g clip-path="url(#clip7_1066_13733)">
<path d="M200.869 229.512L202.357 240.901L196.59 244.728L187.462 241.834L188.686 239.567C189.882 237.354 190.258 234.788 189.748 232.323L188.683 227.179L200.869 229.512Z" fill="#C78982"/>
<path d="M179.056 250.334L176.628 248.882C175.958 248.482 175.492 247.797 175.389 247.063C175.237 245.983 175.9 245.067 176.944 244.914L181.55 244.241C184.461 243.815 186.862 242.115 188.131 239.583L189.65 236.552L191.67 237.693C192.157 237.967 192.408 238.537 192.254 239.015L191.811 240.385L194.582 241.476C196.458 242.216 198.449 241.875 199.709 240.599L201.654 238.63C201.995 238.284 202.645 238.543 202.745 239.064L204.445 247.926L204.206 250.012L179.056 250.334Z" fill="#93C3FF"/>
<path d="M205.208 248.508L204.919 249.385C204.399 250.963 202.958 251.97 201.22 251.97H182.74C182.385 251.97 182.023 251.878 181.689 251.703L177.274 249.393H192.49C192.76 249.393 193.004 249.287 193.171 249.099C194.008 248.151 195.233 247.621 196.587 247.621H204.522C204.977 247.621 205.344 248.095 205.208 248.508Z" fill="#013B84"/>
<path d="M211.746 183.61L238.237 176.208L233.79 162.941C231.981 157.546 229.052 152.598 225.195 148.423L213.259 135.973C212.518 135.171 209.207 134.899 208.169 135.233L203.613 136.761L201.198 137.537C191.966 141.551 188.425 152.846 193.703 161.442L211.746 183.61Z" fill="#5EA6FF"/>
<path d="M180.531 159.806L190.035 137.662L192.192 133.117C200.295 129.254 209.978 131.454 215.632 138.442L222.512 146.944L191.518 161.835L180.531 159.806Z" fill="#5EA6FF"/>
<path d="M195.382 119.359L184.311 122.55L190.604 144.539C190.757 145.073 191.477 145.153 191.744 144.667L198.898 131.646L195.382 119.359Z" fill="#C78982"/>
<path opacity="0.1" d="M185.592 127.568L187.607 127.802C188.339 127.887 188.749 128.69 188.393 129.336L187.117 131.648" fill="#002652"/>
<path d="M236.576 174.485L188.314 181.142C184.852 181.619 182.636 185.089 183.649 188.445C184.953 192.767 186.477 197.69 186.64 197.684L234.211 198.306C235.093 198.318 235.944 197.979 236.577 197.364C243.027 191.111 243.027 180.739 236.576 174.485Z" fill="#2888FF"/>
<path d="M192.744 181.526L189.725 181.286C186.478 181.069 183.242 182.107 181.099 184.158C179.379 185.803 178.542 188.174 178.692 190.553C178.692 190.553 178.834 192.789 178.881 193.535C178.904 193.898 178.964 194.258 179.059 194.61C181.789 204.642 189.965 234.743 189.965 234.743L201.52 234.646L201.054 229.982L200.33 204.266C200.322 203.696 200.268 203.13 200.166 202.57L198.88 195.424L192.744 181.526Z" fill="#2888FF"/>
<path d="M160.076 162.435L181.085 168.434L181.259 165.406L181.626 157.841L164.535 156.11C164.536 156.11 159.698 162.357 160.076 162.435Z" fill="#C78982"/>
<path d="M175.951 166.909L188.035 170.785C190.303 171.432 191.125 171.566 193.334 170.736L194.067 170.461C196.777 169.444 198.704 167.008 199.077 164.13L200.056 156.594L185.275 157.895L177.697 157.509L175.951 166.909Z" fill="#5EA6FF"/>
<path opacity="0.1" d="M193.438 156.732L197.89 152.782C198.671 152.089 199.886 152.768 199.709 153.8L198.113 163.13L193.438 156.732Z" fill="#002652"/>
<path d="M194.226 168.55L209.819 146.793C212.018 143.725 211.321 139.449 208.264 137.242L207.431 136.641C205.524 135.264 202.866 135.7 201.494 137.614L184.404 161.46L194.226 168.55Z" fill="#5EA6FF"/>
<path d="M190.723 118.223L176.624 118.089C176.658 114.441 179.272 111.332 182.85 110.683L186.445 110.031C188.71 109.621 190.787 111.379 190.766 113.689L190.723 118.223Z" fill="#002652"/>
<path d="M184.297 114.909L184.267 118.11L181.425 118.082L181.324 128.788L180.258 128.778L175.145 120.719L177.552 114.678L184.297 114.909Z" fill="#002652"/>
<path d="M178.561 118.982L178.374 131.239C178.397 132.689 179.82 133.696 181.188 133.229L193.875 128.904L178.561 118.982Z" fill="#C78982"/>
<path d="M179.486 126.44L177.324 126.367C176.423 126.337 175.99 125.244 176.624 124.601L179.395 121.785L179.486 126.44Z" fill="#C78982"/>
<path d="M185.783 111.411L186.062 111.407C187.238 111.389 188.205 112.331 188.224 113.51L188.34 120.932L178.479 121.086L178.447 119.007C178.383 114.877 181.668 111.476 185.783 111.411Z" fill="#C78982"/>
<path d="M184.621 119.575L178.44 119.671L178.563 127.557L184.744 127.46L184.621 119.575Z" fill="#C78982"/>
<path d="M188.425 109.899L191.351 109.927C194.549 109.958 197.116 112.583 197.086 115.792L196.949 130.317L178.34 130.14L178.438 119.735C178.489 114.251 182.961 109.848 188.425 109.899Z" fill="#C78982"/>
<path opacity="0.1" d="M178.556 121.242L179.972 121.255C180.137 121.257 180.294 121.324 180.409 121.441L180.993 122.039C181.38 122.435 181.098 123.102 180.545 123.097L178.831 123.081" fill="#002652"/>
<path d="M186.218 123.484L186.197 125.684C186.178 127.713 184.958 129.535 183.094 130.32C183.109 128.728 181.836 127.426 180.249 127.411L178.365 127.393L178.309 133.29C178.295 134.752 179.753 135.77 181.115 135.248L186.51 133.181C187.305 132.877 187.833 132.115 187.841 131.262L187.93 121.799C186.994 121.789 186.227 122.544 186.218 123.484Z" fill="#002652"/>
<path d="M180.499 130.698L179.072 131.014C178.693 131.098 178.333 130.806 178.337 130.416L178.353 128.688L179.718 128.701C180.449 128.708 181.036 129.308 181.029 130.042C181.026 130.357 180.807 130.629 180.499 130.698Z" fill="#C78982"/>
<path d="M181.187 111.343L181.125 117.927C181.113 119.207 182.137 120.254 183.413 120.266L185.741 120.288C186.973 120.3 187.963 121.312 187.951 122.549L187.9 128.039C187.889 129.152 188.781 130.064 189.89 130.074C190.423 130.079 190.936 129.871 191.317 129.497L199.251 121.683C199.691 121.25 199.698 120.541 199.266 120.1L193.309 112.722C191.51 110.494 188.59 109.51 185.816 110.197L181.187 111.343Z" fill="#002652"/>
<path d="M187.942 109.89L194.488 109.952C197.895 109.985 200.631 112.782 200.599 116.201L200.494 127.332C200.489 127.82 200.146 128.239 199.67 128.338L187.745 130.819L187.942 109.89Z" fill="#002652"/>
<path d="M191.673 119.575L191.481 119.573C190.015 119.559 188.815 120.74 188.801 122.212L188.753 127.347L190.89 126.064C191.763 125.54 192.356 124.65 192.505 123.639L192.892 121.006C193.002 120.257 192.427 119.582 191.673 119.575Z" fill="#C78982"/>
<path d="M162.191 155.414L154.718 156.209C154.378 156.245 154.077 156.445 153.911 156.745L152.192 159.85C152.005 160.187 152.017 160.6 152.223 160.926L154.615 164.716C154.804 165.016 155.237 165.021 155.433 164.726L155.732 164.278C156.103 163.719 156.138 163.001 155.823 162.409L155.016 160.892L156.168 158.91L157.64 158.856L159.615 162.212C159.983 162.836 160.624 163.248 161.343 163.32L168.349 164.031L168.678 156.927L162.943 155.468C162.698 155.406 162.443 155.388 162.191 155.414Z" fill="#C78982"/>
<path d="M228.377 175.709L237.581 174.291L239.948 179.322L228.377 175.709Z" fill="#2888FF"/>
</g>
<defs>
<clipPath id="clip0_1066_13733">
<rect width="49.395" height="90.465" fill="white" transform="translate(109.325 178.71)"/>
</clipPath>
<clipPath id="clip1_1066_13733">
<rect width="62.715" height="109.89" fill="white" transform="translate(149.285 159.84)"/>
</clipPath>
<clipPath id="clip2_1066_13733">
<rect width="61.605" height="138.75" fill="white" transform="translate(306.905 129.87)"/>
</clipPath>
<clipPath id="clip3_1066_13733">
<rect width="51.06" height="166.5" fill="white" transform="translate(359.075 101.01)"/>
</clipPath>
<clipPath id="clip4_1066_13733">
<rect width="59.385" height="166.5" fill="white" transform="translate(257.51 102.12)"/>
</clipPath>
<clipPath id="clip5_1066_13733">
<rect width="238.65" height="8.88" fill="white" transform="translate(81.575 289.155)"/>
</clipPath>
<clipPath id="clip6_1066_13733">
<rect width="245.865" height="166.5" fill="white" transform="translate(73.25 123.21)"/>
</clipPath>
<clipPath id="clip7_1066_13733">
<rect width="89.355" height="142.08" fill="white" transform="translate(152.06 109.89)"/>
</clipPath>
</defs>
</svg>
