<svg width="390" height="332" viewBox="0 0 390 332" fill="none" xmlns="http://www.w3.org/2000/svg">
<g clip-path="url(#clip0_1066_14005)">
<path d="M337.973 269.891C337.973 276.424 333.156 281.769 327.267 281.769H62.8375C56.8959 281.769 52.1318 276.424 52.1318 269.891H337.973Z" fill="#EFF0F2"/>
</g>
<g clip-path="url(#clip1_1066_14005)">
<path d="M39.2905 49.9331H197.442V238.466H39.2905V49.9331Z" fill="#DDDEE3"/>
<path d="M200.894 241.275H35.8381V47.124H200.894V241.275ZM45.5795 233.35H191.153V55.0493H45.5795V233.35Z" fill="#F3F4F6"/>
<path d="M39.2905 108.77H197.442V116.695H39.2905V108.77Z" fill="#F3F4F6"/>
<path d="M39.2905 170.416H197.442V178.341H39.2905V170.416Z" fill="#F3F4F6"/>
<path d="M131.377 71.3199H182.652V108.77H131.377V71.3199Z" fill="#F6F6F8"/>
<path d="M132.616 72.2249H181.414V107.866H132.616V72.2249Z" fill="#F6F6F8"/>
<path d="M131.377 74.6199H138.881V77.888H131.377V74.6199Z" fill="#EDEEF0"/>
<path d="M164.519 100.341H169.791V104.63H164.519V100.341Z" fill="#EDEEF0"/>
<path d="M172.187 100.341H177.459V104.63H172.187V100.341Z" fill="#EDEEF0"/>
<path d="M153.404 71.3199H160.626V83.071H153.404V71.3199Z" fill="#EDEEF0"/>
<path d="M58.4529 195.9H109.728V233.35H58.4529V195.9Z" fill="#F6F6F8"/>
<path d="M59.6919 196.804H108.49V232.445H59.6919V196.804Z" fill="#F6F6F8"/>
<path d="M58.4529 199.2H65.9573V202.468H58.4529V199.2Z" fill="#EDEEF0"/>
<path opacity="0.64" d="M91.5947 199.2H104.535V207.651H91.5947V199.2Z" fill="#FAFAFA"/>
<path d="M99.2632 224.92H104.535V229.209H99.2632V224.92Z" fill="#EDEEF0"/>
<path d="M80.4802 195.9H87.7021V207.651H80.4802V195.9Z" fill="#EDEEF0"/>
<path d="M114.001 183.66H182.034V233.35H114.001V183.66Z" fill="#F6F6F8"/>
<path d="M115.644 184.86H180.391V232.149H115.644V184.86Z" fill="#F6F6F8"/>
<path d="M114.001 188.038H123.958V192.374H114.001V188.038Z" fill="#EDEEF0"/>
<path opacity="0.64" d="M157.974 188.038H175.144V199.252H157.974V188.038Z" fill="#FAFAFA"/>
<path d="M157.974 222.165H164.969V227.856H157.974V222.165Z" fill="#EAEAEA"/>
<path d="M168.148 222.165H175.143V227.856H168.148V222.165Z" fill="#EAEAEA"/>
<path d="M143.227 183.66H152.809V199.252H143.227V183.66Z" fill="#EAE9E8"/>
<path d="M51.085 132.966H140.174V170.416H51.085V132.966Z" fill="#F6F6F8"/>
<path d="M52.3235 133.87H138.935V169.511H52.3235V133.87Z" fill="#F6F6F8"/>
<path d="M51.085 136.266H58.5894V139.534H51.085V136.266Z" fill="#EDEEF0"/>
<path opacity="0.64" d="M122.04 136.266H134.981V144.717H122.04V136.266Z" fill="#EDEEF0"/>
<path d="M92.0183 132.966H99.2402V144.717H92.0183V132.966Z" fill="#EAE9E8"/>
<path d="M65.4375 65.8828H124.158V108.77H65.4375V65.8828Z" fill="#F6F6F8"/>
<path d="M66.856 66.9185H122.739V107.734H66.856V66.9185Z" fill="#F6F6F8"/>
<path d="M65.4375 69.6613H74.0315V73.4038H65.4375V69.6613Z" fill="#EDEEF0"/>
<path d="M103.391 99.1167H109.429V104.028H103.391V99.1167Z" fill="#EDEEF0"/>
<path d="M90.6624 65.8828H98.9331V79.3405H90.6624V65.8828Z" fill="#EDEEF0"/>
<path d="M145.311 123.336H186.604V170.416H145.311V123.336Z" fill="#F5F5F5"/>
<path d="M146.308 124.065H185.607V169.687H146.308V124.065Z" fill="#F5F5F5"/>
<path d="M145.311 125.993H151.354V128.625H145.311V125.993Z" fill="#EAEAEA"/>
<path opacity="0.64" d="M172.001 125.993H182.422V132.799H172.001V125.993Z" fill="#FAFAFA"/>
<path d="M172.001 163.627H176.246V167.081H172.001V163.627Z" fill="#EAEAEA"/>
<path d="M163.049 123.336H168.865V132.8H163.049V123.336Z" fill="#EAE9E8"/>
<path d="M194.606 49.9331H352.757V238.466H194.606V49.9331Z" fill="#DDDEE3"/>
<path d="M356.209 241.275H191.153V47.124H356.209V241.275ZM200.894 233.35H346.468V55.0493H200.894V233.35Z" fill="#F3F4F6"/>
<path d="M194.606 108.77H352.757V116.695H194.606V108.77Z" fill="#F3F4F6"/>
<path d="M194.606 170.416H352.757V178.341H194.606V170.416Z" fill="#F3F4F6"/>
<path d="M200.758 189.316H305.51V233.35H200.758V189.316Z" fill="#F6F6F8"/>
<path d="M202.215 190.379H304.054V232.286H202.215V190.379Z" fill="#F6F6F8"/>
<path d="M200.758 193.196H209.582V197.038H200.758V193.196Z" fill="#EAEAEA"/>
<path opacity="0.64" d="M284.188 193.196H299.403V203.133H284.188V193.196Z" fill="#FAFAFA"/>
<path d="M284.188 223.438H290.387V228.482H284.188V223.438Z" fill="#EAEAEA"/>
<path d="M248.888 189.316H257.38V203.133H248.888V189.316Z" fill="#EAE9E8"/>
<path d="M263.314 127.528H322.034V170.416H263.314V127.528Z" fill="#F6F6F8"/>
<path d="M264.732 128.565H320.616V169.38H264.732V128.565Z" fill="#F6F6F8"/>
<path d="M263.314 131.307H271.908V135.05H263.314V131.307Z" fill="#EDEEF0"/>
<path d="M310.049 160.762H316.087V165.674H310.049V160.762Z" fill="#EDEEF0"/>
<path d="M288.539 127.528H296.81V140.986H288.539V127.528Z" fill="#EDEEF0"/>
<path d="M228.496 61.8965H292.674V108.77H228.496V61.8965Z" fill="#F6F6F8"/>
<path d="M230.046 63.0287H291.124V107.638H230.046V63.0287Z" fill="#F6F6F8"/>
<path d="M228.496 66.0267H237.889V70.1169H228.496V66.0267Z" fill="#EDEEF0"/>
<path d="M269.978 98.2192H276.576V103.588H269.978V98.2192Z" fill="#EDEEF0"/>
<path d="M256.066 61.8965H265.105V76.6051H256.066V61.8965Z" fill="#EDEEF0"/>
<path d="M212.439 146.135H247.227V170.416H212.439V146.135Z" fill="#F6F6F8"/>
<path d="M213.279 146.749H246.386V169.802H213.279V146.749Z" fill="#F6F6F8"/>
<path d="M212.439 148.374H217.531V150.591H212.439V148.374Z" fill="#EAEAEA"/>
<path d="M234.924 164.697H238.501V167.607H234.924V164.697Z" fill="#EDEEF0"/>
<path d="M227.383 146.135H232.283V154.108H227.383V146.135Z" fill="#EAE9E8"/>
<path d="M205.822 122.301H240.61V146.582H205.822V122.301Z" fill="#F6F6F8"/>
<path d="M206.662 122.915H239.769V145.968H206.662V122.915Z" fill="#F6F6F8"/>
<path d="M205.822 124.54H210.913V126.757H205.822V124.54Z" fill="#EDEEF0"/>
<path d="M228.307 140.863H231.883V143.773H228.307V140.863Z" fill="#EAEAEA"/>
<path d="M233.509 140.863H237.086V143.773H233.509V140.863Z" fill="#EDEEF0"/>
<path d="M220.765 122.301H225.665V130.274H220.765V122.301Z" fill="#EDEEF0"/>
</g>
<g clip-path="url(#clip2_1066_14005)">
<path d="M173.587 135.636H238.575V193.797H173.587V135.636Z" fill="#68ABFF"/>
<path d="M175.157 137.041H237.005V192.392H175.157V137.041Z" fill="#93C3FF"/>
<path d="M173.587 140.761H183.098V145.836H173.587V140.761Z" fill="#D4E7FF"/>
<path d="M216.168 139.854H232.57V152.979H216.168V139.854Z" fill="#D4E7FF"/>
<path d="M217.608 147.363H227.988V147.972H217.608V147.363Z" fill="#2888FF"/>
<path d="M217.608 149.033H229.104V149.642H217.608V149.033Z" fill="#2888FF"/>
<path d="M217.608 141.91H219.349V143.645H217.608V141.91Z" fill="#2888FF"/>
<path d="M201.504 135.636H210.658V153.886H201.504V135.636Z" fill="#2888FF"/>
<path d="M135.992 162.549H169.624V193.797H135.992V162.549Z" fill="#68ABFF"/>
<path d="M136.804 163.276H168.812V193.07H136.804V163.276Z" fill="#93C3FF"/>
<path d="M135.992 165.2H140.914V167.827H135.992V165.2Z" fill="#D4E7FF"/>
<path d="M158.068 179.285L165.9 182.546L163.274 188.813L155.442 185.552L158.068 179.285Z" fill="#D4E7FF"/>
<path d="M157.587 182.359L163.61 184.867L163.488 185.158L157.465 182.65L157.587 182.359Z" fill="#2888FF"/>
<path d="M157.253 183.157L162.21 185.22L162.088 185.511L157.131 183.447L157.253 183.157Z" fill="#2888FF"/>
<path d="M156.919 183.954L162.408 186.24L162.287 186.531L156.797 184.245L156.919 183.954Z" fill="#2888FF"/>
<path d="M158.344 180.552L159.176 180.899L158.828 181.728L157.997 181.381L158.344 180.552Z" fill="#2888FF"/>
<path d="M159.56 181.059L160.391 181.405L160.044 182.234L159.213 181.888L159.56 181.059Z" fill="#2888FF"/>
<path d="M150.439 162.549H155.176V171.993H150.439V162.549Z" fill="#93C3FF"/>
<path d="M132.615 193.724H207.115V271.272H132.615V193.724Z" fill="#68ABFF"/>
<path d="M134.415 195.335H205.316V269.661H134.415V195.335Z" fill="#93C3FF"/>
<path d="M132.615 199.599H143.519V205.417H132.615V199.599Z" fill="#D4E7FF"/>
<path d="M178.185 220.363H200.442V238.174H178.185V220.363Z" fill="#D4E7FF"/>
<path d="M180.138 228.288H197.255V229.113H180.138V228.288Z" fill="#2888FF"/>
<path d="M180.138 230.554H194.224V231.379H180.138V230.554Z" fill="#2888FF"/>
<path d="M180.138 223.153H182.501V225.508H180.138V223.153Z" fill="#2888FF"/>
<path d="M183.593 223.153H185.955V225.508H183.593V223.153Z" fill="#2888FF"/>
<path d="M170.954 234.178L191.234 225.039L198.594 241.269L178.313 250.408L170.954 234.178Z" fill="#D4E7FF"/>
<path d="M176.009 240.597L191.605 233.569L191.946 234.321L176.35 241.349L176.009 240.597Z" fill="#2888FF"/>
<path d="M177.88 244.724L185.678 241.21L186.019 241.962L178.221 245.476L177.88 244.724Z" fill="#2888FF"/>
<path d="M176.944 242.662L189.78 236.878L190.121 237.63L177.285 243.414L176.944 242.662Z" fill="#2888FF"/>
<path d="M173.886 235.918L176.039 234.948L177.012 237.094L174.859 238.064L173.886 235.918Z" fill="#2888FF"/>
<path d="M164.618 193.724H175.111V214.646H164.618V193.724Z" fill="#2888FF"/>
<path d="M207.115 193.724H271.938V271.272H207.115V193.724Z" fill="#68ABFF"/>
<path d="M208.681 195.126H270.373V269.87H208.681V195.126Z" fill="#93C3FF"/>
<path d="M262.451 198.836H271.938V203.898H262.451V198.836Z" fill="#D4E7FF"/>
<path d="M213.681 198.836H230.041V211.928H213.681V198.836Z" fill="#D4E7FF"/>
<path d="M215.116 204.661H227.698V205.268H215.116V204.661Z" fill="#2888FF"/>
<path d="M215.116 206.327H225.47V206.934H215.116V206.327Z" fill="#2888FF"/>
<path d="M215.116 207.992H226.584V208.599H215.116V207.992Z" fill="#2888FF"/>
<path d="M215.116 200.886H216.853V202.617H215.116V200.886Z" fill="#2888FF"/>
<path d="M217.656 200.886H219.392V202.617H217.656V200.886Z" fill="#2888FF"/>
<path d="M234.962 193.724H244.092V211.928H234.962V193.724Z" fill="#2888FF"/>
<path d="M260.713 260.89H267.508V267.664H260.713V260.89Z" fill="#93C3FF"/>
<path d="M251.186 144.987H305.725V193.797H251.186V144.987Z" fill="#68ABFF"/>
<path d="M252.503 146.166H304.407V192.618H252.503V146.166Z" fill="#93C3FF"/>
<path d="M251.185 149.288H259.167V153.547H251.185V149.288Z" fill="#D4E7FF"/>
<path d="M253.659 162.019L266.739 157.746L270.18 168.214L257.1 172.487L253.659 162.019Z" fill="#D4E7FF"/>
<path d="M256.338 166.301L266.397 163.015L266.557 163.5L256.497 166.786L256.338 166.301Z" fill="#2888FF"/>
<path d="M256.775 167.633L265.054 164.929L265.213 165.414L256.935 168.118L256.775 167.633Z" fill="#2888FF"/>
<path d="M255.346 163.284L256.734 162.83L257.189 164.214L255.801 164.667L255.346 163.284Z" fill="#2888FF"/>
<path d="M257.376 162.62L258.764 162.167L259.219 163.551L257.831 164.004L257.376 162.62Z" fill="#2888FF"/>
<path d="M274.614 144.987H282.296V160.303H274.614V144.987Z" fill="#2888FF"/>
<path d="M271.793 193.724H319.926V239.665H271.793V193.724Z" fill="#68ABFF"/>
<path d="M272.956 194.765H318.763V238.624H272.956V194.765Z" fill="#93C3FF"/>
<path d="M312.881 197.52H319.926V201.278H312.881V197.52Z" fill="#D4E7FF"/>
<path d="M304.284 213.804L315.139 219.241L310.76 227.927L299.906 222.49L304.284 213.804Z" fill="#D4E7FF"/>
<path d="M303.288 218.146L311.636 222.327L311.433 222.73L303.085 218.548L303.288 218.146Z" fill="#2888FF"/>
<path d="M302.731 219.251L309.601 222.692L309.398 223.095L302.528 219.654L302.731 219.251Z" fill="#2888FF"/>
<path d="M302.174 220.356L309.783 224.168L309.58 224.57L301.971 220.759L302.174 220.356Z" fill="#2888FF"/>
<path d="M304.551 215.641L305.703 216.219L305.124 217.368L303.972 216.79L304.551 215.641Z" fill="#2888FF"/>
<path d="M306.236 216.485L307.388 217.063L306.809 218.212L305.657 217.634L306.236 216.485Z" fill="#2888FF"/>
<path d="M292.469 193.724H299.248V207.241H292.469V193.724Z" fill="#2888FF"/>
<path d="M279.287 239.68H327.42V271.239H279.287V239.68Z" fill="#68ABFF"/>
<path d="M280.188 240.486H326.519V270.432H280.188V240.486Z" fill="#93C3FF"/>
<path d="M321.961 242.621H327.42V245.534H321.961V242.621Z" fill="#D4E7FF"/>
<path d="M288.706 254.287H298.118V261.819H288.706V254.287Z" fill="#D4E7FF"/>
<path d="M290.053 257.639H297.292V257.988H290.053V257.639Z" fill="#2888FF"/>
<path d="M291.335 258.597H297.292V258.946H291.335V258.597Z" fill="#2888FF"/>
<path d="M290.695 259.555H297.293V259.904H290.695V259.555Z" fill="#2888FF"/>
<path d="M296.293 255.467H297.293V256.463H296.293V255.467Z" fill="#2888FF"/>
<path d="M294.832 255.467H295.831V256.463H294.832V255.467Z" fill="#2888FF"/>
<path d="M300.743 239.68H305.996V250.154H300.743V239.68Z" fill="#2888FF"/>
<path d="M185.975 260.12H192.77V266.894H185.975V260.12Z" fill="#93C3FF"/>
<path d="M195.859 260.12H202.654V266.894H195.859V260.12Z" fill="#93C3FF"/>
</g>
<g clip-path="url(#clip3_1066_14005)">
<path d="M158.248 242.116L160.577 262.474L161.372 269.41L161.806 273.198L161.934 274.319L162.348 277.942L162.553 279.729L162.866 282.447L162.883 282.602C162.883 282.602 161.014 282.654 158.849 282.714C157.894 282.741 156.882 282.77 155.949 282.799C155.421 282.813 154.922 282.83 154.468 282.844C153.304 282.879 152.465 282.908 152.359 282.918L152.259 282.581L151.978 281.627L149.757 274.128L147.269 265.717L136.873 239.685L132.528 216.079L148.055 215.613L157.176 238.338C157.744 239.605 158.106 240.882 158.248 242.116Z" fill="#C78982"/>
<path d="M158.923 264.522H146.789L136.875 239.685L132.529 216.077L148.057 215.612L157.175 238.335C157.746 239.605 158.109 240.879 158.247 242.114L162.752 259.606C163.393 262.097 161.505 264.522 158.923 264.522Z" fill="#013B84"/>
<path d="M110.747 136.979L104.285 128.116L104.813 128.766C104.864 128.827 104.919 128.885 104.981 128.939C105.606 129.496 106.566 129.441 107.126 128.82L107.151 128.806C107.499 128.414 107.661 127.891 107.594 127.371L107.263 124.885C107.173 124.259 107.255 123.616 107.5 123.032C107.681 122.638 107.928 122.285 108.232 122.065C108.394 121.947 108.571 121.866 108.766 121.837C108.793 121.833 108.819 121.83 108.845 121.831C109.177 121.832 109.446 122.1 109.445 122.431L110.173 130.109L110.747 131.858C111.105 132.929 111.2 134.069 111.026 135.184L110.759 136.862C110.754 136.901 110.75 136.939 110.747 136.979Z" fill="#C78982"/>
<path d="M110.579 139.963C112.126 138.462 110.774 138.389 110.826 136.85L110.766 136.52L102.319 124.15L102.218 123.512L101.289 124.396C101.027 124.646 100.94 125.028 101.071 125.366L101.315 126L100.902 126.484C100.696 126.725 100.633 127.057 100.736 127.357L101.116 128.455L100.37 130.14C100.111 130.726 100.076 131.387 100.279 131.996L101.753 137.545L109.12 148.719L112.743 144.605L110.579 139.963Z" fill="#C78982"/>
<path d="M105.615 144.413L118.299 163.637C119.651 165.686 121.626 167.25 123.934 168.101L129.304 170.079L138.86 161.575L126.296 152.549L111.682 138.962L105.615 144.413Z" fill="#2888FF"/>
<path d="M145.516 103.157L145.442 115.862C145.48 117.365 146.976 118.394 148.4 117.898L161.602 113.29L145.516 103.157Z" fill="#C78982"/>
<path d="M146.556 110.877L144.297 110.823C143.357 110.801 142.893 109.673 143.548 108.999L146.414 106.054L146.556 110.877Z" fill="#C78982"/>
<path d="M152.982 95.2399L153.272 95.2324C154.5 95.202 155.52 96.1684 155.551 97.3911L155.744 105.082L145.452 105.339L145.398 103.185C145.29 98.9043 148.685 95.3472 152.982 95.2399Z" fill="#C78982"/>
<path d="M203.543 124.049H172.487V143.19L155.795 142.122L152.74 141.926L140.815 141.163L137.754 140.967L135.645 140.829L139.858 131.601C140.538 130.114 141.737 128.931 143.236 128.276L146.579 126.806H146.585L151.951 124.451L151.956 124.446L168.764 117.049L172.971 115.2L174.216 114.654C175.807 113.954 177.606 113.902 179.237 114.511L203.626 123.593C203.873 123.685 203.806 124.049 203.543 124.049Z" fill="#2888FF"/>
<path d="M164.841 105.357H152.817V129.07C152.817 129.645 153.515 129.933 153.924 129.525L164.841 118.607V105.357H164.841Z" fill="#C78982"/>
<path d="M145.396 103.875L151.848 103.714L152.054 111.886L145.602 112.047L145.396 103.875Z" fill="#C78982"/>
<path d="M155.725 93.6468H158.78C162.118 93.6468 164.824 96.343 164.824 99.6692V114.725H145.396V103.938C145.396 98.2548 150.02 93.6468 155.725 93.6468Z" fill="#C78982"/>
<path d="M147.973 144.231L138.446 166.064L126.863 161.047L136.39 139.213L147.973 144.231Z" fill="#2888FF"/>
<path opacity="0.1" d="M152.874 116.255L153.045 116.185C154.078 115.761 155.051 116.901 154.466 117.848L152.939 120.323" fill="#002652"/>
<path opacity="0.1" d="M145.436 105.5H146.914C147.086 105.5 147.251 105.568 147.372 105.689L147.988 106.302C148.396 106.709 148.107 107.403 147.53 107.403H145.42" fill="#002652"/>
<path d="M153.555 107.747V110.028C153.555 112.131 152.299 114.032 150.36 114.864C150.36 113.215 149.018 111.877 147.363 111.877H145.396V116.035C145.396 117.55 146.927 118.591 148.343 118.037L153.955 115.842C154.782 115.518 155.325 114.724 155.325 113.84V105.984C154.347 105.984 153.555 106.774 153.555 107.747Z" fill="#002652"/>
<path d="M147.655 115.281L146.168 115.622C145.773 115.713 145.396 115.414 145.396 115.01V113.219H146.82C147.583 113.219 148.202 113.835 148.202 114.596C148.201 114.923 147.975 115.207 147.655 115.281Z" fill="#C78982"/>
<path d="M126.672 165.734L126.651 176.047L134.931 232.105C134.931 232.105 150.926 226.451 150.901 226.149L148.699 165.627L126.672 165.734Z" fill="#013B84"/>
<path d="M146.519 269.019L148.031 274.129L150.252 281.627L150.533 282.582L150.632 282.917C150.738 282.909 151.577 282.879 152.741 282.844C153.196 282.829 153.695 282.814 154.224 282.799C155.156 282.769 156.169 282.741 157.123 282.713C159.289 282.652 161.155 282.603 161.155 282.603L161.14 282.446L160.827 279.73L160.622 277.943L160.208 274.319L160.078 273.198L159.644 269.411L159.599 269.019H146.519V269.019Z" fill="#ED956E"/>
<path d="M137.709 286.587L135.173 285.083C134.474 284.667 133.988 283.958 133.88 283.197C133.722 282.078 134.414 281.128 135.504 280.97L140.312 280.271C143.351 279.83 145.858 278.069 147.182 275.444L148.768 272.301L150.877 273.484C151.386 273.768 151.648 274.358 151.487 274.854L151.025 276.274L153.917 277.405C155.876 278.171 157.954 277.819 159.27 276.496L161.301 274.455C161.656 274.097 162.335 274.365 162.44 274.905L164.214 284.091L163.964 286.253L137.709 286.587Z" fill="#93C3FF"/>
<path d="M165.01 284.695L164.709 285.604C164.166 287.24 162.662 288.283 160.847 288.283H141.554C141.183 288.283 140.805 288.188 140.456 288.007L135.846 285.612H151.732C152.013 285.612 152.268 285.502 152.442 285.307C153.316 284.325 154.596 283.775 156.009 283.775H164.294C164.77 283.775 165.153 284.267 165.01 284.695Z" fill="#2888FF"/>
<path d="M152.799 260.638L156.374 267.017L159.866 270.165L149.889 278.035L143.071 267.68L152.799 260.638Z" fill="#C78982"/>
<path d="M163.865 274.29L157.225 280.499L148.82 288.358C148.326 288.372 145.474 288.156 145.474 288.156L145.535 287.272L146.005 280.323L146.534 272.529L146.886 272.46C147.425 272.355 147.957 272.67 148.123 273.191L148.595 274.684L151.378 273.679C153.263 273.002 154.595 271.309 154.807 269.324L155.135 266.257C155.19 265.721 155.847 265.487 156.233 265.865L159.959 269.524L162.582 272.101L162.809 272.322L163.865 274.29Z" fill="#93C3FF"/>
<path d="M156.985 277.887L155.476 283.939L144.976 286.582L137.704 286.675H137.686L137.574 286.602L136.18 285.698L135.363 285.169C134.722 284.754 134.336 284.044 134.336 283.283C134.336 282.724 134.543 282.207 134.888 281.809C135.234 281.414 135.72 281.136 136.274 281.056L141.181 280.358C142.739 280.136 144.214 279.579 145.507 278.748C146.785 277.927 147.891 276.834 148.732 275.531L152.702 273.571C153.171 273.855 153.35 274.445 153.119 274.942L152.458 276.361L155.192 277.493C155.772 277.734 156.381 277.865 156.985 277.887Z" fill="#93C3FF"/>
<path d="M151.041 285.698V288.37H141.029C140.658 288.37 140.293 288.275 139.969 288.095L137.439 286.675L137.309 286.602L135.699 285.698H151.041Z" fill="#2888FF"/>
<path d="M162.73 278.078L156.388 283.857L151.537 288.279C150.643 288.304 149.695 288.33 148.821 288.358C148.326 288.371 147.858 288.386 147.433 288.399L154.473 281.98C154.68 281.791 154.805 281.529 154.823 281.249C154.864 280.548 155.041 279.867 155.339 279.243C155.637 278.619 156.053 278.051 156.575 277.576L158.359 275.95L162.584 272.1L162.69 272.003C163.04 271.685 163.605 271.838 163.746 272.289L164.044 273.248C164.58 274.976 164.068 276.856 162.73 278.078Z" fill="#2888FF"/>
<path d="M135.049 173.356L118.148 229.191C117.162 232.447 117.676 235.972 119.55 238.814L138.845 268.072C140.144 270.042 142.857 270.481 144.715 269.022L153.679 261.983L152.384 259.688L141.308 235.415C141.07 234.875 140.789 234.355 140.466 233.861L136.344 227.554L155.549 197.301C158.61 192.48 159.76 186.696 158.777 181.077L156.095 165.756L137.31 165.71L135.049 173.356Z" fill="#013B84"/>
<path d="M171.432 135.849H199.311C203.242 135.849 206.429 132.674 206.429 128.757V127.69C206.429 125.246 204.441 123.265 201.989 123.265H171.432V135.849Z" fill="#2888FF"/>
<path d="M126.666 165.737H144.058C147.424 165.737 150.718 166.716 153.533 168.555L156.849 170.719L166.998 158.918C170.853 154.437 173.992 149.39 176.303 143.955L184.536 124.597L139.332 139.258L126.666 165.737Z" fill="#2888FF"/>
<path d="M179.753 150.235C180.327 150.219 180.864 149.747 181.018 149.059L182.51 138.47L179.561 136.521L179.411 149.839C179.393 150.04 179.543 150.216 179.744 150.234C179.747 150.235 179.75 150.235 179.753 150.235Z" fill="#C78982"/>
<path d="M181.702 146.87C182.269 146.957 182.883 146.59 183.159 145.942L186.553 135.797L184.006 133.348L181.437 146.419C181.383 146.613 181.498 146.814 181.693 146.867C181.696 146.868 181.699 146.869 181.702 146.87Z" fill="#C78982"/>
<path d="M183.926 145.288C184.496 145.354 185.096 144.963 185.346 144.305L188.345 134.038L185.707 131.688L183.644 144.848C183.598 145.044 183.72 145.24 183.917 145.286C183.92 145.286 183.923 145.287 183.926 145.288Z" fill="#C78982"/>
<path d="M186.178 142.76C186.748 142.826 187.347 142.436 187.598 141.778L190.394 132.204C190.518 131.78 190.387 131.323 190.056 131.029L187.958 129.161L185.895 142.32C185.849 142.517 185.971 142.712 186.168 142.758C186.171 142.759 186.174 142.76 186.178 142.76Z" fill="#C78982"/>
<path d="M187.001 136.077H183.663C181.722 136.077 180.133 134.495 180.133 132.56V129.618C180.133 127.683 181.722 126.101 183.663 126.101H184.495C187.815 126.101 190.531 128.807 190.531 132.114V132.559C190.532 134.494 188.943 136.077 187.001 136.077Z" fill="#C78982"/>
<path d="M181.104 127.304V136.741L181.066 136.022C181.062 135.954 181.053 135.885 181.037 135.817C180.884 135.113 180.415 134.804 179.709 134.955L179.456 134.815C179.015 134.912 178.863 135.333 178.645 135.729L177.613 137.628C177.358 138.111 176.974 138.517 176.505 138.801C176.179 138.984 175.6 138.968 175.276 138.968C175.103 138.968 174.939 138.935 174.788 138.857C174.768 138.846 174.748 138.835 174.731 138.822C174.499 138.654 174.449 138.331 174.618 138.101L178.012 132.381L178.5 130.872C178.795 129.945 179.308 129.103 179.996 128.413L181.035 127.378C181.059 127.354 181.081 127.33 181.104 127.304Z" fill="#C78982"/>
<path d="M188.756 133.992C188.756 137.086 186.427 139.595 183.554 139.595C183.395 139.595 183.237 139.587 183.081 139.572C182.984 139.563 182.784 139.631 182.793 139.535C182.821 139.236 182.433 139.19 182.377 139.451C182.358 139.536 182.209 139.406 182.126 139.381C181.204 139.097 180.387 138.548 179.751 137.815C179.683 137.735 179.551 137.676 179.551 137.57C179.555 135.821 178.935 135.284 178.601 135.813C178.523 135.936 178.552 135.54 178.517 135.396C178.41 134.947 178.353 134.477 178.353 133.992C178.353 130.897 180.682 128.388 183.554 128.388C186.427 128.388 188.756 130.897 188.756 133.992Z" fill="#C78982"/>
<path d="M172.764 116.521L161.49 131.538C159.801 133.789 158.366 136.241 157.236 138.82L155.795 142.122L144.533 167.883C144.296 168.423 143.766 168.745 143.207 168.745C143.017 168.745 142.821 168.705 142.636 168.624C141.904 168.308 141.57 167.458 141.887 166.735L152.74 141.926L154.596 137.677C155.812 134.891 157.357 132.244 159.184 129.815L168.764 117.049L172.971 115.2C173.121 115.63 173.058 116.13 172.764 116.521Z" fill="#013B84"/>
<path d="M151.951 124.451L145.334 133.261C143.645 135.512 142.215 137.964 141.086 140.542L140.815 141.163L129.73 165.97L126.672 165.778L137.754 140.968L138.44 139.4C139.662 136.615 141.201 133.967 143.028 131.538L146.579 126.806H146.584L151.951 124.451Z" fill="#013B84"/>
<path d="M102.391 126.754L105.817 121.533C106.134 120.955 106.048 120.292 105.653 119.928C105.651 119.927 105.649 119.925 105.646 119.923C105.493 119.812 105.279 119.844 105.167 119.997L101.998 123.69L102.391 126.754Z" fill="#C78982"/>
<path d="M102.468 127.355L106.607 124.281C107.104 123.847 107.252 123.195 107.007 122.718C107.005 122.716 107.004 122.713 107.002 122.711C106.897 122.554 106.685 122.511 106.527 122.615L102.173 125.055L102.468 127.355Z" fill="#C78982"/>
<path d="M102.752 129.559L106.355 126.883C106.852 126.448 107 125.796 106.755 125.32C106.753 125.317 106.752 125.314 106.75 125.312C106.646 125.155 106.433 125.112 106.276 125.217L102.469 127.35L102.752 129.559Z" fill="#C78982"/>
<path d="M102.848 131.872L100.728 131.174L102.128 126.95L104.247 127.647L102.848 131.872Z" fill="#C78982"/>
<path d="M105.23 136.839L102.462 137.652L100.415 130.731L103.183 129.918L105.23 136.839Z" fill="#C78982"/>
</g>
<g clip-path="url(#clip4_1066_14005)">
<path d="M155.312 92.2656H156.48C161.384 92.2656 165.36 96.1843 165.36 101.018V103.577C165.36 103.89 165.102 104.144 164.784 104.144H145.309C144.991 104.144 144.734 103.89 144.734 103.577V102.692C144.734 96.9336 149.469 92.2656 155.312 92.2656V92.2656Z" fill="#016EEA"/>
<path d="M156.352 102.779H139.808C139.054 102.779 138.442 103.382 138.442 104.125H156.352V102.779Z" fill="#016EEA"/>
</g>
<g clip-path="url(#clip5_1066_14005)">
<path d="M105.344 131.616L102.364 118.283C102.277 117.895 102.348 117.488 102.561 117.153C102.775 116.817 103.112 116.579 103.501 116.492C103.889 116.406 104.296 116.477 104.632 116.69C104.968 116.903 105.205 117.241 105.292 117.629L108.272 130.962C108.358 131.35 108.287 131.757 108.074 132.093C107.861 132.428 107.523 132.666 107.135 132.753C106.747 132.839 106.34 132.768 106.004 132.555C105.668 132.342 105.431 132.004 105.344 131.616Z" fill="black"/>
</g>
<g clip-path="url(#clip6_1066_14005)">
<path d="M103.14 131.452L103.72 133.435C104.12 134.803 103.343 136.24 101.985 136.644L101.362 136.83L100.893 136.972L100.733 137.017L99.7377 133.23C99.5129 132.545 99.5515 131.801 99.8404 131.142L100.669 129.248L100.246 127.99C100.134 127.658 100.204 127.291 100.431 127.025L100.893 126.482L100.624 125.771C100.476 125.39 100.572 124.956 100.861 124.679L101.657 123.916L101.901 123.683L102.01 124.401L102.466 125.073L103.025 125.9L103.686 126.876L103.815 127.07L104.906 128.679L103.77 129.533L103.14 131.452Z" fill="#C78982"/>
<path d="M102.092 127.376L105.908 121.5C106.262 120.85 106.165 120.103 105.725 119.694C105.722 119.692 105.72 119.69 105.717 119.688C105.547 119.563 105.308 119.6 105.184 119.771L101.654 123.927L102.092 127.376Z" fill="#C78982"/>
<path d="M102.177 128.008L106.787 124.549C107.341 124.059 107.506 123.326 107.233 122.789C107.231 122.787 107.23 122.783 107.228 122.781C107.111 122.604 106.874 122.556 106.699 122.674L101.849 125.419L102.177 128.008Z" fill="#C78982"/>
<path d="M106.505 127.477L104.906 128.679L103.77 129.533L102.492 130.489L102.177 128.007V128.001L102.21 127.981L102.537 127.8L103.815 127.07L106.415 125.603C106.595 125.486 106.832 125.532 106.948 125.706C106.948 125.713 106.948 125.713 106.954 125.719C107.224 126.256 107.063 126.986 106.505 127.477Z" fill="#C78982"/>
<path d="M104.161 128.337L103.77 129.533L103.141 131.452L102.601 133.094L100.239 132.305L100.457 131.64L101.799 127.555L102.133 127.665L102.479 127.781L102.537 127.8L104.161 128.337Z" fill="#C78982"/>
<path d="M101.985 136.644L101.362 136.83L99.8918 131.808L100.457 131.64L102.974 130.89L103.141 131.452L103.72 133.435C104.12 134.804 103.343 136.24 101.985 136.644Z" fill="#C78982"/>
</g>
<defs>
<clipPath id="clip0_1066_14005">
<rect width="285.841" height="11.8785" fill="white" transform="translate(52.1318 269.891)"/>
</clipPath>
<clipPath id="clip1_1066_14005">
<rect width="320.371" height="194.151" fill="white" transform="translate(35.8381 47.124)"/>
</clipPath>
<clipPath id="clip2_1066_14005">
<rect width="194.805" height="135.636" fill="white" transform="translate(132.615 135.636)"/>
</clipPath>
<clipPath id="clip3_1066_14005">
<rect width="106.283" height="194.752" fill="white" transform="translate(100.147 93.6468)"/>
</clipPath>
<clipPath id="clip4_1066_14005">
<rect width="26.9175" height="11.8785" fill="white" transform="translate(138.442 92.2656)"/>
</clipPath>
<clipPath id="clip5_1066_14005">
<rect width="17" height="3" fill="white" transform="translate(104.928 116) rotate(77.4015)"/>
</clipPath>
<clipPath id="clip6_1066_14005">
<rect width="7.77" height="17.4034" fill="white" transform="translate(99.5925 119.614)"/>
</clipPath>
</defs>
</svg>
