<svg width="336" height="333" viewBox="0 0 336 333" fill="none" xmlns="http://www.w3.org/2000/svg">
<g clip-path="url(#clip0_1066_14228)">
<path d="M168.945 132.645H218.895V245.31H168.945V132.645Z" fill="#F8F8F9"/>
</g>
<g clip-path="url(#clip1_1066_14228)">
<path d="M-40.2901 105.45H21.3149V244.2H-40.2901V105.45Z" fill="#F8F8F9"/>
</g>
<g clip-path="url(#clip2_1066_14228)">
<path d="M216.675 133.755H266.625V246.42H216.675V133.755Z" fill="#F8F8F9"/>
</g>
<g clip-path="url(#clip3_1066_14228)">
<path d="M259.41 79.365H310.47V245.865H259.41V79.365Z" fill="#F3F4F6"/>
<path d="M298.26 88.5791H301.59V106.339H298.26V88.5791Z" fill="white"/>
<path d="M288.27 88.5791H291.6V106.339H288.27V88.5791Z" fill="white"/>
<path d="M278.28 88.5791H281.61V106.339H278.28V88.5791Z" fill="white"/>
<path d="M268.29 88.5791H271.62V106.339H268.29V88.5791Z" fill="white"/>
<path d="M298.26 118.234H301.59V125.29H298.26V118.234Z" fill="white"/>
<path d="M288.27 118.234H291.6V125.29H288.27V118.234Z" fill="white"/>
<path d="M278.28 118.234H281.61V125.29H278.28V118.234Z" fill="white"/>
<path d="M268.29 118.234H271.62V125.29H268.29V118.234Z" fill="white"/>
<path d="M298.26 132.503H301.59V139.56H298.26V132.503Z" fill="white"/>
<path d="M288.27 132.503H291.6V139.56H288.27V132.503Z" fill="white"/>
<path d="M278.28 132.503H281.61V139.56H278.28V132.503Z" fill="white"/>
<path d="M268.29 132.503H271.62V139.56H268.29V132.503Z" fill="white"/>
<path d="M298.26 146.773H301.59V153.829H298.26V146.773Z" fill="white"/>
<path d="M288.27 146.773H291.6V153.829H288.27V146.773Z" fill="white"/>
<path d="M278.28 146.773H281.61V153.829H278.28V146.773Z" fill="white"/>
<path d="M268.29 146.773H271.62V153.829H268.29V146.773Z" fill="white"/>
<path d="M298.26 161.043H301.59V168.099H298.26V161.043Z" fill="white"/>
<path d="M288.27 161.043H291.6V168.099H288.27V161.043Z" fill="white"/>
<path d="M278.28 161.043H281.61V168.099H278.28V161.043Z" fill="white"/>
<path d="M268.29 161.043H271.62V168.099H268.29V161.043Z" fill="white"/>
</g>
<g clip-path="url(#clip4_1066_14228)">
<path d="M122.88 137.64H185.595V343.545H122.88V137.64Z" fill="#F3F4F6"/>
<path d="M170.598 149.035H174.688V170.998H170.598V149.035Z" fill="white"/>
<path d="M158.328 149.035H162.418V170.998H158.328V149.035Z" fill="white"/>
<path d="M146.057 149.035H150.147V170.998H146.057V149.035Z" fill="white"/>
<path d="M133.787 149.035H137.877V170.998H133.787V149.035Z" fill="white"/>
<path d="M170.598 185.708H174.688V194.434H170.598V185.708Z" fill="white"/>
<path d="M158.328 185.708H162.418V194.434H158.328V185.708Z" fill="white"/>
<path d="M146.057 185.708H150.147V194.434H146.057V185.708Z" fill="white"/>
<path d="M133.787 185.708H137.877V194.434H133.787V185.708Z" fill="white"/>
<path d="M170.598 203.355H174.688V212.081H170.598V203.355Z" fill="white"/>
<path d="M158.328 203.355H162.418V212.081H158.328V203.355Z" fill="white"/>
<path d="M146.057 203.355H150.147V212.081H146.057V203.355Z" fill="white"/>
<path d="M133.787 203.355H137.877V212.081H133.787V203.355Z" fill="white"/>
<path d="M170.598 221.001H174.688V229.728H170.598V221.001Z" fill="white"/>
<path d="M158.328 221.001H162.418V229.728H158.328V221.001Z" fill="white"/>
<path d="M146.057 221.001H150.147V229.728H146.057V221.001Z" fill="white"/>
<path d="M133.787 221.001H137.877V229.728H133.787V221.001Z" fill="white"/>
<path d="M170.598 238.648H174.688V247.374H170.598V238.648Z" fill="white"/>
<path d="M158.328 238.648H162.418V247.374H158.328V238.648Z" fill="white"/>
<path d="M146.057 238.648H150.147V247.374H146.057V238.648Z" fill="white"/>
<path d="M133.787 238.648H137.877V247.374H133.787V238.648Z" fill="white"/>
</g>
<g clip-path="url(#clip5_1066_14228)">
<path d="M11.325 77.9206H62.385V244.2H11.325V77.9206Z" fill="#F3F4F6"/>
<path d="M16.32 77.7H70.71V81.0256H16.32V77.7Z" fill="#F3F4F6"/>
<path d="M19.095 86.014H56.835V89.8938H19.095V86.014Z" fill="white"/>
<path d="M19.095 99.5935H56.835V103.473H19.095V99.5935Z" fill="white"/>
<path d="M19.095 113.173H56.835V117.053H19.095V113.173Z" fill="white"/>
<path d="M19.095 126.752H56.835V130.632H19.095V126.752Z" fill="white"/>
<path d="M19.095 140.332H56.835V144.212H19.095V140.332Z" fill="white"/>
<path d="M19.095 153.911H56.835V157.791H19.095V153.911Z" fill="white"/>
<path d="M19.095 167.491H56.835V171.371H19.095V167.491Z" fill="white"/>
<path d="M19.095 181.07H56.835V184.95H19.095V181.07Z" fill="white"/>
<path d="M19.095 194.65H56.835V198.53H19.095V194.65Z" fill="white"/>
<path d="M19.095 208.229H56.835V212.109H19.095V208.229Z" fill="white"/>
</g>
<g clip-path="url(#clip6_1066_14228)">
<path d="M73.7371 239.207C71.4936 224.881 59.3046 212.563 42.6693 207.313C41.1592 206.836 41.2608 204.655 42.8071 204.328C48.8708 203.043 59.1863 202.734 68.1628 211.684C79.901 223.388 76.4342 239.269 76.4342 239.269L73.7371 239.207Z" fill="#DDDEE3"/>
<path d="M71.8454 234.358C65.0337 223.584 50.9202 217.934 35.6987 219.555C34.3169 219.702 33.6365 217.906 34.7662 217.097C39.1964 213.924 47.3889 210.04 57.7403 214.103C71.2761 219.416 74.0364 233.459 74.0364 233.459L71.8454 234.358Z" fill="#DDDEE3"/>
<path d="M74.1778 235.257C61.6839 228.737 45.0303 230.748 30.956 240.248C29.6267 241.145 27.967 239.712 28.684 238.273C31.4708 232.677 37.683 224.339 50.3081 222.909C63.8383 221.376 73.1724 229.679 76.0963 232.721C76.6693 233.317 76.7057 234.245 76.1792 234.878C75.689 235.468 74.8589 235.612 74.1778 235.257Z" fill="#DDDEE3"/>
<path d="M74.278 239.252C63.7574 235.483 50.9668 239.246 41.339 248.661C40.4652 249.515 39.0254 248.639 39.3673 247.463C40.7099 242.847 44.2659 235.691 53.6033 232.874C65.8134 229.191 75.304 237.435 75.304 237.435L74.278 239.252Z" fill="#DDDEE3"/>
<path d="M76.434 239.269L72.0573 225.08L57.9685 229.414L74.1392 239.886L76.434 239.269Z" fill="#DDDEE3"/>
</g>
<g clip-path="url(#clip7_1066_14228)">
<path d="M114 125.853C127.618 125.853 138.697 114.804 138.697 101.222C138.697 87.6393 127.618 76.59 114 76.59C100.381 76.59 89.3023 87.6393 89.3023 101.222C89.3023 114.804 100.381 125.853 114 125.853ZM114 81.5717C124.864 81.5717 133.702 90.3864 133.702 101.222C133.702 112.057 124.864 120.871 114 120.871C103.136 120.871 94.2973 112.057 94.2973 101.222C94.2973 90.3864 103.136 81.5717 114 81.5717Z" fill="#BEDBFF"/>
<path d="M107.585 102.578H120.415V138.278H107.585V102.578Z" fill="#7EB8FF"/>
<path d="M122.513 114.754H105.487C104.874 114.754 104.377 114.258 104.377 113.647V100.917C104.377 99.3888 105.62 98.1495 107.152 98.1495H120.848C122.38 98.1495 123.623 99.3888 123.623 100.917V113.647C123.623 114.258 123.126 114.754 122.513 114.754Z" fill="#013B84"/>
<path d="M149.922 156.498L142.858 149.453L168.169 124.209L175.233 131.254L149.922 156.498Z" fill="#BEDBFF"/>
<path d="M164.442 143.973L155.416 134.972C154.983 134.54 154.983 133.839 155.416 133.407L165.619 123.23C166.053 122.798 166.756 122.798 167.189 123.23L176.215 132.232C176.648 132.665 176.648 133.365 176.215 133.798L166.012 143.973C165.578 144.406 164.875 144.406 164.442 143.973Z" fill="#D4E7FF"/>
<path d="M52.7665 131.253L59.8301 124.208L85.1413 149.452L78.0778 156.496L52.7665 131.253Z" fill="#7EB8FF"/>
<path d="M63.5582 143.973L72.5836 134.972C73.0171 134.54 73.0171 133.839 72.5836 133.407L62.3805 123.231C61.947 122.799 61.2444 122.799 60.8109 123.231L51.7855 132.232C51.3521 132.665 51.3521 133.365 51.7855 133.798L61.9886 143.973C62.4215 144.406 63.1247 144.406 63.5582 143.973Z" fill="#93C3FF"/>
<path d="M114 254.745C78.4438 254.745 49.6199 225.998 49.6199 190.537C49.6199 155.076 78.4438 126.329 114 126.329C149.556 126.329 178.38 155.076 178.38 190.537C178.38 225.998 149.556 254.745 114 254.745Z" fill="#2888FF"/>
<path d="M114 249.21C81.5089 249.21 55.1698 222.941 55.1698 190.537C55.1698 158.133 81.5089 131.864 114 131.864C146.491 131.864 172.83 158.133 172.83 190.537C172.83 222.941 146.491 249.21 114 249.21Z" fill="white"/>
<path d="M114 194.213C111.964 194.213 110.314 192.567 110.314 190.537C110.314 188.507 111.964 186.861 114 186.861C116.036 186.861 117.686 188.507 117.686 190.537C117.686 192.567 116.036 194.213 114 194.213Z" fill="#013B84"/>
<path d="M114.982 189.662L74.9606 151.705L113.019 191.619L114.982 189.662Z" fill="#013B84"/>
<path d="M114 171.305C105.493 171.305 98.5976 164.428 98.5976 155.944C98.5976 147.46 105.493 140.583 114 140.583C122.506 140.583 129.402 147.46 129.402 155.944C129.402 164.428 122.506 171.305 114 171.305Z" fill="#D4E7FF"/>
<path d="M114 157.313C113.261 157.313 112.662 156.716 112.662 155.979C112.662 155.242 113.261 154.644 114 154.644C114.739 154.644 115.338 155.242 115.338 155.979C115.338 156.716 114.739 157.313 114 157.313Z" fill="#016EEA"/>
<path d="M114.467 155.998L114.088 140.953L113.357 155.985L114.467 155.998Z" fill="#016EEA"/>
<path d="M130.656 217.723L114.075 224.148L97.356 217.656C98.7424 210.426 105.664 204.928 113.999 204.928C122.361 204.928 129.3 210.46 130.656 217.723Z" fill="#D4E7FF"/>
<path d="M114.3 222.256L125.356 210.711L113.524 221.464L114.3 222.256Z" fill="#016EEA"/>
<path d="M113.999 230.197C110.474 230.197 107.617 227.347 107.617 223.831C107.617 220.316 110.474 217.466 113.999 217.466C117.524 217.466 120.382 220.316 120.382 223.831C120.382 227.347 117.524 230.197 113.999 230.197Z" fill="white"/>
</g>
<g clip-path="url(#clip8_1066_14228)">
<path d="M185.04 258.075C185.04 262.673 189.16 266.4 194.243 266.4H261.307C266.39 266.4 270.51 262.673 270.51 258.075H185.04Z" fill="#EFF0F2"/>
</g>
<g clip-path="url(#clip9_1066_14228)">
<path d="M256.808 94.1617L263.759 119.767C263.886 120.235 263.857 120.731 263.676 121.18L261.795 125.87C261.443 126.746 260.578 127.301 259.64 127.253L253.95 126.959L244.047 94.1682L256.808 94.1617Z" fill="#93C3FF"/>
<path d="M262.296 108.66L265.784 126.406C266.144 128.238 265.323 130.1 263.734 131.063L261.949 132.144C259.865 133.405 257.158 132.728 255.903 130.631L254.147 127.694C253.596 126.773 253.396 125.681 253.586 124.623L255.842 112.049L262.296 108.66Z" fill="#C78982"/>
<path d="M256.581 113.599L259.598 115.084C260.735 115.973 262.389 115.765 263.272 114.621L264.902 112.511C265.786 111.367 265.579 109.703 264.442 108.814L262.727 104.767C261.59 103.878 259.137 104.969 258.254 106.113L256.292 109.677C255.544 110.644 255.619 112.847 256.581 113.599Z" fill="#C78982"/>
<path d="M235.927 77.8508H220.267V64.5176C220.266 59.8442 224.033 56.055 228.679 56.055H231.18C235.825 56.055 239.591 59.8442 239.591 64.5176V74.164C239.591 76.2001 237.951 77.8508 235.927 77.8508Z" fill="#002652"/>
<path d="M203.535 94.1617L196.584 119.767C196.457 120.235 196.486 120.731 196.667 121.18L198.548 125.87C198.9 126.746 199.765 127.301 200.703 127.253L206.393 126.959L216.296 94.1676L203.535 94.1617Z" fill="#93C3FF"/>
<path d="M197.791 109.96L194.559 126.407C194.199 128.239 195.019 130.101 196.608 131.063L198.393 132.144C200.478 133.406 203.184 132.729 204.439 130.632L206.195 127.695C206.747 126.773 206.946 125.681 206.756 124.623L204.5 112.05L197.791 109.96Z" fill="#C78982"/>
<path d="M249.679 86.4241L231.273 82.9249L210.774 86.3057C206.981 86.9313 204.03 89.9576 203.48 93.7835L201.761 105.746L258.632 105.45L256.738 93.7125C256.145 90.031 253.322 87.1166 249.679 86.4241Z" fill="#93C3FF"/>
<path d="M247.469 123.229L250.702 140.835L251.237 186.555C251.237 186.555 236.238 185.932 236.188 185.648L226.152 127.647L247.469 123.229Z" fill="#2888FF"/>
<path d="M255.441 206.385L253.392 226.304L252.694 233.089L252.314 236.795L252.201 237.892L251.836 241.437L251.657 243.186L251.385 245.845L251.368 245.997C251.368 245.997 249.609 246.296 247.569 246.644C246.67 246.799 245.716 246.961 244.837 247.115C244.339 247.199 243.869 247.282 243.441 247.356C242.344 247.546 241.552 247.687 241.451 247.711L241.428 247.389L241.363 246.479L240.843 239.323L240.26 231.296L236.779 204.217L235.765 184.079L250.396 181.55L255.223 202.773C255.491 203.957 255.564 205.177 255.441 206.385Z" fill="#2888FF"/>
<path d="M240.338 256.684H254.514L255.276 253.159C255.496 252.145 255.354 251.086 254.877 250.166L252.972 246.496L247.223 243.236L241.439 246.496L240.247 249.583C239.59 251.287 239.471 253.153 239.907 254.927L240.338 256.684Z" fill="#73B2FF"/>
<path d="M242.424 259.74H252.19C252.74 259.74 253.23 259.438 253.407 258.988L254.395 256.48H240.219L241.207 258.988C241.385 259.438 241.873 259.74 242.424 259.74Z" fill="#016EEA"/>
<path d="M244.358 242.422H250.256C250.865 242.422 251.358 242.918 251.358 243.53V249.26C251.358 249.872 250.865 250.368 250.256 250.368H244.358C243.75 250.368 243.257 249.872 243.257 249.26V243.53C243.257 242.918 243.75 242.422 244.358 242.422Z" fill="#73B2FF"/>
<path d="M248.32 254.85H246.295C245.459 254.85 244.776 255.538 244.776 256.378C244.776 257.219 245.459 257.906 246.295 257.906H248.32C249.155 257.906 249.839 257.219 249.839 256.378C249.839 255.538 249.155 254.85 248.32 254.85Z" fill="#016EEA"/>
<path d="M213.479 123.229L210.245 140.835L209.711 186.555C209.711 186.555 224.71 185.932 224.76 185.648L234.796 127.647L213.479 123.229Z" fill="#2888FF"/>
<path d="M205.508 206.385L207.557 226.304L208.254 233.089L208.634 236.795L208.747 237.892L209.112 241.437L209.292 243.186L209.563 245.845L209.58 245.997C209.58 245.997 211.339 246.296 213.379 246.644C214.278 246.799 215.232 246.961 216.111 247.115C216.609 247.199 217.08 247.282 217.507 247.356C218.604 247.546 219.396 247.687 219.497 247.711L219.52 247.389L219.585 246.479L220.105 239.323L220.688 231.296L224.169 204.217L225.184 184.079L210.552 181.55L205.725 202.773C205.458 203.957 205.384 205.177 205.508 206.385Z" fill="#2888FF"/>
<path d="M220.609 256.684H206.433L205.671 253.159C205.452 252.145 205.593 251.086 206.071 250.166L207.975 246.496L213.724 243.236L219.508 246.496L220.7 249.583C221.358 251.287 221.477 253.153 221.041 254.927L220.609 256.684Z" fill="#73B2FF"/>
<path d="M218.524 259.74H208.758C208.208 259.74 207.719 259.438 207.541 258.988L206.553 256.48H220.729L219.741 258.988C219.564 259.438 219.074 259.74 218.524 259.74Z" fill="#016EEA"/>
<path d="M216.59 242.422H210.692C210.084 242.422 209.591 242.918 209.591 243.53V249.26C209.591 249.872 210.084 250.368 210.692 250.368H216.59C217.199 250.368 217.692 249.872 217.692 249.26V243.53C217.692 242.918 217.199 242.422 216.59 242.422Z" fill="#73B2FF"/>
<path d="M212.629 254.85H214.654C215.489 254.85 216.173 255.538 216.173 256.378C216.173 257.219 215.489 257.906 214.654 257.906H212.629C211.793 257.906 211.11 257.219 211.11 256.378C211.11 255.538 211.793 254.85 212.629 254.85Z" fill="#016EEA"/>
<path d="M210.35 86.6917L250.819 86.9172V142.371H210.35V86.6917Z" fill="#93C3FF"/>
<path d="M231.018 98.0438L235.431 83.5902V74.5239H229.831H224.919V84.0329L229.762 98.0663C229.971 98.6736 230.83 98.6582 231.018 98.0438Z" fill="#C78982"/>
<path d="M221.648 60.0312H229.605H230.742C234.509 60.0312 237.562 63.103 237.562 66.8928V71.0099V74.6772C237.562 75.8473 237.116 76.973 236.317 77.8224L232.395 81.9886H226.815L222.893 77.8224C222.094 76.973 221.648 75.8473 221.648 74.6772V71.0099V60.0312H221.648Z" fill="#C78982"/>
<path d="M223.042 73.1229H227.532C227.832 73.1229 228.075 72.8785 228.075 72.5772V68.0914C228.075 67.7901 227.832 67.5457 227.532 67.5457H223.042C221.512 67.5457 220.271 68.7939 220.271 70.334C220.27 71.8746 221.512 73.1229 223.042 73.1229Z" fill="#C78982"/>
<path d="M236.681 73.1229H232.191C231.892 73.1229 231.649 72.8785 231.649 72.5772V68.0914C231.649 67.7901 231.892 67.5457 232.191 67.5457H236.681C238.212 67.5457 239.453 68.7939 239.453 70.334C239.453 71.8746 238.211 73.1229 236.681 73.1229Z" fill="#C78982"/>
<path d="M224.975 58.4568H234.216L233.027 62.9645C232.321 65.644 229.91 67.5101 227.154 67.5101H220.876V62.581C220.876 60.3035 222.711 58.4568 224.975 58.4568Z" fill="#002652"/>
<path d="M227.531 67.4912C226.882 67.4912 226.357 68.0198 226.357 68.672V73.8444C226.357 75.1134 225.821 76.322 224.886 77.1731C223.949 78.0254 223.384 78.8984 218.412 78.973L219.694 76.1563L220.335 72.2452L220.313 64.5182H227.531V67.4912Z" fill="#002652"/>
<path opacity="0.1" d="M226.057 80.9144L228.794 83.5932H224.9V81.4062C224.9 80.7989 225.625 80.4912 226.057 80.9144Z" fill="#002652"/>
<g opacity="0.1">
<path d="M222.814 71.4349L222.783 71.3952H222.814V70.4464C222.814 69.7072 223.409 69.1076 224.145 69.1076H226.943C227.933 69.1076 228.735 69.9149 228.735 70.9105V71.1289C228.735 71.2206 228.722 71.3088 228.703 71.3946H228.735V74.557C228.735 75.2104 229.262 75.7408 229.912 75.7408H231.691L228.274 77.0068L224.254 73.2584L223.506 72.3103H222.814V71.4349H222.814Z" fill="#1D2445"/>
</g>
<path d="M201.338 110.529C200.181 110.529 199.242 109.204 199.242 107.57C199.242 105.936 200.181 104.611 201.338 104.611C202.496 104.611 203.434 105.936 203.434 107.57C203.434 109.204 202.496 110.529 201.338 110.529Z" fill="#C78982"/>
<path opacity="0.1" d="M257.728 113.646L257.025 112.314C256.146 110.648 256.932 108.345 258.782 107.169L259.077 106.982C260.94 105.798 263.189 106.202 264.075 107.879L264.759 109.176C265.644 110.851 264.852 113.168 262.992 114.35L262.697 114.538C260.837 115.72 258.612 115.321 257.728 113.646Z" fill="#002652"/>
<path d="M256.421 107.651C256.423 107.655 256.425 107.659 256.429 107.662C256.901 108.165 257.744 108.284 258.489 107.874L264.038 104.238C264.225 104.115 264.338 103.906 264.338 103.681V102.866C264.338 102.254 263.845 101.758 263.237 101.758H262.921C262.764 101.758 262.612 101.815 262.493 101.917L256.518 107.039C256.321 107.181 256.279 107.456 256.421 107.651Z" fill="#C78982"/>
<path d="M257.495 110.098C257.498 110.102 257.499 110.107 257.504 110.109C257.975 110.612 258.819 110.732 259.563 110.322L265.113 106.685C265.3 106.563 265.413 106.353 265.413 106.128V105.314C265.413 104.702 264.92 104.206 264.312 104.206H263.996C263.839 104.206 263.687 104.263 263.567 104.365L257.592 109.487C257.396 109.628 257.354 109.903 257.495 110.098Z" fill="#C78982"/>
<path d="M259.088 112.454C259.09 112.458 259.093 112.462 259.097 112.464C259.591 112.883 260.392 112.905 261.044 112.442L265.845 108.448C266.007 108.313 266.09 108.106 266.066 107.896L265.979 107.135C265.915 106.563 265.401 106.152 264.833 106.218L264.538 106.251C264.391 106.268 264.255 106.337 264.154 106.445L259.113 111.872C258.946 112.026 258.936 112.287 259.088 112.454Z" fill="#C78982"/>
<path d="M260.129 114.197C260.132 114.2 260.134 114.204 260.138 114.206C260.579 114.607 261.317 114.652 261.933 114.246L265.807 111.359C265.96 111.24 266.043 111.051 266.028 110.857L265.972 110.153C265.929 109.624 265.469 109.23 264.943 109.272L264.671 109.294C264.535 109.305 264.408 109.365 264.311 109.461L260.172 113.661C260.011 113.798 259.994 114.038 260.129 114.197Z" fill="#C78982"/>
<path d="M204.649 113.599L201.633 115.084C200.496 115.973 198.842 115.765 197.958 114.621L196.328 112.511C195.445 111.367 195.652 109.703 196.789 108.814L198.504 104.767C199.641 103.878 202.093 104.969 202.977 106.113L204.939 109.677C205.687 110.644 205.611 112.847 204.649 113.599Z" fill="#C78982"/>
<path opacity="0.1" d="M203.503 113.646L204.206 112.314C205.085 110.648 204.298 108.345 202.448 107.169L202.153 106.982C200.29 105.798 198.041 106.202 197.156 107.879L196.471 109.176C195.587 110.851 196.378 113.168 198.238 114.35L198.534 114.538C200.394 115.72 202.618 115.321 203.503 113.646Z" fill="#002652"/>
<path d="M204.99 107.546C204.988 107.551 204.986 107.555 204.981 107.558C204.51 108.061 203.666 108.18 202.922 107.77L197.373 104.134C197.185 104.011 197.073 103.802 197.073 103.577V102.763C197.073 102.151 197.566 101.655 198.174 101.655H198.49C198.647 101.655 198.799 101.711 198.918 101.813L204.893 106.935C205.089 107.077 205.131 107.352 204.99 107.546Z" fill="#C78982"/>
<path d="M203.915 109.994C203.913 109.998 203.911 110.003 203.906 110.005C203.435 110.508 202.591 110.628 201.847 110.218L196.298 106.581C196.111 106.459 195.998 106.249 195.998 106.024V105.21C195.998 104.598 196.491 104.102 197.099 104.102H197.415C197.572 104.102 197.724 104.158 197.843 104.261L203.818 109.382C204.014 109.524 204.056 109.799 203.915 109.994Z" fill="#C78982"/>
<path d="M202.322 112.351C202.32 112.355 202.317 112.358 202.313 112.36C201.819 112.78 201.018 112.801 200.366 112.338L195.565 108.345C195.403 108.21 195.32 108.002 195.344 107.792L195.43 107.031C195.495 106.46 196.009 106.049 196.577 106.114L196.872 106.148C197.019 106.164 197.155 106.234 197.256 106.342L202.297 111.768C202.464 111.922 202.474 112.184 202.322 112.351Z" fill="#C78982"/>
<path d="M201.281 114.093C201.279 114.097 201.277 114.1 201.273 114.102C200.831 114.504 200.094 114.548 199.478 114.142L195.604 111.256C195.451 111.137 195.368 110.947 195.383 110.753L195.439 110.049C195.481 109.52 195.941 109.126 196.467 109.169L196.74 109.191C196.876 109.202 197.003 109.261 197.1 109.358L201.239 113.557C201.4 113.694 201.417 113.934 201.281 114.093Z" fill="#C78982"/>
</g>
<g clip-path="url(#clip10_1066_14228)">
<path d="M194.475 123.765H259.41V133.2H194.475V123.765Z" fill="#016EEA"/>
<path d="M226.943 130.176C229.076 130.176 230.805 128.58 230.805 126.613V123.765H223.081V126.612C223.08 128.58 224.809 130.176 226.943 130.176Z" fill="#013B84"/>
</g>
<g clip-path="url(#clip11_1066_14228)">
<path d="M216.949 129.093L194.113 124.776C193 124.566 191.862 125.014 191.202 125.922L189.787 127.872C188.245 129.996 188.744 132.937 190.902 134.442L193.425 136.202C193.997 136.602 194.699 136.782 195.399 136.709L213.276 134.857L216.949 129.093Z" fill="#C78982"/>
<path d="M235.514 133.16C235.514 133.16 235.514 133.163 235.515 133.166C235.555 133.314 235.467 133.467 235.316 133.511L230.267 134.897C229.725 135.047 229.155 135.076 228.598 134.983L226.159 134.597L224.876 135.432C224.43 135.727 223.887 135.844 223.358 135.768L218.786 135.121L218.749 135.115C218.588 135.098 218.431 135.087 218.272 135.085L218.274 135.079L208.636 134.683L214.666 129.854C215.689 128.395 216.631 128.21 217.891 127.953L220.105 127.506C220.911 127.366 221.737 127.441 222.501 127.721C222.969 127.898 223.458 128.008 223.96 128.049C225.376 128.18 227.601 128.431 227.601 128.431C227.97 128.503 228.242 128.8 228.284 129.162L228.293 129.242C228.308 129.695 227.951 130.074 227.489 130.094C227.025 130.117 224.258 130.286 223.395 130.355C223.392 130.355 223.389 130.356 223.389 130.356C223.248 130.372 223.133 130.469 223.099 130.603C223.064 130.734 223.123 130.87 223.24 130.941L224.165 131.496L229.54 133.026L234.3 132.413C234.829 132.347 235.334 132.65 235.509 133.143L235.514 133.16Z" fill="#C78982"/>
</g>
<g clip-path="url(#clip12_1066_14228)">
<path d="M194.475 114.33H259.41V123.765H194.475V114.33Z" fill="#1A7CEC"/>
<path d="M226.943 120.741C229.076 120.741 230.805 119.145 230.805 117.178V114.33H223.081V117.177C223.08 119.145 224.809 120.741 226.943 120.741Z" fill="#013B84"/>
</g>
<g clip-path="url(#clip13_1066_14228)">
<path d="M195.03 95.46H259.965V104.895H195.03V95.46Z" fill="#1A7CEC"/>
<path d="M227.498 101.871C229.631 101.871 231.36 100.275 231.36 98.3076V95.46H223.636V98.3071C223.635 100.275 225.365 101.871 227.498 101.871Z" fill="#013B84"/>
</g>
<g clip-path="url(#clip14_1066_14228)">
<path d="M195.03 104.895H259.965V114.33H195.03V104.895Z" fill="#016EEA"/>
<path d="M227.498 111.306C229.631 111.306 231.36 109.71 231.36 107.743V104.895H223.636V107.742C223.635 109.71 225.365 111.306 227.498 111.306Z" fill="#013B84"/>
</g>
<g clip-path="url(#clip15_1066_14228)">
<path d="M229.071 54.945H230.275C235.331 54.945 239.43 58.7899 239.43 63.5326V66.0434C239.43 66.3507 239.164 66.6 238.837 66.6H218.759C218.432 66.6 218.166 66.3507 218.166 66.0434V65.1751C218.166 59.5252 223.048 54.945 229.071 54.945Z" fill="#016EEA"/>
<path d="M230.143 65.2608H213.087C212.31 65.2608 211.68 65.8519 211.68 66.5811H230.143V65.2608Z" fill="#016EEA"/>
</g>
<defs>
<clipPath id="clip0_1066_14228">
<rect width="49.395" height="90.465" fill="white" transform="matrix(-1 0 0 1 218.895 154.29)"/>
</clipPath>
<clipPath id="clip1_1066_14228">
<rect width="61.605" height="138.75" fill="white" transform="matrix(-1 0 0 1 21.3149 105.45)"/>
</clipPath>
<clipPath id="clip2_1066_14228">
<rect width="49.95" height="112.665" fill="white" transform="matrix(-1 0 0 1 266.625 133.755)"/>
</clipPath>
<clipPath id="clip3_1066_14228">
<rect width="51.06" height="166.5" fill="white" transform="matrix(-1 0 0 1 310.47 79.365)"/>
</clipPath>
<clipPath id="clip4_1066_14228">
<rect width="62.715" height="109.89" fill="white" transform="matrix(-1 0 0 1 185.595 137.64)"/>
</clipPath>
<clipPath id="clip5_1066_14228">
<rect width="59.385" height="166.5" fill="white" transform="matrix(-1 0 0 1 70.71 77.7)"/>
</clipPath>
<clipPath id="clip6_1066_14228">
<rect width="49.395" height="43.29" fill="white" transform="matrix(0.955808 -0.293992 0.294761 0.955571 19.9226 211.359)"/>
</clipPath>
<clipPath id="clip7_1066_14228">
<rect width="128.76" height="178.155" fill="white" transform="matrix(-1 0 0 1 178.38 76.59)"/>
</clipPath>
<clipPath id="clip8_1066_14228">
<rect width="85.47" height="8.325" fill="white" transform="matrix(-1 0 0 1 270.51 258.075)"/>
</clipPath>
<clipPath id="clip9_1066_14228">
<rect width="71.595" height="203.685" fill="white" transform="matrix(-1 0 0 1 266.07 56.055)"/>
</clipPath>
<clipPath id="clip10_1066_14228">
<rect width="64.935" height="9.435" fill="white" transform="matrix(-1 0 0 1 259.41 123.765)"/>
</clipPath>
<clipPath id="clip11_1066_14228">
<rect width="46.065" height="14.43" fill="white" transform="matrix(0.993593 -0.113014 0.113513 0.993537 188.256 125.31)"/>
</clipPath>
<clipPath id="clip12_1066_14228">
<rect width="64.935" height="9.435" fill="white" transform="matrix(-1 0 0 1 259.41 114.33)"/>
</clipPath>
<clipPath id="clip13_1066_14228">
<rect width="64.935" height="9.435" fill="white" transform="matrix(-1 0 0 1 259.965 95.46)"/>
</clipPath>
<clipPath id="clip14_1066_14228">
<rect width="64.935" height="9.435" fill="white" transform="matrix(-1 0 0 1 259.965 104.895)"/>
</clipPath>
<clipPath id="clip15_1066_14228">
<rect width="27.75" height="11.655" fill="white" transform="translate(211.68 54.945)"/>
</clipPath>
</defs>
</svg>
