<svg width="20" height="22" viewBox="0 0 20 22" fill="none" xmlns="http://www.w3.org/2000/svg">
<path  d="M4.28571 0C2.87571 0 1.71429 1.17671 1.71429 2.60526V16.2105H0.857143C0.629821 16.2105 0.411817 16.3021 0.251077 16.4649C0.090336 16.6278 2.27287e-05 16.8486 0 17.0789V18.2368C0 20.3048 1.67318 22 3.71429 22H16.2857C18.3268 22 20 20.3048 20 18.2368V2.60526C20 1.17671 18.8386 0 17.4286 0H4.28571ZM4.28571 1.73684H17.4286C17.9123 1.73684 18.2857 2.11518 18.2857 2.60526V18.2368C18.2857 19.3658 17.4 20.2632 16.2857 20.2632C15.1714 20.2632 14.2857 19.3658 14.2857 18.2368V17.0789C14.2857 16.8486 14.1954 16.6278 14.0346 16.4649C13.8739 16.3021 13.6559 16.2105 13.4286 16.2105H3.42857V2.60526C3.42857 2.11518 3.802 1.73684 4.28571 1.73684ZM6.57143 4.63158C6.3441 4.63158 6.12608 4.72307 5.96534 4.88593C5.80459 5.04879 5.71429 5.26968 5.71429 5.5C5.71429 5.73032 5.80459 5.95121 5.96534 6.11407C6.12608 6.27693 6.3441 6.36842 6.57143 6.36842C6.79876 6.36842 7.01677 6.27693 7.17752 6.11407C7.33827 5.95121 7.42857 5.73032 7.42857 5.5C7.42857 5.26968 7.33827 5.04879 7.17752 4.88593C7.01677 4.72307 6.79876 4.63158 6.57143 4.63158ZM9.42857 4.63158C9.31499 4.62995 9.20222 4.65121 9.09682 4.69412C8.99142 4.73704 8.89549 4.80074 8.8146 4.88155C8.73371 4.96235 8.66948 5.05863 8.62564 5.1648C8.5818 5.27097 8.55922 5.38491 8.55922 5.5C8.55922 5.61509 8.5818 5.72903 8.62564 5.8352C8.66948 5.94137 8.73371 6.03765 8.8146 6.11845C8.89549 6.19926 8.99142 6.26296 9.09682 6.30588C9.20222 6.34879 9.31499 6.37005 9.42857 6.36842H15.1429C15.2564 6.37005 15.3692 6.34879 15.4746 6.30588C15.58 6.26296 15.6759 6.19926 15.7568 6.11845C15.8377 6.03765 15.9019 5.94137 15.9458 5.8352C15.9896 5.72903 16.0122 5.61509 16.0122 5.5C16.0122 5.38491 15.9896 5.27097 15.9458 5.1648C15.9019 5.05863 15.8377 4.96235 15.7568 4.88155C15.6759 4.80074 15.58 4.73704 15.4746 4.69412C15.3692 4.65121 15.2564 4.62995 15.1429 4.63158H9.42857ZM6.57143 8.10526C6.3441 8.10526 6.12608 8.19676 5.96534 8.35962C5.80459 8.52248 5.71429 8.74336 5.71429 8.97368C5.71429 9.204 5.80459 9.42489 5.96534 9.58775C6.12608 9.75061 6.3441 9.84211 6.57143 9.84211C6.79876 9.84211 7.01677 9.75061 7.17752 9.58775C7.33827 9.42489 7.42857 9.204 7.42857 8.97368C7.42857 8.74336 7.33827 8.52248 7.17752 8.35962C7.01677 8.19676 6.79876 8.10526 6.57143 8.10526ZM9.42857 8.10526C9.31499 8.10364 9.20222 8.1249 9.09682 8.16781C8.99142 8.21072 8.89549 8.27443 8.8146 8.35523C8.73371 8.43603 8.66948 8.53231 8.62564 8.63849C8.5818 8.74466 8.55922 8.8586 8.55922 8.97368C8.55922 9.08877 8.5818 9.20271 8.62564 9.30888C8.66948 9.41505 8.73371 9.51134 8.8146 9.59214C8.89549 9.67294 8.99142 9.73665 9.09682 9.77956C9.20222 9.82247 9.31499 9.84373 9.42857 9.84211H15.1429C15.2564 9.84373 15.3692 9.82247 15.4746 9.77956C15.58 9.73665 15.6759 9.67294 15.7568 9.59214C15.8377 9.51134 15.9019 9.41505 15.9458 9.30888C15.9896 9.20271 16.0122 9.08877 16.0122 8.97368C16.0122 8.8586 15.9896 8.74466 15.9458 8.63849C15.9019 8.53231 15.8377 8.43603 15.7568 8.35523C15.6759 8.27443 15.58 8.21072 15.4746 8.16781C15.3692 8.1249 15.2564 8.10364 15.1429 8.10526H9.42857ZM6.57143 11.5789C6.3441 11.5789 6.12608 11.6704 5.96534 11.8333C5.80459 11.9962 5.71429 12.217 5.71429 12.4474C5.71429 12.6777 5.80459 12.8986 5.96534 13.0614C6.12608 13.2243 6.3441 13.3158 6.57143 13.3158C6.79876 13.3158 7.01677 13.2243 7.17752 13.0614C7.33827 12.8986 7.42857 12.6777 7.42857 12.4474C7.42857 12.217 7.33827 11.9962 7.17752 11.8333C7.01677 11.6704 6.79876 11.5789 6.57143 11.5789V11.5789ZM9.42857 11.5789C9.31499 11.5773 9.20222 11.5986 9.09682 11.6415C8.99142 11.6844 8.89549 11.7481 8.8146 11.8289C8.73371 11.9097 8.66948 12.006 8.62564 12.1122C8.5818 12.2183 8.55922 12.3323 8.55922 12.4474C8.55922 12.5625 8.5818 12.6764 8.62564 12.7826C8.66948 12.8887 8.73371 12.985 8.8146 13.0658C8.89549 13.1466 8.99142 13.2103 9.09682 13.2532C9.20222 13.2962 9.31499 13.3174 9.42857 13.3158H15.1429C15.2564 13.3174 15.3692 13.2962 15.4746 13.2532C15.58 13.2103 15.6759 13.1466 15.7568 13.0658C15.8377 12.985 15.9019 12.8887 15.9458 12.7826C15.9896 12.6764 16.0122 12.5625 16.0122 12.4474C16.0122 12.3323 15.9896 12.2183 15.9458 12.1122C15.9019 12.006 15.8377 11.9097 15.7568 11.8289C15.6759 11.7481 15.58 11.6844 15.4746 11.6415C15.3692 11.5986 15.2564 11.5773 15.1429 11.5789H9.42857ZM1.71429 17.9474H12.5714V18.2368C12.5714 18.9982 12.8538 19.6689 13.2422 20.2632H3.71429C2.59996 20.2632 1.71429 19.3658 1.71429 18.2368V17.9474Z" />
</svg>
