<svg width="20" height="20" viewBox="0 0 20 20" fill="none" xmlns="http://www.w3.org/2000/svg">
<path d="M10 -0.000976562C4.48615 -0.000976562 0 4.48517 0 9.99902C0 11.6367 0.431354 13.1674 1.13086 14.5322L0.046875 18.4131C-0.205601 19.3148 0.685963 20.2063 1.58789 19.9541L5.47168 18.8701C6.83537 19.5682 8.36388 19.999 10 19.999C15.5139 19.999 20 15.5129 20 9.99902C20 4.48517 15.5139 -0.000976562 10 -0.000976562ZM10 1.49902C14.7031 1.49902 18.5 5.29588 18.5 9.99902C18.5 14.7022 14.7031 18.499 10 18.499C8.49921 18.499 7.0953 18.1088 5.87109 17.4268C5.69853 17.3306 5.495 17.3064 5.30469 17.3594L1.61133 18.3896L2.64258 14.6982C2.69585 14.5076 2.67163 14.3037 2.5752 14.1309C1.89183 12.9058 1.5 11.5013 1.5 9.99902C1.5 5.29588 5.29685 1.49902 10 1.49902ZM10 4.5C8.35207 4.5 7 5.85207 7 7.5C6.99859 7.59938 7.01696 7.69806 7.05402 7.79028C7.09108 7.88251 7.1461 7.96645 7.21588 8.03723C7.28566 8.108 7.36882 8.16421 7.46051 8.20257C7.5522 8.24093 7.65061 8.26068 7.75 8.26068C7.84939 8.26068 7.9478 8.24093 8.03949 8.20257C8.13118 8.16421 8.21434 8.108 8.28412 8.03723C8.3539 7.96645 8.40892 7.88251 8.44598 7.79028C8.48304 7.69806 8.50141 7.59938 8.5 7.5C8.5 6.66293 9.16293 6 10 6C10.8371 6 11.5 6.66293 11.5 7.5C11.5 8.29311 11.1783 8.52655 10.6133 9.05469C10.0482 9.58283 9.25 10.4033 9.25 11.75C9.24859 11.8494 9.26696 11.9481 9.30402 12.0403C9.34108 12.1325 9.3961 12.2164 9.46588 12.2872C9.53566 12.358 9.61882 12.4142 9.71051 12.4526C9.8022 12.4909 9.90061 12.5107 10 12.5107C10.0994 12.5107 10.1978 12.4909 10.2895 12.4526C10.3812 12.4142 10.4643 12.358 10.5341 12.2872C10.6039 12.2164 10.6589 12.1325 10.696 12.0403C10.733 11.9481 10.7514 11.8494 10.75 11.75C10.75 10.9202 11.0768 10.6738 11.6367 10.1504C12.1967 9.62703 13 8.82439 13 7.5C13 5.85207 11.6479 4.5 10 4.5ZM10 13.5C9.73478 13.5 9.48043 13.6054 9.29289 13.7929C9.10536 13.9804 9 14.2348 9 14.5C9 14.7652 9.10536 15.0196 9.29289 15.2071C9.48043 15.3946 9.73478 15.5 10 15.5C10.2652 15.5 10.5196 15.3946 10.7071 15.2071C10.8946 15.0196 11 14.7652 11 14.5C11 14.2348 10.8946 13.9804 10.7071 13.7929C10.5196 13.6054 10.2652 13.5 10 13.5Z" />
</svg>
