 <svg
    width="20"
    height="20"
    viewBox="0 0 20 20"
    fill="none"
    xmlns="http://www.w3.org/2000/svg">
    <path
      d="M10 2C8.02093 2 6.20188 2.72229 4.80469 3.91667C4.73465 3.97242 4.67657 4.0417 4.63388 4.12039C4.5912 4.19907 4.5648 4.28554 4.55626 4.37465C4.54771 4.46376 4.5572 4.55367 4.58415 4.63903C4.6111 4.72439 4.65497 4.80345 4.71313 4.8715C4.77129 4.93954 4.84256 4.99518 4.92268 5.03509C5.00281 5.075 5.09015 5.09837 5.1795 5.1038C5.26885 5.10923 5.35838 5.09661 5.44275 5.0667C5.52712 5.03678 5.6046 4.99019 5.67057 4.92969C6.83605 3.9334 8.3444 3.33333 10 3.33333C13.4644 3.33333 16.3007 5.95862 16.6341 9.33333H14.6667L17.3333 13.3333L20 9.33333H17.9661C17.6253 5.23444 14.1852 2 10 2ZM2.66667 6.66667L0 10.6667H2.03385C2.37472 14.7656 5.81477 18 10 18C11.9791 18 13.7981 17.2777 15.1953 16.0833C15.2653 16.0276 15.3234 15.9583 15.3661 15.8796C15.4088 15.8009 15.4352 15.7145 15.4437 15.6253C15.4523 15.5362 15.4428 15.4463 15.4159 15.361C15.3889 15.2756 15.345 15.1965 15.2869 15.1285C15.2287 15.0605 15.1574 15.0048 15.0773 14.9649C14.9972 14.925 14.9099 14.9016 14.8205 14.8962C14.7312 14.8908 14.6416 14.9034 14.5573 14.9333C14.4729 14.9632 14.3954 15.0098 14.3294 15.0703C13.164 16.0666 11.6556 16.6667 10 16.6667C6.53563 16.6667 3.69934 14.0414 3.36589 10.6667H5.33333L2.66667 6.66667Z"
  
    />
  </svg>