<svg width="20" height="20" viewBox="0 0 20 20" fill="none" xmlns="http://www.w3.org/2000/svg">
<path d="M10 0C4.48603 0 0 4.48604 0 10C0 15.514 4.48603 20 10 20C15.514 20 20 15.514 20 10C20 4.48604 15.514 0 10 0ZM10 1.5C14.7033 1.5 18.5 5.2967 18.5 10C18.5 14.7033 14.7033 18.5 10 18.5C5.29669 18.5 1.5 14.7033 1.5 10C1.5 5.2967 5.29669 1.5 10 1.5ZM9.98828 4.98926C9.78954 4.99236 9.60016 5.07423 9.46173 5.21686C9.3233 5.3595 9.24715 5.55125 9.25 5.75V10.75C9.24859 10.8494 9.26696 10.9481 9.30402 11.0403C9.34108 11.1325 9.3961 11.2164 9.46588 11.2872C9.53566 11.358 9.61882 11.4142 9.71051 11.4526C9.8022 11.4909 9.90061 11.5107 10 11.5107C10.0994 11.5107 10.1978 11.4909 10.2895 11.4526C10.3812 11.4142 10.4643 11.358 10.5341 11.2872C10.6039 11.2164 10.6589 11.1325 10.696 11.0403C10.733 10.9481 10.7514 10.8494 10.75 10.75V5.75C10.7514 5.64962 10.7327 5.54997 10.6949 5.45695C10.6571 5.36394 10.6011 5.27946 10.53 5.20852C10.459 5.13758 10.3745 5.08161 10.2814 5.04395C10.1883 5.00629 10.0887 4.98769 9.98828 4.98926ZM10 13C9.73478 13 9.48043 13.1054 9.29289 13.2929C9.10536 13.4804 9 13.7348 9 14C9 14.2652 9.10536 14.5196 9.29289 14.7071C9.48043 14.8946 9.73478 15 10 15C10.2652 15 10.5196 14.8946 10.7071 14.7071C10.8946 14.5196 11 14.2652 11 14C11 13.7348 10.8946 13.4804 10.7071 13.2929C10.5196 13.1054 10.2652 13 10 13Z" />
</svg>
