<svg width="20" height="20" viewBox="0 0 20 20" fill="none" xmlns="http://www.w3.org/2000/svg">
<path d="M10 0C9.21156 0 8.45134 0.0997142 7.7256 0.268555C7.57426 0.303878 7.43763 0.385336 7.33459 0.501671C7.23155 0.618005 7.16719 0.763473 7.1504 0.917969L6.99122 2.36914C6.93916 2.84468 6.66447 3.26543 6.25001 3.50488C5.83638 3.74386 5.33432 3.77033 4.8965 3.57812H4.89552L3.56251 2.99121C3.42033 2.92864 3.26223 2.91176 3.11004 2.9429C2.95785 2.97403 2.81909 3.05165 2.7129 3.16504C1.67666 4.26979 0.881353 5.60753 0.4297 7.10059C0.384711 7.24919 0.386946 7.40809 0.436098 7.55537C0.48525 7.70265 0.578895 7.83105 0.704114 7.92285L1.88673 8.79004C2.27291 9.07396 2.50001 9.5214 2.50001 10C2.50001 10.4789 2.27291 10.9267 1.88673 11.21L0.704114 12.0762C0.578895 12.168 0.48525 12.2964 0.436098 12.4437C0.386946 12.5909 0.384711 12.7498 0.4297 12.8984C0.881305 14.3913 1.67598 15.7301 2.7129 16.835C2.8192 16.9482 2.95802 17.0256 3.1102 17.0566C3.26239 17.0875 3.42043 17.0705 3.56251 17.0078L4.89552 16.4209C5.33356 16.2283 5.8361 16.256 6.25001 16.4951C6.66447 16.7346 6.93916 17.1553 6.99122 17.6309L7.1504 19.082C7.16732 19.2362 7.23162 19.3814 7.33446 19.4975C7.4373 19.6136 7.57361 19.695 7.72462 19.7305C8.4507 19.8999 9.21156 20 10 20C10.7885 20 11.5487 19.9003 12.2744 19.7314C12.4258 19.6961 12.5624 19.6147 12.6654 19.4983C12.7685 19.382 12.8328 19.2365 12.8496 19.082L13.0088 17.6309C13.0609 17.1553 13.3356 16.7346 13.75 16.4951C14.1636 16.2561 14.6657 16.2287 15.1035 16.4209L16.4375 17.0078C16.5796 17.0705 16.7376 17.0875 16.8898 17.0566C17.042 17.0256 17.1808 16.9482 17.2871 16.835C18.3234 15.7302 19.1187 14.3915 19.5703 12.8984C19.6153 12.7498 19.6131 12.5909 19.5639 12.4437C19.5148 12.2964 19.4211 12.168 19.2959 12.0762L18.1133 11.21C17.7271 10.9267 17.5 10.4789 17.5 10C17.5 9.52114 17.7271 9.07333 18.1133 8.79004L19.2959 7.92383C19.4211 7.83203 19.5148 7.70363 19.5639 7.55635C19.6131 7.40907 19.6153 7.25017 19.5703 7.10156C19.1187 5.60851 18.3234 4.26979 17.2871 3.16504C17.1808 3.05182 17.042 2.97438 16.8898 2.94342C16.7376 2.91246 16.5796 2.9295 16.4375 2.99219L15.1035 3.5791C14.6657 3.77131 14.1636 3.74386 13.75 3.50488C13.3356 3.26543 13.0609 2.84468 13.0088 2.36914L12.8496 0.917969C12.8327 0.763777 12.7684 0.618621 12.6656 0.502492C12.5627 0.386363 12.4264 0.304974 12.2754 0.269531C11.5493 0.100078 10.7885 0 10 0ZM10 1.5C10.4872 1.5 10.955 1.58744 11.4238 1.66992L11.5176 2.53223C11.6215 3.48169 12.1735 4.32617 13 4.80371C13.8271 5.28157 14.8341 5.3365 15.708 4.95215L16.501 4.60352C17.1099 5.3347 17.592 6.16059 17.9287 7.06543L17.2256 7.58105C16.4558 8.14576 16 9.04486 16 10C16 10.9551 16.4558 11.8542 17.2256 12.4189L17.9287 12.9346C17.592 13.8394 17.1099 14.6653 16.501 15.3965L15.708 15.0479C14.8341 14.6635 13.8271 14.7184 13 15.1963C12.1735 15.6738 11.6215 16.5183 11.5176 17.4678L11.4238 18.3301C10.955 18.4123 10.4869 18.5 10 18.5C9.51286 18.5 9.04505 18.4126 8.57618 18.3301L8.48243 17.4678C8.37849 16.5183 7.82656 15.6738 7.00001 15.1963C6.17293 14.7184 5.16597 14.6635 4.292 15.0479L3.49904 15.3965C2.89 14.6654 2.40798 13.8395 2.0713 12.9346L2.77443 12.4189C3.54424 11.8542 4.00001 10.9551 4.00001 10C4.00001 9.04486 3.54387 8.14518 2.77443 7.58008L2.0713 7.06445C2.40818 6.15927 2.89074 5.33392 3.50001 4.60254L4.292 4.95117C5.16597 5.33553 6.17293 5.28157 7.00001 4.80371C7.82656 4.32617 8.37849 3.48169 8.48243 2.53223L8.57618 1.66992C9.04501 1.58767 9.5131 1.5 10 1.5ZM10 6C7.79976 6 6.00001 7.79975 6.00001 10C6.00001 12.2003 7.79976 14 10 14C12.2003 14 14 12.2003 14 10C14 7.79975 12.2003 6 10 6ZM10 7.5C11.3896 7.5 12.5 8.6104 12.5 10C12.5 11.3896 11.3896 12.5 10 12.5C8.61042 12.5 7.50001 11.3896 7.50001 10C7.50001 8.6104 8.61042 7.5 10 7.5Z" />
</svg>
