<svg width="20" height="20" viewBox="0 0 20 20" fill="none" xmlns="http://www.w3.org/2000/svg">
<path fill-rule="evenodd" clip-rule="evenodd" d="M0.0184822 2.31778C0.114712 1.03198 1.19151 8.33396e-05 2.50003 8.33396e-05H16.3889C16.4993 -0.00147836 16.609 0.0189225 16.7114 0.0601005C16.8139 0.101278 16.9072 0.162412 16.9858 0.239949C17.0645 0.317486 17.1269 0.409879 17.1695 0.51176C17.2121 0.61364 17.2341 0.722976 17.2341 0.833413C17.2341 0.94385 17.2121 1.05319 17.1695 1.15507C17.1269 1.25695 17.0645 1.34934 16.9858 1.42688C16.9072 1.50441 16.8139 1.56555 16.7114 1.60673C16.609 1.6479 16.4993 1.6683 16.3889 1.66674H2.50003C2.02976 1.66674 1.6667 2.0298 1.6667 2.50007C1.6667 2.97035 2.02976 3.3334 2.50003 3.3334H17.5C18.8708 3.3334 20 4.46256 20 5.83339V17.5C20 18.8708 18.8708 20 17.5 20H2.50003C1.1292 20 3.60255e-05 18.8708 3.60255e-05 17.5V5.00006V4.16673V2.50007C-0.000533559 2.43882 0.00565254 2.37768 0.0184822 2.31778Z" />
</svg>
