<svg width="20" height="18" viewBox="0 0 20 18" fill="none" xmlns="http://www.w3.org/2000/svg">
<path d="M8.22764 0.500334C8.03655 0.506185 7.85491 0.58478 7.71983 0.720061L0.719826 7.72006C0.579227 7.86072 0.500244 8.05146 0.500244 8.25033C0.500244 8.44921 0.579227 8.63995 0.719826 8.78061L7.71983 15.7806C7.82473 15.8854 7.95835 15.9568 8.10381 15.9857C8.24927 16.0146 8.40004 15.9998 8.53705 15.943C8.67407 15.8863 8.79119 15.7902 8.8736 15.6669C8.95602 15.5436 9.00004 15.3986 9.0001 15.2503V11.4281C10.0939 11.3703 11.7887 11.3705 13.5196 11.9398C15.5705 12.6143 17.4211 13.9297 18.0147 16.8978C18.0515 17.0801 18.1547 17.2422 18.3042 17.3528C18.4538 17.4633 18.6391 17.5143 18.8241 17.4959C19.0092 17.4776 19.1808 17.3911 19.3057 17.2533C19.4306 17.1156 19.4999 16.9363 19.5001 16.7503C19.5001 16.6959 19.484 16.6568 19.4835 16.6029H19.4855C19.4847 16.5991 19.4823 16.5968 19.4815 16.5931C19.43 11.6857 17.2101 8.71387 14.713 7.09701C12.5133 5.67273 10.3287 5.29125 9.0001 5.14291V1.25033C9.00013 1.14993 8.98001 1.05053 8.94092 0.958049C8.90183 0.865564 8.84457 0.781869 8.77253 0.711926C8.70049 0.641982 8.61514 0.587214 8.52154 0.550868C8.42794 0.514522 8.328 0.497337 8.22764 0.500334ZM7.5001 3.06088V5.77377C7.50009 5.96306 7.57165 6.14536 7.70042 6.2841C7.8292 6.42283 8.00567 6.50775 8.19444 6.52182C9.19674 6.59583 11.7106 6.93974 13.8976 8.3558C15.2271 9.21669 16.3968 10.5215 17.1563 12.3783C16.2074 11.4975 15.1017 10.8812 13.9884 10.515C11.6053 9.73116 9.22176 9.84808 8.17979 9.94565C7.99381 9.96318 7.82107 10.0495 7.69536 10.1876C7.56965 10.3258 7.50002 10.5059 7.5001 10.6927V13.4398L2.31065 8.25033L7.5001 3.06088Z" />
</svg>
