<svg width="136" height="20" viewBox="0 0 136 20" fill="none" xmlns="http://www.w3.org/2000/svg">
<path d="M6.88587 19.7245H10.3538L17.2396 1.4518H13.5472L8.60734 15.0186L3.71737 1.4518H0L6.88587 19.7245Z" fill="black"/>
<path d="M18.9537 19.7245H22.4715V6.2077H18.9537V19.7245ZM18.5046 2.40298C18.5046 3.67956 19.4028 4.60571 20.7001 4.60571C22.0224 4.60571 22.9205 3.67956 22.9205 2.40298C22.9205 1.10137 22.0224 0.150186 20.7001 0.150186C19.4277 0.150186 18.5046 1.10137 18.5046 2.40298Z" fill="black"/>
<path d="M30.5305 19.9998C34.4475 20.0248 36.3186 17.6469 36.3186 15.5443C36.3186 12.6407 33.6741 11.8647 31.4287 11.4142C29.4577 10.9886 28.36 10.7633 28.36 9.91229C28.36 9.16136 29.0086 8.61068 30.3559 8.61068C31.6033 8.61068 32.4516 9.13633 33.0004 10.0374L36.144 8.76086C34.8966 6.95863 33.2 5.8823 30.3559 5.8823C27.0377 5.85726 24.8422 7.83472 24.8422 10.1125C24.8422 12.9661 27.362 13.6669 29.6324 14.1425C31.3538 14.493 32.8008 14.7183 32.8008 15.6945C32.8008 16.4955 32.0524 17.1713 30.6553 17.1713C29.2332 17.1713 28.1604 16.5455 27.5616 15.344L24.2434 16.6456C25.3162 18.7983 27.3371 19.9998 30.5305 19.9998Z" fill="black"/>
<path d="M43.4643 19.9998C45.1109 19.9998 46.4831 19.2489 47.3563 18.0224V19.7245L50.7993 19.6994V6.18267L47.3064 6.2077V13.6419C47.3064 15.7445 46.1089 16.921 44.4872 16.921C42.641 16.921 41.7429 15.7445 41.7429 13.8422V6.2077H38.2251V14.3178C38.2251 17.8722 40.1461 19.9998 43.4643 19.9998Z" fill="black"/>
<path d="M57.6939 19.9998C59.8146 19.9998 61.6608 19.0486 62.6338 17.6469V19.7245H65.952V11.4142C65.952 8.00993 63.6816 5.93236 59.7148 5.93236C56.696 5.93236 54.725 7.20894 53.3528 9.01118L56.5213 10.5881C57.145 9.46173 58.1679 8.81093 59.6898 8.81093C61.6358 8.81093 62.6088 9.81217 62.6088 11.264V11.4392H59.0661C55.3238 11.4392 53.0035 13.1663 53.0035 15.9698C53.0035 18.3478 54.7499 19.9998 57.6939 19.9998ZM58.6919 17.1463C57.2698 17.1463 56.5962 16.6456 56.5962 15.6694C56.5962 14.6181 57.4195 13.9673 59.4653 13.9673H62.6338V14.6932C61.9602 16.145 60.3385 17.1463 58.6919 17.1463Z" fill="black"/>
<path d="M68.6076 19.7245H72.0506V0H68.6076V19.7245Z" fill="black"/>
<path d="M89.7011 19.9748C94.9154 19.9748 99.0569 15.7696 99.0569 10.5881C99.0569 5.40671 94.8904 1.20149 89.7011 1.20149C84.5367 1.20149 80.3952 5.40671 80.3952 10.5881C80.3952 15.7696 84.5367 19.9748 89.7011 19.9748ZM89.7011 16.4955C86.4328 16.4955 83.9379 13.8171 83.9379 10.5881C83.9379 7.3341 86.4328 4.65577 89.7011 4.65577C92.9943 4.65577 95.5141 7.3341 95.5141 10.5881C95.5141 13.8171 93.0193 16.4955 89.7011 16.4955Z" fill="black"/>
<path d="M101.773 19.7245H105.266V7.03372L110.58 14.2677L116.044 6.90857V19.7245H119.487V1.4518H116.218L110.605 8.98615L105.191 1.4518H101.773V19.7245Z" fill="black"/>
<path d="M129.314 19.9748C133.38 19.9748 136 17.3715 136 14.2427C136 10.2878 132.782 9.38664 129.987 8.7859C127.717 8.26024 125.896 7.9849 125.896 6.50807C125.896 5.30658 126.744 4.33037 128.715 4.33037C130.811 4.33037 132.033 5.20646 132.981 6.6082L135.85 4.3554C134.004 2.30286 131.983 1.17646 128.765 1.17646C124.973 1.17646 122.303 3.57944 122.303 6.58316C122.303 10.2878 125.347 11.1638 128.066 11.7396C130.586 12.3153 132.333 12.6657 132.333 14.3678C132.333 15.6945 131.31 16.6456 129.339 16.6456C127.168 16.6456 125.546 15.6694 124.349 13.7671L121.28 16.2201C123.002 18.4228 125.397 19.9748 129.314 19.9748Z" fill="black"/>
</svg>
